<?xml version="1.0" encoding="UTF-8"?>
<svg id="Layer_1" data-name="Layer 1" xmlns="http://www.w3.org/2000/svg" viewBox="0 0 510.39 254.22">
  <defs>
    <style>
      .cls-1 {
        fill: #6e6e5b;
      }
    </style>
  </defs>
  <path class="cls-1" d="M258.12,5.78c.8-.2.4-.82-1.77-.85l-.57.31-.28.16c-.08.05-.12.11-.18.16l-.13.15c-.05.05-.14.1-.21.15l.21-.02.12-.02c.08-.01.38-.01.61-.01h.73s1.46-.02,1.46-.02Z"/>
  <path class="cls-1" d="M243.73,3.96c-2.53.49-5.45,1.34-3.79,2.25,2.5-.96,3.12-.56,5.81-1.7,2.16-.12,3.78.31,3.42.68.76-.27,3.38.11,4.53-.55-1.42-.34-3.02-.48-4.73-.46-1.71-.02-3.53.13-5.39.45-.8-.22-.03-.48.15-.66Z"/>
  <path class="cls-1" d="M32.39,2.77l1.36.12c-.37-.06-.84-.1-1.36-.12Z"/>
  <path class="cls-1" d="M2.52,107.22c-.02-1-.12-1.41-.21-1.46.07.93.13,1.69.21,1.46Z"/>
  <path class="cls-1" d="M1.43,129.57c.02-.48.05-.88.07-1.32-.09.5-.14,1.01-.07,1.32Z"/>
  <path class="cls-1" d="M32.39,2.77l-3.5-.31c-.24.32,1.79.24,3.5.31Z"/>
  <path class="cls-1" d="M214.62,6.4c.73-.05,1.34-.14,1.9-.26-.6.04-1.18.07-1.78.11-.03.05-.06.1-.11.16Z"/>
  <path class="cls-1" d="M90.1,1.87h1.06c.31-.12.6-.25.88-.41l-1.94.41Z"/>
  <path class="cls-1" d="M134.39,1.64c-1-.03-1.34.81-1.72,1.18.56-.35,1.3-.51,2.18-.58.01-.16-.12-.35-.46-.6Z"/>
  <path class="cls-1" d="M204.64,3l1.24-.12c-.32.03-.87.08-1.24.12Z"/>
  <path class="cls-1" d="M58.4,1.74c-.08-.12-.23-.24-.41-.3,0,.11.16.21.41.3Z"/>
  <path class="cls-1" d="M311.6,7.75c.04-.06-.01-.1,0-.15-.26.08-.34.14,0,.15Z"/>
  <path class="cls-1" d="M260.26,3.57l.71-.05c.08-.16.15-.32.15-.47l-.87.52Z"/>
  <path class="cls-1" d="M.35,170.49c0-.08,0-.11.02-.18-.1-1.08-.08-.47-.02.18Z"/>
  <path class="cls-1" d="M301.17,252.85c-4.25-.75,6.92-.97.52-1.81.6.33-5.82,1.32-.52,1.81Z"/>
  <path class="cls-1" d="M213.47,6.29c-.6.01-1.21.02-1.82.01.83.03,1.38.02,1.82-.01Z"/>
  <path class="cls-1" d="M301.69,251.05h0s-.66-.09-.66-.09c.27.04.43.06.66.09Z"/>
  <path class="cls-1" d="M19.85,252.97c-.19-.15-.57-.26-.96-.37.03.09.25.19.96.37Z"/>
  <path class="cls-1" d="M2.06,194.53l-.11,1.74c.08-.69.1-1.25.11-1.74Z"/>
  <path class="cls-1" d="M56.32,251.78c.94.06,1.27.18,2.56.07-.12-.04-.24-.07-.39-.1-.47.11-1.09.17-2.16.04Z"/>
  <path class="cls-1" d="M94.27,251.77c-.2-.06-.47-.11-.7-.17-.38.01-.82.03-1.2.05l1.9.12Z"/>
  <path class="cls-1" d="M426.95,7.34c-.83-.24-1.35-.5-1.75-.76.59.6-4.99.81,1.75.76Z"/>
  <path class="cls-1" d="M214.59,5.93c-.22.21-.54.32-1.12.37.44-.02.85-.03,1.26-.05.11-.13.13-.24-.14-.32Z"/>
  <path class="cls-1" d="M57.86,245.12l6.03.12c-1.69-.08-3.88-.12-6.03-.12Z"/>
  <path class="cls-1" d="M502.82,198.91l-.1-1.38c-.02.53,0,1.02.1,1.38Z"/>
  <path class="cls-1" d="M81.78,245.12c1.08.3,2.22.47,3.4.58.25-.07.53-.12.7-.22l-4.1-.37Z"/>
  <path class="cls-1" d="M425.18,6.58s.01,0,.01,0c0,0,0,0-.01,0Z"/>
  <path class="cls-1" d="M385.46,8.58c5.75.02,2.7-1.08,3.92-1.72,6.86-.32,3.17.82,5.51,1.38,4.28-.29,7.57-1.31,10.76-1.27.24.18.86.25.13.48,4.53-.88,13.44-.04,18.71-1.15.39.1.59.19.69.28-.85-.56-.99-1.12-.81-1.52,2.58-.02,4.78-.7,5.75.02-1.58-.02-1.71.27-2.45.5l2.7-.31c2.43,1.04-3.68.36-3.68,1.13,5.26-.34,11.4-1.2,15.43-.91.84,1.02-9.43.34-4.05,1.25l-6.24-.39c4.77,1.61-3.79-.11.59,1.61,8.21.3,9.19-.52,17.38-.22,1.84-.57-.61-.84,1.24-1.4,11.64-1.02,9.16,2.56,17.72,1.2,2.22-.68,3.07-1.97,9.17-1.29l-2.08,1.15c7.95.11,4.54-1.66,12.87-.88-1.48.45-6.25.38-5.05.52,5.39.91,3.82-.65,7.96-.65l.86,1.02c1.86-.04,3.76-.1,5.7-.18l.73-.03.37-.02c.09,0,.09-.01.14-.02l.48-.07c.36-.05.73-.1,1.1-.14.07.38.14.8.2,1.29l.05.37.06.95c.04.64.07,1.29.11,1.94.14,2.59.27,5.22.35,7.84-.31-.52-.65-2.12-.93.08.64,11.82.16,25.24-.32,36.64l.93,4.35c0,1.01-.38,1.88-.56.79-.28,4.45.56.22.93,2.36.09,2.53-.47,3.34-.75,1.74.83,7.83,1.86,22.32,1,30.59l-.28-1.61c-.29,6.44,1.89,7.25,1.13,13.22l-.17-1.14c-.23,13.97.75,29.39-.46,40.06,1.29,2.02-.41,13.82,1.37,14.71-.79,7.98-1.13,5.7-1.59,16.93-.05,3,1.15,4.46,1.38,8.17l-.92.1,1.03,5.03-1.08,2.69.27,3.48c.06-1.39.39-2.95.66-2.74.46,5.43-.63,13.24-1.1,13.38l.78,12.85c-.37-.28-.5-2.44-.74-4.14.94,6.86-.97,1.25-.11,7.53.21-.84.55.45.74.6-.56,3.14-.56,10.27-.33,15.54l-.64-1.01c-.03,1.57-.04,3.16-.03,4.79v.31s.01.15.01.15l.03.33-.29.04-.16.02h-.09s.02.02-.28.02c-1.72.03-3.46.06-5.21.1-3.51.06-7.09.11-10.68.11,3.84.3,2.96,1.4-.18,1.51l-1.25-.98c-2.03.6,3.28.37-.88,1.11-4-.11-2.69-1.11-.39-1.43l-4.86.34c-.29-.29.85-.45,1.15-.82-1.99.61-8.39-.98-11.27.07l-.27-.29c-10.7,0-15.55.33-24.26.38-.17.84-3.58.66-6.17,1.34-6.4-.27-13.51-.93-21.23-.86-5.42.42-1.58.71-4.02,1.22-.4-.77-8.1-.7-4.11-1.25-9.26.13-11.83.15-23.54.78,1.27.31,2.7.45,1.96.71-2.12.13-4.84-.32-4.53-.69l.56-.08c-13.15,1.15-30.34-2.24-40.81-.64l.59-.08-10.86.83c-4.99-.13,3-.58-.7-1.05-11.71,1.28-18.5-.19-28.14.67-7.46-2.27-26.49.16-36.56-1.29l.58.53c-2.6.52-3.15-.31-5.07-.43.27.41,2.83.48,1.21.77-22.06.64-45.53-.78-68.14-1.26-8.27-.14-4.69,2.76-15.12,1.49l2.96-.99c-16.69,1.19-34.13-.04-50.47.97.97-.23,1-.53,2.6-.52-3.45-.72-12.76-.04-12.82.55-2.54-.07-.59-.53-2.16-.83-3.46-.42-8.69.92-10.53.2-.31-.12.97-.23,1.61-.29-2.26.35-10.51-.09-8.35.74-6.13-.4-11.73.37-16.62-.12-3.19.93-10.5-.45-11.51.87.44-1.36-10.75-1.09-14.63-.46,1.3-.41-3.37-.43-1.85-.99-4.43.02-8.48.27-7.71.97-8.15-1.62-16.39,1.31-20.98-.77-4.25.22-8.41.43-12.42.64-2.01.09-3.98.18-5.92.27l-.72.03c-.16,0-.15.01-.2.02l-.13.02-.55.06c-.4.04-.79.08-1.18.11-.04-.46-.08-.91-.11-1.35l-.03-.35c0-.14-.02-.16-.03-.51-.02-.55-.03-1.1-.05-1.64-.06-2.16-.12-4.26-.18-6.34.68.21.71,3.48.75,6.63,0,.39.01.79.02,1.17,0,.16,0,.32.01.48v.18c.04.23.07.43.12.57.11.29.3.27.65-.08-.07-.17-.15-.38-.23-.64-.02.04-.04-.41-.06-.69-.02-.31-.04-.62-.07-.92-.05-.61-.09-1.21-.14-1.8-.18-2.36-.36-4.57-.53-6.77-.32-4.41-.53-8.81-.36-14.37.19-2.88.59,1.64.82,2.61-.56-11.21.12-21.67-.61-31.64.13.03.26,1.1.37,2.12-.04-1.97.2-4.57-.42-4.35l.17,1.92c-.89,3.14-1.86-7.8-2.34-8.16,1.76,3.34.44-9.85,2.67-4.55-.12-1.29-.41-2.92-.82-2.62.12-1.92.36-2.53.83-.58-.33-7.04-.99-4.54-.98-10.92.3.02.41,1.31.76,1.97-.58-3.23-1.16-6.47-.91-11.86.18.32.41-.3.41,1.31-.09-9.26-1.55-15.78-.99-25.93,1.29,3,.43-3.45,1.55-3.99l-.33-5.46-.54,2.19c.02-4.78-.8-9.01-.43-13.12l.46,3.55-.21-8.96-.42,5.07c-.58-4.84-1.42.52-1.11-5.85.11,1.29.01-4.78.67-7.28v.02c-.35-2.37-.73-4.8-.45-8.34.36-.92,1.24.74,1.48.14-.94-2.33-.26-11.2-1.26-14.16.23.99.82,1.04.94.71l-.76-1.96c.24-2.22.36-2.54.83-2.18.14-6.67-1.42,2.12-.81-5.79.06.62.18.32.29,1.62.32-7.95-.48-15.35-.11-22.65,1.13-2.15.28,6.38,1.23,3.91-.2-10.53-1.35-21.8-1.09-31.98l-.12,1.9c-.78-.7-.6-2.55-.31-4.86.13-1.07.27-2.24.42-3.44.1-.87.12-1.67-.04-2.71l.13-.03c-.05,0-.1.02-.13.03.18.95.84,1.56.67,1.27.01-.18.02-.37.03-.56.47.02.93.03,1.38.02.5-.01,1-.03,1.51-.04,1.75-.05,3.57-.12,5.5-.22,3.85-.21,8.13-.45,13.15-.72l-1.31.41c4.11.36,10.83.19,15.27.37,1.32-.41,3.86-.35,2.31-.94,13.7,2.3,26.11-1.29,38.27.63-1.45,0-3.46.36-2.3.36l10.35-.39c-.82-.69-1.36-.42-3.54-.95,1.31-.41,4.23-.74,6.79-.74-4.65.47.05,1.11,2.06,1.5-.34-.21.35-.45.18-.66,5.42,1.22.9-1.4,8.28-.58l-.39.36c2.76-.19,5.3-.68,8.28-.58,1.24.8-2.94.38-3.12,1.04,4.18-.05,8.24-1.53,12.04-.74-1.77.23-4.33.23-6.11.46,4.13.93,4.61.69,7.67.84l-.3-.02,7.09.41-1.81-.25c5.22-2.1,10.66-.4,17.7-1.78-6.84,1.31-1.13.75-1.64,1.66,1.8.25,4.54.53,3.77.78,3.33-.74,5.57.57,10.26-.51.21.29,3.57.02,2.82.76,4.33-.24-1.03-.51-.67-.87,6.67-1.01,15.72,1.18,25.31-.2,8.28-.58,9.8-1.57,17.48-2.07,2.6.46-2.11,1.07-2.11,1.07,4.19.42,7.34.34,11.28,0-.8.26.03.47,1.24.8,3.16-.08,2.1-1.07,6.28-.64-.71.33-1.62.85-3.14,1.18,3.73-.28,7.4-.83,11.26-1.1,1.03.51-2.32.78-3.68,1.11,4.34-.24,11.24-.48,12.57-1.29l-2.79-.28c1.58-.04.83.69-.34.84-3.71.64-5.37-.27-5.59-.56l2.75-.19c-2.85-1.71-11.04.29-16.58.2l2.29-1.25-5.66,1.05c-1.21-.32-2.05-1.02.68-1.21-3.98-.61-3.51.45-6.93-.23-.38-.11-.21-.17.14-.22l-3.87.38c.76-.26-.66-.88,1.73-.7-6.97-.71-11.21.96-13.85.01l.58-.08c-9.65.44-.92.92-8.15,2.01l-4.9-2.25-.94.92c-1-.03-2.97-.1-2.61-.46-3.7.63.64.4-1.51.99-4.81-.83-13.22.41-14.32-1.04-1.71.7,4.59.53-.52,1.02-1.48-1.57-5.92.28-10.31-.43,1.34-.81,5.49-.39,1.1-1.11-2.63,1.37-8.53-.29-12.23-.02-.16,1.09-8.03.47-14.23.84.39-.37-11.67-.58-17.45-.96l.17-.18c-1.11,1.1-7.06.91-11.39,1.14.17-.66.94-.92,3.29-1.22h-4.07c-.96.37-2.23.56-4.87.69l1.02-.82c-5.42.05-10.91.99-17.89.45-.39.77,5.56,2.13-1.81,2.66-.28-.41-.55-1.12,1.38-1.3-.63.06-2.25.35-3.53.17l2.94-.7c-3.18-.3-1.66.59-4.2.53.05-.59-1.88-.42-1.52-.89.65-.06,2.22.24,3.19,0-2.86-.1-6.33-.45-7.47-.89.25.34,0,.8-2.09.88-5.42.05-1.86-.71-5.02-1.01-1.31.41-4.77,0-4.86.88-1.59,0-1.88-.41-2.5-.65-2.8.4-13.1.13-9.94,1.07l.72.06c-.13.01-.29.03-.46.04h.02s-.02,0-.02,0c-4.6.45-9.37.33-14.14.15-2.38-.08-4.77-.17-7.12-.25-1.18-.03-2.35-.05-3.51-.04-1.39,0-2.93.03-4.32.08l-.18-.3c-.64.03-1.3.06-2.01.09.08,3.03.17,6.27.25,9.29.09,2.53.22,4.87.51,6.64,0,1.61-.54,3.8-.89,3.11.22,4.16.56,4.63.07,10.65-.52-4.19-.46,1.44-.38-4.29-.26,5.41-.73,6.64.08,12.45-.76-1.98-.96,4.07-.73,6.65l.54-3.79c.11,2.89.04,5.42-.02,7.99l-1-1.39c-1.21,11.07,2.07,19.97.03,28.4.7,2.93.49-6.01,1.31-3.39-.13,5.09-1.57,10.4-1.57,11.99-.55,6.98,1.46,6.51,1.08,13.81.36-.93,1.31-1.82,1.64,3.64-.13,5.1-1.49,6.26-1.78,3.05-.03-1.22.08-1.81.2-1.76-.13-1.65-.28-3.81-.67-1.79l.36.66c-.36,2.53-.33,9.54-.91,7.89.34,3.85.58,1.65.77-1.21-.52,6.54-.02,10.21-.36,16.94.2-1.07.61-2.06.61-.99-.44,9.87.68,4.35.83,11.03-.54,3.8-1.3-1.36-.84,5.37-.37,4.11-.94.87-1.23-.76.69,6.13-.45,11.46-.58,14.96l-.29-3.23c.17,1.93.17,3.51.16,5.13l.71-1.84c-.12,1.9-.13,3.5-.42,3.47.47,1.95,1.18-1.5,1.82,2.38-.36,2.53.39,7.7-.56,8.57.32-7.95-.95.88-1.1-5.85.11,1.3.11,2.88-.02,4.78-.11.29-.2-.27-.25-.79-.84,7.61,1.07,3.5,1.05,11.39-.53-1-1.01,1.83-.9,3.12.01-3.18.89-1.52,1.3,1.4-.41,5.06.31,5.5.26,8.14l.19-3.02c.53,1.02.46,3.55.63,7.08-.41.3-.29-3.2-.47-1.94.94,3.91-.97,8.85-.34,14.3-.36,2.53-1,.24-1.24,2.47.69,6.12-.73,6.62-.16,13.05.72-1.85.54-2.18,1.24,2.35l-.5-10.57,1.04,6.78c.01-3.19-.45-6.73-.33-8.64.58,3.23.41,2.9,1,1.37-1.07,4.37.63,8.65-.1,13.7l-1.77-.15c-.32,3.06-.23,5.85-.04,8.73.1,1.44.21,2.91.32,4.45.11,2.44.2,4.94.24,7.58,1.27-.02,2.58-.03,3.94-.02.68,0,1.37.02,2.08.02.35,0,.71.01,1.08.02.29,0,.58.02.87.03l-.4-.04-.6-.04-1.21-.08-2.34-.15c.6-.18,1.43-.27,2.42-.32.5-.02,1.03-.03,1.6-.04.41,0,.85,0,1.3,0,1.75.03,3.74.11,5.34-.04-.3.59,1.7.81,3.06,1.18-.17-.44,7.21.04,8.1-1.14l4.4.78c7.95.32,9.08-1.69,16.72-1.49-2.3.64,1.17,1.06-3.95,1.52,2.55,0,4.85.11,4.89-.3,1.49.37,7.08-.8,9.43-.24,1.08-.26,1.43-.88,4.29-.83.31.12-.01.29-.01.29.01-.29,4.49-.4,1.98-1.05,7.86,1.85,21.98-.13,28.82,1.45,5.57-.2,12.28-.39,17.34-.43-.32.18-.02.3-.97.23,6.98.55,4.29-1.7,12.23-1.09,4.06.96-4.22.52-1.69.88,1.1,1.95,9.58-.27,14.92.87l-1.29.11c4.08.66,9.96-.74,16.64-.6,0,0-.32.17-.04.29,4.56-.99,13.2-1.32,19.62-1.6-2,.76-2.92.4-1.7,1.18,2.88-.11-.84-1.24,4.9-1.46,1.87.42,6.01.78,6.56,1.61l-5.42.04c2.77,1.07,7.01-.04,9.87.15l-.36.47c8.3-.15,8.42-1.33,17.34-1.25l-.92-.35c4.88-1.17,4.09.66,8.95-.21l1.47,1.18c3.22-.29,11.27-1.14,17.04-1.37-3.27.88-10.02,1.33-14.2,1.85,3.19,0,10.84-.09,12.5-.67-1.29.11-2.9.4-4.17.22,3.91-.93,9.06-1.39,15.42-1.37-1.13,2.3,16.57.58,21.18,2.36,11.24-.85,22.3.36,35.4.23-4.65-1.79,3.82-.05,3.02-1.88,3.05-.12,4.21-.09,4.49.03l9.25,1.1c2.19.53-2.9.4-2.62.82,6.68.14,2.8.78,7.22,1.26-.91-.66,2.32-.94,6.13-.69l-5.36-.85c9.33-.98,8.07,1.54,17.48.57l-2.98.58c4.83-.34,17.81.01,22.54-1.46.85.21,1.98.71-.14.85,11.54.22,25.69-1.57,34.65-.66l-.88.45c2.15-.13,3.75-.84,6.44-.39-.14.19-.87.45.13.47,1.14-.15,5.72-.79,8.57-.52l-2.44.5c11.26.59,17.27-1.23,26.71-1.54-.02,1.32,8.83,1.75,13.25,1.96l-.15.19c13.11.16,22.26-1.09,34.4-1.61,3.25.62,8.45.82,14.28.9,7.08.08,14.92.17,21.94.25.04-1.64.07-3.25.1-4.81.02-.8.04-1.58.07-2.35.02-.74.05-1.71.08-1.97-.06.37-.15.92-.26.93-.05.02-.11-.05-.17-.18-.06-.12-.12-.37-.18-.47-.24-.58-.47-1.65-.54-2.73.27-2.84-.92-7.86.3-7.41l-.02,1.01c1.19-2.14.87-7.99.9-12.55l-1.58-.75c1.15-5.97.94-13.78.7-20.92-.23-7.14-.64-13.59.38-16.85-.43-2.87-.46-6.44-.89-9.29l.85.15c.13-7.98.19-11.96-.12-21.81l.63,2.01c0-5.56-2.53-7-2.63-12.13l1.25-1.55c-.13-9.7.88-19.53-.38-29.1.19.16.56.44.63,2.01-.02-4.57.66-17.67-1.06-16,1.13-.12,0-10.01-.56-15.24l.84.81c-1.12-4.41-1.41-4.55-1.77-10.72.09-1.46.66-1.29.46.66.38-4.88-.83-3.79-.45-9.71l.56,2.2c0-5.02-.27-4.62-.93-7.37-.37-3.15.11-9.52.85-10.27-.47-.67-1.12-3.41-.93-6.37.28-.4.47.67.56,1.21.48-8.39-1.11-12.46-.35-18.24.28-.12.41-.5.49-.98.05,6.66.07,12.03,0,11.53.77,0,.85-5.39,1.96-1.12-.63-4.32-1.97-11.69-1.67-16.94.07-.26.14-.5.26-.7l.09.54c.06-1.21-.02-2.3-.16-3.32.11-1.68.19-2.74.18-4.35.12-.12.2-.4.26-.81.03-.2.05-.43.07-.69,0-.45.02-.94.03-1.45.02-2.12-.03-4.75-.07-7.13-1.69,0-3.28.01-4.52.02-.02.42-1.48.6-2.22.76-.77.16-.76.3,1.56.65-.61-.06.8-.1,3.54-.14.13,0,.27-.01.38-.01.02.52.04,1.02.09,1.31-.02-.06-.05-.14-.08-.22.04,2.32.09,5.35.15,8.79-.11-.53-.22-1.06-.31-1.62-.04-.28-.08-.56-.13-.84-.04-.3-.07-.8-.1-1.19-.1-1.69-.1-3.45.11-5.84-.01-.03-.03-.07-.04-.09-2.54.53-4.62,1.07-5.64,1.32-.25-.07-.54-.14-.84-.21-.16-.03-.31-.07-.48-.1-.13-.03-.27-.07-.41-.1-.55-.13-1.13-.26-1.73-.37-1.2-.24-2.46-.45-3.63-.65-2.35-.4-4.37-.74-4.86-1.1-8.2.47-19.31.31-24.46,1.9-2.33.2-2.68-.45-3.55-.7,1.35-.16,2.95-.13,3.67-.36-4.66.41-13.8.16-14.92,1.26-5.87-.5,3.3-1.02-4.77-.84l1.09-.34c-15.87-1.77-25.81,2.83-43.4.55,1.22.14,1.83.2,2.08.39-20.06-1-41.35.94-61.14-.65-5.63-.32-6.24.39-9.67.92l-1.22-.91-5.87,1.05c-8.33.77-14.42-2.22-24.96-.78l1.36.61c-3.79-.11-11.99.36-11.36-.34-.39.11-1.24.64-2.72.32l-.12-.47-9.3.81c-7.21-.34,1.13-1.88-9.39-1.97-3.91.18-11.14,1.38-9.67,1.7,1.58.02,4.03.3,4.15.77l-3.58.25c-.65,1.4-3.4,2.83,5.38,3.8l6.12-.85,1.97.68-5.15.04c2.92.64,4.77.07,6.85-.31.49.36,1.35.61,2.56.75l6.01-1.33c.73.55-2.69,1.08,1.34,1.39,2.81-.62-2.7-1.23,1.96-1.63,2.93.63,2.07,1.15,5.51.61.48.36-.24.59-1.61.75,3.06-.43,8.09-.18,9.67-.92,3.05.78,10.33-.2,10.02,1.12.96-.32,5.39-1.04,8.2-1.09-5.13,1.58,10.51.09,9.16,1.79,3.8-1.42,13.72-.63,20.45-1.42-.38.11-1.12.34-1.71.27,3.79.12,4.89.55,7.32.82.49-1.18,6.38-1.44,9.56-2.17,4.64,1.13-2.82,1.38-1.36,2.47-.23-.95,8.06-.95,6.49-1.74,3.55.7,3.06.34,4.89,1.32.62-1.47,3.3-.25,6.25-1.15,5.14.72,1.32,1.38,6.96.93,2.68.45-2.33.97-2.33.97ZM502.04,19.36s-.02,0-.02,0c-.03-1.16-.06-2.14-.08-2.77.02.58.05,1.38.1,2.77ZM502.18,30.63c.02-1.37,0-3.08-.02-4.89.29-.4.59.03.59,1.16-.2-.61-.34,2.05-.57,3.73ZM507.75,5.36c.08,1.52.08,2.64.04,3.25-.04.4-.13.62-.21.74-.04-1.27-.09-2.75-.15-4.7-.03-.07-.07-.23-.11-.3.16.2.32.45.43,1Z"/>
  <path class="cls-1" d="M506.23,1.29c-.41.02-.65.05-1.16.06l1.3.17v.14c.08.24.18.49.26.7l-.02-1.08h-.37Z"/>
  <path class="cls-1" d="M33.99,2.91l-.24-.02c.2.03.38.07.5.12-.16-.04-.16-.07-.26-.1Z"/>
  <polygon class="cls-1" points="502.29 186.35 502.51 186.33 502.31 185.35 502.29 186.35"/>
  <path class="cls-1" d="M96.12,5.7c.12.07.35.15.82.21-.04-.05-.39-.13-.82-.21Z"/>
  <path class="cls-1" d="M122.95,5.84l3.8.29c-1.64-.17-2.84-.25-3.8-.29Z"/>
  <path class="cls-1" d="M143.59,6.22c.26-.15.33-.26.4-.36-.02,0-.03,0-.04,0l-.36.37Z"/>
  <path class="cls-1" d="M7.7,193.1c0,.28.02.55.04.8.16,1.87.1.6-.04-.8Z"/>
  <path class="cls-1" d="M5.73,95.5c.15,1.04.3,2.06.4,3.14.06-1.74.08-3.09-.4-3.14Z"/>
  <path class="cls-1" d="M57.2,245.11s0,0-.01.01h.67-.66Z"/>
  <path class="cls-1" d="M6.11,103.17c.17-1.74.13-3.19.01-4.54-.06,1.42-.14,3.1-.01,4.54Z"/>
  <path class="cls-1" d="M233.02,6.45l.99.03c-.02-.06.04-.1.12-.14l-1.11.1Z"/>
  <path class="cls-1" d="M234.13,6.35l1.1-.1c-.51,0-.95,0-1.1.1Z"/>
  <path class="cls-1" d="M237.55,6.03l-2.32.22c.8,0,1.8.03,2.32-.22Z"/>
  <path class="cls-1" d="M205.7,6.11l-.31.31c.17-.06.28-.16.31-.31Z"/>
  <path class="cls-1" d="M197.4,6.21c1.98.07,4.98.64,7.74.45l.25-.24c-1.29.46-6.12-.72-7.99-.2Z"/>
  <path class="cls-1" d="M162.71,2.49l6.96.23c-1.22-.32-2.82-.76.34-.84-8.78-.96,1.82.73-7.29.61Z"/>
  <path class="cls-1" d="M141.15,2.05c3.73-.16-.05-.47.15-.66-2.37.3-2.94.38-.15.66Z"/>
  <path class="cls-1" d="M2.53,23.33l-.77-.38c.11,2.88.3.03.77.38Z"/>
  <polygon class="cls-1" points="6.5 53.12 6.98 50.32 6.27 48.98 6.5 53.12"/>
  <polygon class="cls-1" points="1.03 70.71 .92 69.46 1.2 74.26 1.03 70.71"/>
  <path class="cls-1" d="M87.52,252.52l-.87-.94c-1.95.17-2.36,1.23.87.94Z"/>
  <path class="cls-1" d="M200.5,251.56c1.23.47,4.41.78,6.37.31-2.54-.07-5.07-.43-6.37-.31Z"/>
  <polygon class="cls-1" points="509.99 216.28 510.3 218.55 510.04 214.27 509.99 216.28"/>
</svg>