<?xml version="1.0" encoding="UTF-8"?>
<svg id="Layer_1" data-name="Layer 1" xmlns="http://www.w3.org/2000/svg" viewBox="0 0 504.66 248.45">
  <defs>
    <style>
      .cls-1 {
        fill: #6e6e5b;
      }
    </style>
  </defs>
  <path class="cls-1" d="M255.24,1.93c.79-.03.36-.26-1.8-.37-.35.05-.77.1-1.06.16-.08.04-.28.07-.41.11l.41-.03,2.87.12Z"/>
  <path class="cls-1" d="M240.75,1.33c-2.54.16-5.47.45-3.81.75,2.51-.32,3.12-.19,5.83-.57,2.16-.04,3.78.1,3.41.22.76-.1,3.36-.04,4.52-.28-1.41-.09-3.01-.09-4.72-.06-1.71,0-3.53.05-5.39.16-.8-.07-.03-.16.16-.22Z"/>
  <path class="cls-1" d="M29.42,1.17l1.36.04c-.37-.02-.84-.03-1.36-.04Z"/>
  <path class="cls-1" d="M.84,104.69c0-1-.04-1.41-.07-1.46.02.93.04,1.69.07,1.46Z"/>
  <path class="cls-1" d="M.48,127.04c0-.48.02-.88.02-1.32-.03.5-.05,1.01-.02,1.32Z"/>
  <path class="cls-1" d="M29.42,1.17l-3.5-.1c-.24.11,1.79.08,3.5.1Z"/>
  <path class="cls-1" d="M211.62,2.17c.73-.02,1.34-.05,1.9-.09-.6.01-1.18.03-1.78.04-.03.02-.06.03-.11.05Z"/>
  <path class="cls-1" d="M87.14.81h1.06c.31-.04.61-.09.88-.14l-1.95.14Z"/>
  <path class="cls-1" d="M131.43.68c-1-.01-1.35.27-1.73.39.56-.12,1.3-.17,2.18-.2.02-.05-.12-.12-.45-.2Z"/>
  <path class="cls-1" d="M201.68,1.05l1.25-.04c-.32.01-.87.03-1.25.04Z"/>
  <path class="cls-1" d="M55.43.8c-.07-.04-.23-.08-.4-.1,0,.04.16.07.4.1Z"/>
  <path class="cls-1" d="M308.63,2.58s-.01-.03,0-.05c-.26.03-.34.05,0,.05Z"/>
  <path class="cls-1" d="M257.28,1.19l.71-.02c.08-.05.15-.11.15-.16l-.87.17Z"/>
  <path class="cls-1" d="M.12,167.96c0-.08,0-.11,0-.18-.03-1.08-.03-.47,0,.18Z"/>
  <path class="cls-1" d="M298.2,248c-4.25-.25,6.92-.32.52-.6.6.11-5.82.44-.52.6Z"/>
  <path class="cls-1" d="M210.47,2.14c-.6,0-1.21,0-1.82,0,.83,0,1.38,0,1.82,0Z"/>
  <path class="cls-1" d="M298.72,247.4h0s-.66-.03-.66-.03c.27.01.43.02.66.03Z"/>
  <path class="cls-1" d="M16.88,248.04c-.19-.05-.57-.09-.96-.12.03.03.25.06.96.12Z"/>
  <path class="cls-1" d="M.69,192l-.04,1.74c.03-.69.03-1.25.04-1.74Z"/>
  <path class="cls-1" d="M53.34,247.64c.94.02,1.27.06,2.56.02-.12-.01-.24-.02-.39-.03-.47.04-1.09.06-2.16.01Z"/>
  <path class="cls-1" d="M91.29,247.64c-.2-.02-.47-.04-.7-.06-.38,0-.82.01-1.2.02l1.9.04Z"/>
  <path class="cls-1" d="M423.97,2.45c-.83-.08-1.35-.17-1.75-.25.59.2-4.99.27,1.75.25Z"/>
  <path class="cls-1" d="M211.6,2.02c-.22.07-.54.11-1.13.12.44,0,.85-.01,1.26-.02.11-.04.13-.08-.14-.11Z"/>
  <path class="cls-1" d="M54.88,245.42l6.03.04c-1.69-.01-3.88-.03-6.03-.04Z"/>
  <path class="cls-1" d="M502.14,196.37l-.03-1.38c0,.53,0,1.02.03,1.38Z"/>
  <path class="cls-1" d="M78.81,245.42c1.08.1,2.22.16,3.4.19.25-.02.53-.04.7-.07l-4.1-.12Z"/>
  <path class="cls-1" d="M422.21,2.19s.01,0,.01,0c0,0,0,0-.01,0Z"/>
  <path class="cls-1" d="M382.49,2.86c5.75,0,2.7-.36,3.92-.57,6.86-.11,3.17.27,5.51.46,4.28-.1,7.57-.44,10.76-.42.24.06.86.08.13.16,4.53-.29,13.44-.01,18.71-.38.39.03.59.06.69.09-.85-.19-.99-.37-.81-.51,2.58,0,4.78-.23,5.75,0-1.58,0-1.71.09-2.45.17l2.7-.1c2.43.35-3.68.12-3.68.38,5.26-.11,11.4-.4,15.43-.3.84.34-9.43.11-4.05.42l-6.24-.13c4.77.54-3.79-.04.59.54,8.21.1,9.19-.17,17.38-.07,1.84-.19-.61-.28,1.24-.47,11.64-.34,9.16.85,17.72.4,2.22-.23,3.07-.66,9.17-.43l-2.08.38c7.95.04,4.54-.55,12.87-.29-1.48.15-6.25.13-5.05.17,5.39.3,3.82-.22,7.96-.22l.86.34c1.86-.02,3.76-.04,5.7-.06.97-.01,1.95-.03,2.94-.04.47,0,.95-.02,1.43-.02l.53-.02.02.32.02.53c.02.63.04,1.27.05,1.91.03,1.28.07,2.57.1,3.87.06,2.6.12,5.22.17,7.85-.11-.52-.23-2.12-.31.07.3,11.82.24,25.24.16,36.64l.34,4.35c0,1.01-.11,1.88-.18.78-.06,4.45.19.23.33,2.36.05,2.53-.13,3.34-.24,1.74.34,7.84.78,22.34.56,30.6l-.11-1.61c-.05,6.44.68,7.26.47,13.23l-.06-1.14c.03,13.97.47,29.4.14,40.05.45,2.02-.04,13.82.56,14.72-.2,7.98-.33,5.69-.41,16.92,0,3,.42,4.47.52,8.18l-.31.09.38,5.03-.34,2.68.11,3.48c.02-1.39.11-2.95.2-2.74.11,2.72.03,6.03-.05,8.68-.09,2.65-.22,4.64-.3,4.7l.26,12.85c-.12-.28-.17-2.44-.25-4.14.31,6.86-.32,1.25-.04,7.53.07-.84.18.45.25.6-.19,3.13-.19,10.27-.11,15.55l-.21-1.01c0,2.68,0,5.46,0,8.42-6.21.03-12.85.06-19.55.1,3.84.1,2.96.47-.18.5l-1.25-.33c-2.03.2,3.28.12-.88.37-4-.04-2.69-.37-.39-.48l-4.86.11c-.29-.1.85-.15,1.15-.27-1.99.2-8.39-.33-11.27.02l-.27-.1c-10.7.06-15.55.08-24.26.13-.17.28-3.58.22-6.17.45-6.4-.09-13.51-.31-21.23-.29-5.42.14-1.58.24-4.02.41-.4-.26-8.1-.23-4.11-.42-9.26.04-11.83.05-23.54.26,1.27.1,2.7.15,1.96.24-2.12.04-4.84-.11-4.53-.23l.56-.03c-13.15.38-30.34-.75-40.81-.21l.59-.03-10.86.28c-4.99-.04,3-.19-.7-.35-11.71.43-18.5-.06-28.14.22-7.46-.76-26.49.05-36.56-.43l.58.18c-2.6.17-3.15-.1-5.07-.14.27.14,2.83.16,1.21.26-22.06.21-45.53-.26-68.14-.42-8.27-.05-4.69.92-15.12.5l2.96-.33c-16.69.4-34.13-.01-50.47.32.97-.08,1-.18,2.6-.17-1.73-.12-4.92-.12-7.68-.07-1.38.03-2.66.07-3.6.11-.94.05-1.53.1-1.54.15-2.54-.02-.59-.18-2.16-.28-3.46-.14-8.69.31-10.53.07-.31-.04.97-.08,1.61-.1-2.26.12-10.51-.03-8.35.25-6.13-.13-11.73.12-16.62-.04-3.19.31-10.5-.15-11.51.29.44-.45-10.75-.36-14.63-.15,1.3-.14-3.37-.14-1.85-.33-4.43,0-8.48.09-7.71.32-8.15-.54-16.39.44-20.98-.26-8.17.13-15.94.26-23.07.38-.05-4.36-.09-8.27-.13-12.13.23.21.24,3.48.25,6.63,0,1.58.01,3.12.05,4.24,0,.14.01.27.01.4,0,.06,0,.12,0,.18,0,.05,0,.04,0,.06.01.06.03.11.05.14.04.06.08.05.14,0-.13-5.26-.24-9.4-.34-13.53-.11-4.41-.18-8.81-.12-14.37.06-2.88.2,1.64.27,2.61-.19-11.21.04-21.67-.2-31.64.04.03.09,1.1.12,2.12-.01-1.97.07-4.57-.14-4.35l.06,1.92c-.3,3.14-.62-7.8-.78-8.16.59,3.34.15-9.85.89-4.55-.04-1.29-.14-2.92-.27-2.62.04-1.92.12-2.53.28-.58-.11-7.04-.33-4.54-.33-10.92.1.02.14,1.31.25,1.97-.19-3.23-.39-6.47-.3-11.86.06.32.14-.3.14,1.31-.03-9.26-.52-15.78-.33-25.93.43,3,.14-3.45.52-3.99l-.11-5.46-.18,2.19c0-4.78-.27-9.01-.14-13.12l.15,3.55-.07-8.96-.14,5.07c-.19-4.84-.47.52-.37-5.85.04,1.29,0-4.78.22-7.28v.02c-.12-2.37-.24-4.8-.15-8.34.12-.92.41.74.49.14-.31-2.33-.09-11.2-.42-14.16.08.99.27,1.04.31.71l-.25-1.96c.08-2.22.12-2.54.28-2.18.05-6.67-.47,2.12-.27-5.79.02.62.06.32.1,1.62.11-7.95-.16-15.35-.04-22.65.38-2.15.09,6.38.41,3.91-.07-10.53-.45-21.8-.36-31.98l-.04,1.9c-.26-.7-.2-2.55-.1-4.86.04-1.16.09-2.43.14-3.73,0-.65.02-1.31.03-1.97v-.77c-.02-.23-.03-.45-.04-.68h.15c-.06,0-.11,0-.15,0,.06.83.28,1,.22.82,0-.19,0-.38.01-.58,1.42,0,2.87,0,4.37-.01,1.75-.03,3.57-.05,5.5-.08,3.85-.07,8.13-.16,13.15-.26l-1.31.14c4.11.11,10.83.05,15.27.11,1.32-.14,3.86-.12,2.31-.32,13.7.75,26.12-.46,38.27.16-1.45,0-3.46.13-2.31.12l10.35-.14c-.82-.23-1.36-.14-3.53-.31,1.31-.14,4.23-.25,6.79-.25-4.65.16.04.37,2.05.5-.34-.07.35-.15.18-.22,5.41.4.9-.47,8.28-.2l-.39.12c2.76-.07,5.3-.23,8.28-.2,1.24.27-2.94.13-3.13.35,4.18-.02,8.25-.52,12.04-.26-1.78.05-4.33.11-6.11.16,4.13.31,4.6.23,7.67.27h-.3s7.08.12,7.08.12l-1.8-.08c5.23-.71,10.66-.15,17.71-.61-6.85.44-1.13.25-1.65.56,1.8.08,4.54.17,3.76.26,3.33-.25,5.57.18,10.27-.18.21.1,3.57,0,2.82.25,4.33-.08-1.03-.17-.66-.29,6.68-.34,15.71.38,25.31-.1,8.28-.2,9.81-.53,17.5-.71,2.6.15-2.12.36-2.12.36,4.19.14,7.34.1,11.28-.01-.8.09.03.16,1.23.26,3.17-.03,2.11-.36,6.29-.22-.71.11-1.63.29-3.16.4,3.73-.13,7.41-.25,11.27-.38,1.03.17-2.33.26-3.69.38,4.34-.08,11.25-.17,12.58-.44l-2.79-.09c1.58-.02.82.23-.35.28-3.72.22-5.37-.08-5.58-.18l2.75-.07c-2.83-.57-11.05.11-16.58.09l2.3-.42-5.67.35c-1.21-.11-2.04-.34.69-.4-3.97-.2-3.51.15-6.93-.07-.38-.04-.21-.06.14-.07l-3.88.13c.76-.09-.65-.29,1.73-.24-6.96-.23-11.22.33-13.85.02l.58-.03c-9.66.16-.93.31-8.17.68l-4.89-.74-.95.31c-1,0-2.97-.03-2.61-.15-3.71.22.63.13-1.52.33-4.8-.27-13.22.15-14.31-.33-1.72.23,4.59.17-.53.34-1.47-.52-5.92.1-10.3-.13,1.34-.27,5.49-.14,1.11-.37-2.64.46-8.53-.09-12.23,0-.17.36-8.03.17-14.23.3.39-.12-11.67-.18-17.44-.3l.17-.06c-1.11.37-7.07.31-11.4.39.17-.22.95-.31,3.29-.41h-4.07c-.96.13-2.23.19-4.87.24l1.02-.28c-5.42.02-10.92.34-17.89.17-.39.26,5.55.7-1.82.89-.27-.14-.55-.37,1.38-.43-.63.02-2.25.12-3.53.06l2.95-.24c-3.18-.1-1.66.2-4.2.18.05-.2-1.88-.14-1.52-.29.65-.02,2.22.08,3.19,0-2.86-.03-6.33-.14-7.47-.29.25.11,0,.27-2.1.3-5.42.02-1.86-.23-5.02-.33-1.31.14-4.77,0-4.86.3-1.59,0-1.88-.14-2.49-.21-2.81.13-13.11.06-9.94.37l.72.02c-.13,0-.29,0-.46.01h.02s-.02,0-.02,0c-9.2.31-19.09-.13-28.24,0l.02-.1c-.66,0-1.33.02-2.06.03.03,2.7.06,5.6.08,8.3.03,2.53.07,4.87.17,6.64,0,1.61-.18,3.8-.3,3.11.07,4.16.19,4.63.02,10.65-.17-4.19-.15,1.44-.13-4.29-.09,5.41-.24,6.64.03,12.45-.25-1.98-.32,4.07-.24,6.65l.18-3.79c.04,2.89.01,5.42,0,7.99l-.33-1.39c-.4,11.07.69,19.97.01,28.4.23,2.93.16-6.01.44-3.39-.04,5.09-.52,10.4-.52,11.99-.18,6.98.49,6.51.36,13.81.12-.93.44-1.82.55,3.64-.04,5.1-.5,6.26-.59,3.05,0-1.22.03-1.81.07-1.76-.04-1.65-.09-3.81-.22-1.79l.12.66c-.12,2.53-.11,9.54-.3,7.89.11,3.85.19,1.65.26-1.21-.17,6.54,0,10.21-.12,16.94.07-1.07.2-2.06.2-.99-.15,9.87.23,4.35.28,11.03-.18,3.8-.43-1.36-.28,5.37-.12,4.11-.31.87-.41-.76.23,6.13-.15,11.46-.19,14.96l-.1-3.23c.06,1.93.06,3.51.05,5.13l.24-1.84c-.04,1.9-.04,3.5-.14,3.47.16,1.95.39-1.5.61,2.38-.12,2.53.13,7.7-.19,8.57.11-7.95-.32.88-.37-5.85.04,1.3.04,2.88,0,4.78-.04.29-.07-.27-.08-.79-.28,7.61.36,3.5.35,11.39-.18-1-.34,1.83-.3,3.12,0-3.18.3-1.52.43,1.4-.14,5.06.1,5.5.09,8.14l.06-3.02c.18,1.02.15,3.55.21,7.08-.14.3-.1-3.2-.16-1.94.31,3.91-.32,8.85-.11,14.3-.12,2.53-.33.24-.41,2.47.23,6.12-.24,6.62-.05,13.05.24-1.85.18-2.18.41,2.35l-.17-10.57.35,6.78c0-3.19-.15-6.73-.11-8.64.19,3.23.14,2.9.33,1.37-.36,4.37.21,8.65-.03,13.7l-.59-.15c-.11,3.06-.08,5.85-.01,8.73.03,1.44.07,2.91.11,4.45.02.77.03,1.56.05,2.37.01,1.1.02,2.24.03,3.41,2.94-.01,4.15-.01,6.16.02l-3.17-.1c1.32-.23,6.08-.03,9.27-.13-.3.2,1.7.27,3.06.39-.17-.15,7.21.01,8.1-.38l4.4.26c7.95.11,9.08-.56,16.72-.5-2.3.21,1.17.35-3.95.51,2.55,0,4.85.04,4.89-.1,1.49.12,7.08-.27,9.43-.08,1.08-.09,1.43-.29,4.29-.28.31.04-.01.1-.01.1.01-.1,4.49-.13,1.98-.35,7.86.62,21.98-.04,28.82.48,5.57-.05,12.28-.1,17.34-.14-.32.06-.02.1-.97.08,6.98.18,4.29-.57,12.23-.36,4.06.32-4.22.17-1.69.29,1.1.65,9.58-.09,14.92.29l-1.29.04c4.08.22,9.96-.25,16.64-.2,0,0-.32.06-.04.1,4.56-.33,13.2-.44,19.62-.53-2,.25-2.92.13-1.7.39,2.88-.04-.84-.41,4.9-.49,1.87.14,6.01.26,6.56.54h-5.42c2.77.37,7.01,0,9.87.06l-.36.16c8.3-.05,8.42-.44,17.34-.42l-.92-.12c4.88-.39,4.09.22,8.95-.07l1.47.39c3.22-.1,11.27-.38,17.04-.46-3.27.29-10.02.44-14.2.62,3.19,0,10.84-.03,12.5-.22-1.29.04-2.9.13-4.17.07,3.91-.31,9.06-.46,15.42-.46-1.13.77,16.57.19,21.18.79,11.24-.28,22.3.12,35.4.08-4.65-.6,3.82-.02,3.02-.63,3.05-.04,4.21-.03,4.49.01l9.25.37c2.19.18-2.9.13-2.62.27,6.68.05,2.8.26,7.22.42-.91-.22,2.32-.31,6.13-.23l-5.36-.28c9.33-.33,8.07.51,17.48.19l-2.98.19c4.83-.11,17.81,0,22.54-.49.85.07,1.98.24-.14.28,11.54.07,25.69-.52,34.65-.22l-.88.15c2.15-.04,3.75-.28,6.44-.13-.14.06-.87.15.13.16,1.14-.05,5.72-.26,8.57-.17l-2.44.17c11.26.2,17.27-.41,26.71-.51-.02.44,8.83.58,13.25.65l-.15.06c13.11.05,22.26-.36,34.4-.54,3.25.21,8.45.27,14.28.3,6.25.03,13.17.06,19.36.08.01-1.36.02-2.7.03-3.99.02-.88.03-1.73.05-2.56-.08,1.85-.34-.3-.39-2.45.09-2.84-.31-7.86.1-7.41v1.01c.39-2.14.28-7.98.29-12.54l-.53-.75c.38-5.96.31-13.78.23-20.91-.07-7.14-.3-13.59.03-16.85-.16-2.88-.2-6.44-.37-9.29l.28.15c-.02-7.98-.02-11.96-.2-21.81l.22,2.01c-.04-5.56-.89-7.01-.97-12.14l.41-1.55c-.11-9.7.15-19.52-.34-29.1.06.16.19.44.22,2.01-.04-4.57.09-17.66-.47-16,.38-.12-.07-10.01-.3-15.24l.29.81c-.4-4.42-.5-4.56-.67-10.73.02-1.46.21-1.28.16.66.09-4.88-.31-3.8-.22-9.71l.2,2.2c-.03-5.02-.13-4.62-.36-7.38-.15-3.15-.04-9.52.21-10.26-.16-.67-.4-3.42-.36-6.38.09-.4.16.68.2,1.22.1-8.39-.46-12.47-.25-18.24.09-.12.13-.5.16-.98.07,6.66.11,12.03.09,11.53.26,0,.24-5.39.64-1.11-.24-4.32-.74-11.7-.68-16.95.02-.25.04-.5.08-.69l.03.54c.01-1.21-.02-2.3-.08-3.32.02-1.67.04-2.74.03-4.35.08-.23.1-1.14.1-2.32-.02-1.56-.04-3.48-.06-5.25-1.42,0-2.74,0-3.78,0,.22.28-3.29.24,0,.47-.21-.01-.09-.02.32-.03.55,0,1.47-.01,2.68-.02.13,0,.27,0,.37,0,.02.53.03,1.04.04,1.36,0-.08-.02-.17-.03-.27.03,1.88.06,4.34.1,7.13-.08-1.06-.16-2.14-.2-3.33-.04-1.25-.04-2.2,0-4.67,0-.04-.01-.08-.01-.11-.51.04-1.03.09-1.54.13-.24.02-.47.04-.7.06-.17.02-.35.04-.51.06-.64.07-1.22.14-1.63.19-3.67-.39-10.75-.6-11.74-.85-8.2.16-19.31.1-24.46.63-2.33.07-2.68-.15-3.55-.23,1.35-.05,2.95-.04,3.67-.12-4.66.14-13.8.05-14.92.42-5.87-.17,3.3-.34-4.77-.28l1.09-.11c-15.87-.59-25.81.94-43.4.18,1.22.05,1.83.07,2.08.13-20.06-.33-41.35.31-61.14-.22-5.63-.11-6.24.13-9.67.31l-1.22-.3-5.87.35c-8.33.26-14.42-.74-24.96-.26l1.36.2c-3.79-.04-11.99.12-11.36-.11-.39.04-1.24.21-2.72.11l-.12-.16-9.3.27c-7.21-.11,1.13-.63-9.39-.66-3.91.06-11.14.46-9.67.57,1.58,0,4.03.1,4.15.26l-3.58.08c-.65.47-3.4.94,5.38,1.27l6.12-.28,1.97.23h-5.15c2.92.23,4.77.04,6.85-.09.49.12,1.35.2,2.56.25l6.01-.44c.73.18-2.69.36,1.34.46,2.81-.21-2.7-.41,1.96-.54,2.93.21,2.07.38,5.51.2.48.12-.24.2-1.61.25,3.06-.14,8.09-.06,9.67-.31,3.05.26,10.33-.07,10.02.37.96-.11,5.39-.35,8.2-.36-5.13.53,10.51.03,9.16.6,3.8-.47,13.72-.21,20.45-.47-.38.04-1.12.11-1.71.09,3.79.04,4.89.18,7.32.27.49-.39,6.38-.48,9.56-.72,4.64.38-2.82.46-1.36.82-.23-.32,8.06-.32,6.49-.58,3.55.23,3.06.11,4.89.44.62-.49,3.3-.08,6.25-.38,5.14.24,1.32.46,6.96.31,2.68.15-2.33.32-2.33.32ZM500.57,16.81h0c-.02-1.16-.04-2.14-.05-2.77.01.58.03,1.38.05,2.77ZM500.7,28.09c-.01-1.37-.03-3.08-.04-4.89.09-.4.2.03.2,1.16-.07-.62-.1,2.04-.16,3.73ZM502.38,4.22c.06,1.78.01,2.38-.04,2.63-.02-.84-.04-1.83-.07-3.12,0-.05-.03-.16-.04-.21.06.17.11.36.15.7Z"/>
  <path class="cls-1" d="M501.6.43c-.39,0-.61.01-1.12.02l1.41.06v.13c.03.3.06.61.09.88l-.02-1.09h-.37Z"/>
  <path class="cls-1" d="M31.02,1.22h-.24c.2,0,.38.02.5.03-.16-.01-.16-.02-.26-.03Z"/>
  <polygon class="cls-1" points="501.88 183.81 501.95 183.79 501.88 182.81 501.88 183.81"/>
  <path class="cls-1" d="M93.14,2.07c.12.02.35.05.82.07-.04-.02-.39-.04-.82-.07Z"/>
  <path class="cls-1" d="M119.97,2.09l3.8.09c-1.64-.04-2.84-.07-3.8-.09Z"/>
  <path class="cls-1" d="M140.6,2.2c.26-.05.33-.09.4-.12-.02,0-.03,0-.04,0l-.36.12Z"/>
  <path class="cls-1" d="M2.57,190.58c0,.28,0,.55.01.8.05,1.87.03.6-.01-.8Z"/>
  <path class="cls-1" d="M1.91,92.97c.04,1.04.09,2.06.13,3.14.02-1.74.03-3.09-.13-3.14Z"/>
  <path class="cls-1" d="M54.22,245.42s0,0-.01,0h.67-.66Z"/>
  <path class="cls-1" d="M2.04,100.65c.06-1.74.04-3.19,0-4.54-.02,1.42-.05,3.1,0,4.54Z"/>
  <path class="cls-1" d="M230.02,2.17h.99s.04-.02.12-.04l-1.11.04Z"/>
  <path class="cls-1" d="M231.13,2.13l1.1-.04c-.51,0-.95,0-1.1.04Z"/>
  <path class="cls-1" d="M234.55,2.02l-2.32.07c.8,0,1.8,0,2.32-.07Z"/>
  <path class="cls-1" d="M202.7,2.09l-.31.1c.17-.02.28-.05.31-.1Z"/>
  <path class="cls-1" d="M194.41,2.13c1.98.02,4.97.21,7.73.14l.26-.08c-1.3.15-6.11-.23-7.99-.06Z"/>
  <path class="cls-1" d="M159.75.93l6.95.07c-1.22-.11-2.82-.25.35-.28-8.77-.31,1.81.24-7.3.21Z"/>
  <path class="cls-1" d="M138.19.81c3.74-.06-.05-.16.15-.22-2.37.1-2.94.13-.15.22Z"/>
  <path class="cls-1" d="M.84,20.8l-.26-.38c.04,2.88.1.03.26.38Z"/>
  <polygon class="cls-1" points="2.17 50.59 2.33 47.79 2.09 46.45 2.17 50.59"/>
  <polygon class="cls-1" points=".34 68.19 .31 66.93 .4 71.73 .34 68.19"/>
  <path class="cls-1" d="M84.54,247.89l-.87-.31c-1.95.06-2.36.41.87.31Z"/>
  <path class="cls-1" d="M197.52,247.57c1.23.16,4.41.26,6.37.1-2.54-.02-5.07-.14-6.37-.1Z"/>
  <polygon class="cls-1" points="504.53 213.76 504.63 216.03 504.54 211.75 504.53 213.76"/>
</svg>