<?xml version="1.0" encoding="UTF-8"?>
<svg id="Layer_1" data-name="Layer 1" xmlns="http://www.w3.org/2000/svg" viewBox="0 0 328.62 203.75">
  <defs>
    <style>
      .cls-1 {
        fill: #252525;
      }
    </style>
  </defs>
  <g>
    <path class="cls-1" d="M13.02,18.29c45.3-5.43,82.3-5.75,108-5,45.07,1.31,54.82,5.91,100,6,44.79.09,55.36-4.39,100-6"/>
    <path class="cls-1" d="M5.52,31.28c42.39-5.02,85.29-6.76,127.92-4.11,17.16,1.07,34.23,3.28,51.39,4.29,21.63,1.28,43.43,1.2,65.04-.38s42.35-4.01,63.65-4.81c1.07-.04,2.8-2.84,3.12-3.27,2.07-2.85,3.93-5.92,5.68-8.97s3.49-6.18,4.92-9.41c.17-.38,1.76-4.35,1.28-4.34-19.18.72-38.2,2.67-57.31,4.3-21.33,1.82-42.79,2.15-64.18,1.25-17.15-.73-34.17-2.86-51.28-4.15C136.46.24,117.08-.2,97.73.08c-25.81.38-51.58,2.19-77.21,5.22-1.13.13-2.71,2.71-3.12,3.27-2.07,2.85-3.93,5.92-5.68,8.97s-3.49,6.18-4.92,9.41c-.17.38-1.7,4.39-1.28,4.34h0Z"/>
  </g>
  <g>
    <path class="cls-1" d="M8.52,102.79c49.89,7.98,89.48,6.26,117,3,26.16-3.1,34.59-6.77,65-9,13.17-.97,46.9,2.14,114.5,5.5"/>
    <path class="cls-1" d="M1.02,115.78c44.32,6.99,89.58,7.89,133.91.6,17.23-2.83,34.54-6.45,52.06-6.76,11.68-.21,23.42.74,35.07,1.42,25.15,1.47,50.29,2.99,75.45,4.24,2.78.14,7.63-10.21,8.8-12.24.57-.99,6.63-13.72,6.2-13.74-23.22-1.16-46.43-2.52-69.64-3.9-12.63-.75-25.3-1.71-37.95-1.78-16.15-.08-32.31,2.83-48.16,5.61-19.05,3.34-38.23,5.48-57.56,6.09-27.84.88-55.68-1.18-83.18-5.52-2.49-.39-7.77,10.45-8.8,12.24-.54.94-6.95,13.62-6.2,13.74h0Z"/>
  </g>
  <g>
    <path class="cls-1" d="M7.52,189.79c21.57,1.17,54.61,2.01,95-1,40.61-3.02,46.99-6.83,81-8,21.21-.73,23.7.58,105,6"/>
    <path class="cls-1" d="M.02,202.78c47.64,2.55,94.92-.12,142.18-6.25,23.14-3,45.87-3.34,69.06-1.69,23.25,1.66,46.5,3.38,69.76,4.94,2.74.18,7.65-10.25,8.8-12.24.57-.98,6.69-13.71,6.2-13.74-21.66-1.45-43.32-3.01-64.97-4.59-9.23-.67-18.48-1.43-27.74-1.57-35.81-.53-71.21,7.05-106.9,9.05-27.11,1.52-54.28,1.56-81.39.11-2.77-.15-7.63,10.22-8.8,12.24-.57.99-6.65,13.72-6.2,13.74H.02Z"/>
  </g>
</svg>