<?xml version="1.0" encoding="UTF-8"?>
<svg id="Layer_1" data-name="Layer 1" xmlns="http://www.w3.org/2000/svg" viewBox="0 0 314.2 218.35">
  <defs>
    <style>
      .cls-1 {
        opacity: .8;
      }

      .cls-2 {
        fill: #414141;
      }
    </style>
  </defs>
  <g class="cls-1">
    <path class="cls-2" d="M314.2,31.11c-4.39-2.54-13.95-3.71-24.03-4.09-10.07-.41-20.74-.07-27.33-.64-5.03-.05-8.9-.24-11.8-.66-2.45-.36,3.17-.07,11.8.66,3.83.04,8.33-.03,13.59-.08-6.72-1.72-13.25-3.39-17.91-4.88-3.31.16-6.66.26-10.06.28-14.95.17-29.41.21-44.14-1.46-5.33-.62-16.95-1.23-22-2.77,10.7,1.01,21.47,1.58,32.29,1.86,10.82.3,21.61.3,32.39-.12-.59-.08-1.18-.18-1.77-.3-11.36-.11-22.7-.73-34.03-1.63-1.92-.05-3.87-.18-5.86-.49l5.86.49c5.03.11,9.93-.47,15.38-.7,3.37.09,7.25.83,10.63.82,2.76.08,5.34.97,8.01,1.5,1.7.03,3.4.03,5.1.03.49-.14,1.01-.26,1.55-.33-.02-.01-.06-.04-.07-.06-2.3-2.13-14.09-4.03-26.06-5.96-12.01-1.85-24.26-3.53-27.73-3.2-5.53.39-10.77,3.94-17.02,3.94-2.09,0-3.76-1.16-5.42-.41-.2.57-1.04.94-1.88,1.3-4.19-.06-8.16-2.63-11.57-1.21-2.32.5-7.81-9.49-8.49-7.79-2.4,6.19-.64,1.68-6.07.62-.66-.19-3.03,2.23-4.33,1.83-4.37-1.91-5.87.13-11.05.56-7.72,1.61-9.23-2.5-16.16,1.31-.42.2-3.29.87-6.04,1.51-2.75.64-5.39,1.25-5.39,1.25-8.24-.7-13.29,2.52-19.76-1.91-7.34,3.99-17.3-.36-25.2.74-7.86,1.13-11.32-1.88-18.47-4.13-2.02-.29-3.49.1-4.71-.67-1.23-.77-3.84,1.91-5.86,1.64l.35-1.77c-.68-.09-2.03-.26-2.7-.35-.68-.09-.56-.68-.45-1.27.23-1.19.46-2.37-.78-3.13-2.87-.71-5.8-1.24-8.78-1.46-2.8,1.17-5.54,2.41-8.21,3.84-.07.81-.17,1.62-.49,2.31-.78.53-1.56,1.05-2.33,1.58-.3,1.78.09,3.64-.11,4.83.56,4.89-2.28,10.02-.93,14.39.48,1.26,5.2,1.15,7.54,3.22.56.66-.39,2.37-.67,4.16,2.71-.31,3.07,1.54,2.13,3.25.65.07,1.3.15,1.3.15-.1.59-.38,2.37-.38,2.37,7.07,1.44,14.98,4.87,21.42,2.2,1.4-.41,3.66-1.89,5.19-2.87.76-.49,2.57.4,3.22.5,1-1.67.72-3.54,1.08-5.3,5.07,1.4,15.84,3.88,15.25-2.3,4,.13,4.69-2.82,8.86-3.23,5.51-.68,12.53-1.18,19.46-1.44,3.79-.43,7.44-.31,11.11-.26,1.37-.02,2.71-.02,3.98,0,13.78-.03,25.65,1.59,37.36,3.1,5.87.74,11.73,1.47,17.94,1.84,6.2.38,12.75.41,19.75-.31,7.06-.71,14.14-1.23,21.15-1.61,7.02-.35,13.98-.57,20.84-.62,6.86-.08,13.62-.06,20.18-.01,6.56.04,12.92.07,18.91.17,12.01.15,22.47.75,30.8,1.58,8.33.82,14.53,1.7,17.85,1.92l3.78-2.34Z"/>
  </g>
  <g class="cls-1">
    <path class="cls-2" d="M297.11,120.1c-8.19-5.83-36.83-8.07-49.16-11.17-4.78-.79-8.41-1.53-11.12-2.32-2.28-.67,3.03.3,11.12,2.32,3.63.6,7.93,1.24,12.98,1.96-6.19-2.69-12.13-5.35-16.37-7.51-3.19-.32-6.4-.69-9.68-1.1-7.2-.86-14.29-1.54-21.36-2.26-7.09-.7-14.13-1.49-21.4-2.34-1.33-.16-3.03-.31-4.99-.38-1.91-.1-4.26-.06-6.27-.02-4.16.07-8.32.13-10.93-.15,2.67-.23,5.33-.38,8-.55l3.99-.21c.65-.04,1.35-.06,2.08-.08.71-.01,1.44-.05,2.13-.04,5.55.03,10.83.38,16.14.75,10.56.78,21.04,1.71,31.52,2.62-.56-.15-1.12-.32-1.67-.51-11-1.47-21.95-3.01-33.12-4.27-1.89-.12-3.85-.27-5.84-.61,1.95.2,3.92.38,5.84.61,4.99.26,9.8-.03,15.18.14,3.3.33,7.03,1.42,10.32,1.75,2.69.36,5.1,1.52,7.62,2.38l4.92.67c.49-.07,1.01-.13,1.54-.13-.02-.02-.05-.04-.06-.07-1.91-2.43-13.14-5.91-24.87-8.66-5.87-1.37-11.89-2.54-17.02-3.27-1.29-.17-2.51-.33-3.66-.45-1.17-.11-2.26-.2-3.24-.26-.97-.06-1.93-.06-2.69-.06-.79.02-1.39.03-1.95.12-.85.11-1.68.28-2.5.48-.44.1-.74.22-1.09.34l-1.01.39c-1.35.55-2.68,1.19-4.02,1.84-2.7,1.32-5.45,2.63-8.57,3.2-2.08.38-3.98-.4-5.49.66-.08.59-.83,1.14-1.58,1.68-4.11.85-8.62-.63-11.49,1.62-2.1,1.08-9.8-7.11-9.94-5.32-.56,6.56-.19,1.81-5.27,2.08-.63-.03-2.16,2.86-3.41,2.77-4.3-.94-5.16,1.38-9.76,2.73-3.36,1.45-5.56,1.19-7.62,1.16-2.06-.01-3.99.15-6.94,2.48-.36.25-2.94,1.23-5.44,2.14-2.52.86-4.94,1.69-4.94,1.69-3.88-.07-6.98.76-9.91,1.01-2.92.28-5.66.02-8.71-2.18-1.72,1.02-3.61,1.46-5.57,1.59-1.97.13-4.02-.05-6.07-.39-4.12-.62-8.25-1.75-11.96-1.52-3.72.18-6.32-.58-8.75-1.77-2.43-1.23-4.7-2.87-7.79-4.49-1.79-.6-3.18-.43-4.16-1.39-.98-.97-3.8,1.27-5.58.62l.63-1.68c-.59-.21-1.77-.63-2.36-.84-.59-.22-.37-.77-.16-1.33.43-1.12.85-2.24-.1-3.22-1.2-.63-2.41-1.2-3.64-1.72-1.23-.54-2.48-1.03-3.74-1.47-2.68.53-5.36,1.18-8.03,1.87-.26.77-.55,1.53-1,2.12-.82.32-1.63.63-2.45.95-.71,1.65-.85,3.54-1.33,4.64-.73,4.86-4.73,9.1-4.66,13.65.11,1.34,4.59,2.44,6.31,5.05.37.78-.96,2.19-1.69,3.84,2.71.41,2.61,2.29,1.26,3.7.62.24,1.24.48,1.24.48-.24.55-.97,2.2-.97,2.2,3.32,1.57,6.82,3.6,10.39,5.12,3.58,1.43,7.23,2.4,10.78,1.62,1.51-.15,4.09-1.23,5.79-1.95.85-.35,2.57.8,3.22.99,1.27-1.51,1.24-3.4,1.86-5.09,4.87,2.16,15.75,5.7,15.65-.57,4.05.42,4.94-2.4,9.14-2.64,5.55-.33,12.58-.75,19.52-1.17,3.78-.53,7.42-.56,11.1-.77,1.37-.11,2.7-.21,3.96-.31,6.86-.58,13.27-.98,19.47-1.39,6.19-.4,12.19-.83,18.11-1.51,5.93-.68,11.68-1.61,17.39-2.79,5.72-1.19,11.46-2.61,17.68-4.47,3.13-.95,6.33-1.75,9.56-2.43,1.6-.33,3.31-.68,4.73-.9.73-.13,1.51-.22,2.3-.3.79-.08,1.56-.18,2.38-.23,6.45-.47,13.12-.35,19.62,0,13.03.72,25.61,2.46,36.93,4.41,22.63,3.92,40.28,8.77,46.78,9.79l3.92-1.99Z"/>
  </g>
  <g class="cls-1">
    <path class="cls-2" d="M280.4,204.59c-7.62-5.95-34.68-8.51-46.3-11.72-4.5-.84-7.93-1.61-10.48-2.43-2.15-.69,2.87.33,10.48,2.43,3.43.63,7.48,1.32,12.25,2.09-5.81-2.75-11.39-5.48-15.36-7.67-3.01-.35-6.05-.75-9.14-1.19-6.8-.93-13.49-1.68-20.2-2.43-6.7-.74-13.51-1.41-20.42-1.96-5-.51-15.8-.15-20.73-.9,5.07-.25,10.11-.33,15.15-.39,5.02-.04,10.15,0,15.25.3,10.19.6,20.05,1.72,29.96,2.71-.53-.16-1.06-.33-1.57-.53l-15.61-2.35c-5.23-.75-10.55-1.46-15.98-1.93-1.84-.05-3.71-.17-5.61-.41,1.86.11,3.74.25,5.61.41,4.82.13,9.49-.2,14.62,0,3.15.35,6.67,1.46,9.79,1.82,2.54.38,4.81,1.57,7.18,2.45l4.65.72c.46-.07.96-.12,1.46-.11-.02-.02-.05-.04-.06-.07-1.79-2.44-12.29-6.05-23.49-8.86-5.6-1.4-11.62-2.51-16.65-3.05-5.02-.54-8.84-.63-10.52-.35-5.37.79-10.08,4.8-16,5.69-1.98.32-3.76-.55-5.21.46-.1.59-.82,1.1-1.54,1.62-3.91.68-8.11-.98-10.9,1.13-2,.99-9.05-7.55-9.24-5.77-.74,6.53-.22,1.79-5.09,1.85-.59-.06-2.14,2.77-3.34,2.63-4.09-1.1-4.98,1.19-9.4,2.41-6.48,2.71-8.31-1.2-13.94,3.35-.35.25-2.81,1.21-5.2,2.11-2.4.86-4.7,1.69-4.7,1.69-7.39-.07-11.82,3.34-17.77-.87-6.48,4.21-15.5-.16-22.52.66-7.07.82-10.04-2.38-16.16-5.16-1.75-.45-3.07-.17-4.08-1.05-1.01-.89-3.53,1.53-5.28,1.07l.47-1.73c-.58-.16-1.74-.47-2.32-.63-.58-.16-.42-.74-.26-1.32.32-1.15.63-2.3-.36-3.2-2.4-1.04-4.84-1.89-7.35-2.5-2.52.77-5.03,1.66-7.52,2.64-.18.79-.38,1.58-.75,2.21-.75.4-1.5.8-2.24,1.2-.52,1.71-.47,3.6-.83,4.75-.24,4.91-3.6,9.53-3.1,14.05.23,1.32,4.54,1.98,6.39,4.37.42.74-.7,2.28-1.24,4,2.57.12,2.64,2,1.51,3.55.6.17,1.2.34,1.2.34-.18.57-.71,2.29-.71,2.29,6.44,2.46,13.72,6.87,20.2,4.79,1.39-.25,3.7-1.55,5.23-2.4.76-.42,2.44.61,3.05.75,1.08-1.59.93-3.47,1.39-5.21,4.69,1.79,14.97,4.68,14.55-1.55,3.79.23,4.49-2.7,8.4-3.07,5.18-.65,11.75-1.22,18.22-1.81,3.52-.58,6.93-.7,10.37-.9,1.28-.11,2.52-.22,3.71-.33,12.81-1.18,24.12-1.22,35.28-2.09,5.57-.43,11.05-1.07,16.51-2,5.47-.93,10.96-2.13,16.88-3.77,5.97-1.67,12.19-2.76,18.39-3.46,6.19-.7,12.25-.81,18.37-.45,12.23.74,24.14,2.66,34.81,4.7,21.36,4.13,37.95,9.19,44.06,10.3l3.74-1.94Z"/>
  </g>
</svg>