<?xml version="1.0" encoding="UTF-8"?>
<svg id="Layer_1" data-name="Layer 1" xmlns="http://www.w3.org/2000/svg" viewBox="0 0 232.88 226.84">
  <defs>
    <style>
      .cls-1 {
        opacity: .8;
      }

      .cls-2 {
        fill: #414141;
      }
    </style>
  </defs>
  <g class="cls-1">
    <path class="cls-2" d="M232.88,217.88c-1.7-4.78-8.22-11.86-15.65-18.68-7.4-6.84-15.75-13.49-20.4-18.19-3.8-3.3-6.62-5.95-8.56-8.15-1.63-1.86,2.46,2,8.56,8.15,2.89,2.51,6.36,5.38,10.4,8.74-4.01-5.66-7.9-11.17-10.48-15.32-2.62-2.03-5.24-4.12-7.85-6.31-11.5-9.56-22.54-18.9-32.68-29.72-3.66-3.93-12.11-11.92-14.96-16.37,7.5,7.7,15.33,15.11,23.38,22.34,8.04,7.24,16.26,14.23,24.75,20.9-.4-.45-.78-.9-1.15-1.38-8.58-7.44-16.81-15.26-24.86-23.29-1.43-1.29-2.83-2.64-4.15-4.17l4.15,4.17c3.76,3.34,7.86,6.08,12.17,9.44,2.51,2.26,4.99,5.33,7.57,7.52,2.05,1.85,3.44,4.2,5.13,6.34,1.27,1.12,2.56,2.23,3.86,3.33.46.21.94.45,1.39.75,0-.02-.02-.07-.02-.09-.37-3.12-8.12-12.21-15.99-21.43-7.95-9.19-16.19-18.41-19.04-20.41-4.47-3.29-10.76-3.98-15.52-8.03-1.59-1.35-2.11-3.32-3.86-3.82-.52.3-1.4.04-2.27-.23-3.15-2.76-4.51-7.29-8.03-8.42-2.09-1.12.2-12.29-1.42-11.44-5.84,3.16-1.57.86-5.03-3.46-.37-.57-3.75-.27-4.48-1.41-2.09-4.29-4.55-3.7-8.78-6.73-6.93-3.78-5.41-7.89-13.16-9.47-.45-.12-3.07-1.47-5.58-2.76-2.51-1.3-4.92-2.54-4.92-2.54-5.82-5.87-11.75-6.7-13.81-14.25-8.17-1.72-12.94-11.49-19.68-15.77-6.72-4.24-7.41-8.76-11.39-15.11-1.35-1.53-2.72-2.18-3.15-3.56-.44-1.39-4.17-1.03-5.53-2.55l1.41-1.13c-.46-.51-1.37-1.51-1.83-2.01-.46-.51.01-.88.48-1.26.94-.75,1.89-1.51,1.43-2.89-1.72-2.4-3.62-4.7-5.73-6.8-2.89-.92-5.78-1.76-8.74-2.4-.58.57-1.18,1.12-1.87,1.44-.94-.1-1.87-.21-2.8-.31-1.38,1.17-2.29,2.83-3.21,3.61C8.26,8.82,2.76,10.89.96,15.09c-.45,1.27,3.22,4.25,3.66,7.34,0,.87-1.83,1.56-3.2,2.73,2.27,1.52,1.34,3.17-.48,3.86.45.48.89.96.89.96-.46.39-1.83,1.56-1.83,1.56,4.45,5.68,8.26,13.42,14.89,15.56,1.33.59,4.01.94,5.81,1.18.89.12,1.7,1.97,2.13,2.47,1.84-.62,2.84-2.23,4.26-3.34,2.96,4.35,9.55,13.22,13.1,8.13,2.97,2.69,5.4.9,8.85,3.28,4.64,3.06,10.31,7.22,15.76,11.52,3.16,2.13,5.86,4.59,8.63,7,1.06.88,2.07,1.74,3.03,2.57,10.52,8.91,18.5,17.83,26.45,26.57,3.99,4.36,7.99,8.72,12.46,13.03,4.47,4.3,9.44,8.57,15.24,12.56,5.83,4.03,11.56,8.23,17.15,12.48,5.57,4.28,11.02,8.62,16.27,13.03,5.27,4.39,10.41,8.78,15.38,13.07,4.97,4.28,9.79,8.43,14.29,12.38,9.05,7.9,16.63,15.13,22.43,21.16,5.81,6.02,9.97,10.71,12.35,13.03l4.4.66Z"/>
  </g>
  <g class="cls-1">
    <path class="cls-2" d="M231.31,10.44c-9.85,1.99-31.06,21.37-41.76,28.25-3.84,2.94-6.86,5.09-9.29,6.53-2.05,1.21,2.29-2.01,9.29-6.53,2.92-2.24,6.32-4.94,10.3-8.14-6.2,2.68-12.2,5.19-16.67,6.82-2.41,2.11-4.88,4.21-7.41,6.31-5.55,4.66-10.89,9.38-16.25,14.05-5.36,4.7-10.74,9.29-16.33,14.02-1.02.86-2.3,2-3.69,3.39-1.38,1.32-2.96,3.07-4.3,4.56-2.8,3.08-5.59,6.17-7.58,7.87,1.66-2.1,3.37-4.16,5.06-6.22l2.58-3.06c.41-.5.88-1.03,1.36-1.57.48-.53.95-1.08,1.43-1.58,3.82-4.03,7.69-7.65,11.57-11.27,7.79-7.18,15.63-14.19,23.45-21.22-.5.31-1,.6-1.52.87-8.59,7.02-17.2,13.97-25.76,21.26-1.38,1.3-2.83,2.62-4.44,3.84,1.48-1.28,2.96-2.6,4.44-3.84,3.6-3.46,6.67-7.18,10.48-10.98,2.5-2.18,5.84-4.16,8.34-6.34,2.1-1.72,4.6-2.68,6.95-3.94l3.85-3.13c.28-.4.6-.82.96-1.21-.02,0-.07,0-.09,0-3.08-.26-13.29,5.56-23.32,12.24-5.02,3.35-9.98,6.94-14.02,10.19-1.01.82-1.96,1.6-2.83,2.36-.88.78-1.69,1.51-2.4,2.18-.71.66-1.36,1.36-1.88,1.93-.53.59-.93,1.04-1.24,1.51-.5.7-.95,1.42-1.36,2.16-.23.39-.34.69-.49,1.03l-.41,1.01c-.52,1.36-.96,2.77-1.4,4.2-.88,2.87-1.8,5.78-3.52,8.45-1.15,1.78-3.02,2.63-3.27,4.46.38.47.26,1.38.15,2.3-2.19,3.58-6.36,5.86-6.66,9.49-.65,2.27-11.89,2.29-10.68,3.62,4.41,4.89,1.19,1.37-2.08,5.27-.45.44.61,3.53-.31,4.38-3.63,2.5-2.52,4.71-4.68,8.99-1.23,3.44-2.93,4.87-4.36,6.35-1.42,1.5-2.62,3.01-2.93,6.76-.06.43-1.11,2.98-2.16,5.44-1.09,2.43-2.14,4.76-2.14,4.76-2.7,2.79-4.21,5.62-6.03,7.92-1.79,2.32-3.85,4.15-7.54,4.87-.43,1.95-1.4,3.63-2.65,5.16-1.25,1.53-2.78,2.9-4.44,4.17-3.27,2.58-6.92,4.82-9.28,7.69-2.41,2.84-4.74,4.22-7.27,5.18-2.56.93-5.31,1.47-8.6,2.61-1.66.9-2.49,2.03-3.86,2.09-1.38.05-1.67,3.64-3.36,4.5l-.79-1.61c-.56.29-1.67.86-2.22,1.15-.56.28-.82-.26-1.08-.8-.52-1.08-1.05-2.15-2.42-2.12-1.28.44-2.52.94-3.74,1.48-1.24.52-2.45,1.1-3.63,1.73-1.44,2.32-2.8,4.72-4.12,7.14.38.71.74,1.44.86,2.17-.33.81-.65,1.63-.98,2.44.72,1.65,2,3.04,2.48,4.14,3.05,3.86,3.41,9.67,6.78,12.73,1.05.84,4.92-1.68,8-1.16.83.26.94,2.2,1.65,3.86,2.15-1.7,3.46-.34,3.56,1.61.6-.29,1.2-.58,1.2-.58.24.55.95,2.21.95,2.21,3.41-1.35,7.29-2.51,10.84-4.08,3.49-1.63,6.69-3.64,8.55-6.76.92-1.2,1.9-3.82,2.53-5.56.33-.86,2.34-1.33,2.92-1.67-.23-1.96-1.63-3.23-2.45-4.84,4.91-2.08,14.92-7.6,10.28-11.82,3.07-2.67,1.63-5.25,4.32-8.47,3.55-4.28,8.05-9.7,12.49-15.05,2.19-3.12,4.66-5.8,7.02-8.63.86-1.07,1.69-2.11,2.48-3.11,4.26-5.4,8.36-10.36,12.29-15.16,3.94-4.79,7.73-9.47,11.27-14.25,3.56-4.79,6.81-9.63,9.85-14.6,3.04-4.99,5.93-10.15,8.82-15.97,1.45-2.93,3.05-5.82,4.76-8.64.85-1.39,1.76-2.88,2.57-4.06.4-.62.87-1.26,1.35-1.89.48-.63.94-1.26,1.46-1.89,4.07-5.03,8.71-9.82,13.41-14.33,9.44-9.02,19.31-17.01,28.46-23.94,18.33-13.84,33.93-23.41,39.11-27.46l1.23-4.22Z"/>
  </g>
</svg>