<?xml version="1.0" encoding="UTF-8"?>
<svg id="Layer_1" data-name="Layer 1" xmlns="http://www.w3.org/2000/svg" viewBox="0 0 26.33 697.13">
  <defs>
    <style>
      .cls-1 {
        fill: #6e6e5b;
      }
    </style>
  </defs>
  <path class="cls-1" d="M14.82,696.92c.31.4,1.1.27,1.05-.75l-1.25-.84.2,1.59Z"/>
  <path class="cls-1" d="M17.91,690.38c-.53-1.24-1.53-2.71-2.81-2.05,1.16,1.29.6,1.52,2,2.92.06,1.02-.59,1.72-1.06,1.5.31.39-.44,1.54.33,2.16,1.15-1.21,1.35-2.87.66-4.68.33-.35.64.05.87.16Z"/>
  <path class="cls-1" d="M24.47,591.55l-.16.64c.09-.17.13-.39.16-.64Z"/>
  <path class="cls-1" d="M23.18,530.1c.06.47.2.65.32.67-.11-.43-.22-.78-.32-.67Z"/>
  <path class="cls-1" d="M23.9,519.52c-.02.23-.03.42-.05.62.1-.24.16-.49.05-.62Z"/>
  <path class="cls-1" d="M24.47,591.55l.41-1.64c-.43-.11-.32.84-.41,1.64Z"/>
  <path class="cls-1" d="M15.9,676.53c.04.35.14.64.28.91-.03-.28-.06-.56-.07-.84-.07-.02-.13-.04-.2-.07Z"/>
  <path class="cls-1" d="M25.24,618.66v.5c.13.15.31.29.51.43l-.51-.93Z"/>
  <path class="cls-1" d="M24.73,639.46c.07-.47-1.05-.68-1.53-.88.45.29.66.64.72,1.06.21.02.47-.03.8-.18Z"/>
  <path class="cls-1" d="M20.8,672.25l.11.59c-.04-.16-.06-.41-.11-.59Z"/>
  <path class="cls-1" d="M25.73,603.77c.17-.03.32-.11.4-.19-.14,0-.28.07-.4.19Z"/>
  <path class="cls-1" d="M1.12,24.56c.08.01.13-.02.2-.02-.12-.11-.2-.14-.2.02Z"/>
  <path class="cls-1" d="M4.76.16l.09.33c.21.02.43.04.63.02l-.72-.35Z"/>
  <path class="cls-1" d="M23.75,500.24s0,.05-.01.09c.17.49.13.21.01-.09Z"/>
  <path class="cls-1" d="M17.18,325.38c-1.09,1.95-1.15-3.3-2.39-.35.45-.26,1.64,2.81,2.39.35Z"/>
  <path class="cls-1" d="M16.09,676.01c.01-.28.02-.56.06-.85-.07.38-.08.64-.06.85Z"/>
  <path class="cls-1" d="M14.79,325.03h0s-.12.3-.12.3c.05-.13.08-.2.13-.3Z"/>
  <path class="cls-1" d="M18.86,456.33c-.19.11-.32.3-.45.49.11-.03.24-.14.45-.49Z"/>
  <path class="cls-1" d="M20.44,489.21l.07-.83c-.07.33-.08.6-.07.83Z"/>
  <path class="cls-1" d="M15.84,439.51c.05-.45.19-.61,0-1.2-.05.06-.09.12-.12.19.17.21.27.49.13,1Z"/>
  <path class="cls-1" d="M14.63,421.84c-.08.1-.14.23-.21.34.03.17.06.38.1.56l.11-.9Z"/>
  <path class="cls-1" d="M5.25,78.33c.29-.41.63-.67.96-.88-.78.32-1.22-2.27-.96.88Z"/>
  <path class="cls-1" d="M16.53,676.57c-.27-.13-.4-.29-.44-.56,0,.2,0,.4.01.59.16.06.32.09.43-.03Z"/>
  <path class="cls-1" d="M6.94,439.47l-.06-2.84c-.05.8-.02,1.83.06,2.84Z"/>
  <path class="cls-1" d="M9.78,205.56l-.14-.65c-.02.25.01.48.14.65Z"/>
  <path class="cls-1" d="M6.15,428.22c.36-.53.56-1.08.67-1.65-.1-.11-.18-.24-.31-.31l-.36,1.96Z"/>
  <path class="cls-1" d="M6.22,77.45s-.01,0-.01,0c0,0,0,0,.01,0Z"/>
  <path class="cls-1" d="M2.43,59.07c.14,2.68,1.52,1.17,2.41,1.68.62,3.17-.99,1.55-1.67,2.69.52,1.97,1.97,3.42,2,4.92-.24.13-.31.42-.63.1,1.3,2.04.43,6.27,2.04,8.65-.12.19-.24.29-.35.34.72-.44,1.46-.55,2-.5.1,1.2,1.06,2.18.13,2.69-.02-.74-.41-.78-.73-1.11l.49,1.24c-1.32,1.21-.58-1.69-1.61-1.64.6,2.43,1.9,5.23,1.61,7.14-1.34.47-.69-4.38-1.76-1.8l.36-2.94c-2.01,2.35.05-1.78-2.12.4-.18,3.85.92,4.25.73,8.1.8.82,1.1-.34,1.9.48,1.64,5.37-3.17,4.46-1.17,8.36.95.99,2.69,1.31,1.92,4.2l-1.58-.9c.03,3.72,2.31,2.01,1.46,5.95-.64-.66-.65-2.9-.8-2.32-1.09,2.58.96,1.74,1.05,3.68l-1.34.46c.4,3.94,1.56,8.26,2,12.63-.41-.23-.87-.96-1.24.08.92,5.5.3,11.8-.31,17.16l1.24,1.99c0,.47-.5.9-.75.39-.38,2.09.75.08,1.24,1.06.12,1.18-.62,1.58-1,.85,1.12,3.63,2.49,10.38,1.34,14.28l-.37-.74c-.39,3.02,2.5,3.33,1.49,6.15l-.22-.53c-.34,6.54.91,13.74-.77,18.76,1.71.91-.62,6.48,1.74,6.85-1.11,3.75-1.55,2.69-2.25,7.95-.09,1.4,1.51,2.07,1.77,3.8l-1.23.06,1.32,2.34-1.46,1.27.34,1.62c.07-.65.54-1.38.89-1.29.59,2.54-.79,6.2-1.42,6.27l1.09,6c-.5-.13-.68-1.13-1-1.93,1.28,3.2-1.29.59-.12,3.52.28-.4.74.21.99.27-.74,1.47-.74,4.8-.42,7.27l-.85-.47c-.21,4.46.43,9.39.42,14.39.39-1.79,1.87-1.38,2.01.09l-1.3.58c.81.95.49-1.53,1.48.42-.15,1.87-1.48,1.25-1.91.18l.45,2.27c-.39.13-.59-.4-1.09-.54.8.93-1.34,3.91.06,5.26l-.39.13c-.05,5,.38,7.27.42,11.34,1.12.09.86,1.68,1.76,2.91-.39,2.99-1.35,6.3-1.31,9.9.52,2.54.94.76,1.59,1.91-1.03.17-.99,3.77-1.7,1.89.09,4.33.13,5.53.8,11.02.43-.58.64-1.25.98-.89.14,1-.49,2.25-.98,2.09l-.1-.26c.69,3.09-.16,6.62-.92,9.98-.78,3.37-1.5,6.57-.52,9.05l-.1-.28.93,5.11c-.26,2.33-.72-1.43-1.42.27,1.5,5.54-.61,8.63.34,13.18-3.17,3.35-.36,12.39-2.5,17.02l.72-.24c.64,1.25-.48,1.46-.68,2.35.56-.1.7-1.29,1.05-.52.36,10.36-1.99,21.31-2.85,31.99-.25,3.91,3.65,2.28,1.87,7.17l-1.3-1.41c.7,3.95.78,7.98.72,11.99-.04,4.01.05,8,.79,11.84-.32-.45-.71-.45-.73-1.21-.46.83-.44,2.34-.2,3.64.26,1.3.74,2.39,1.13,2.39-.04,1.2-.7.3-1.06,1.06-.49,1.66,1.41,4.05.49,4.96-.15.15-.33-.44-.42-.74.51,1.04.1,4.97,1.16,3.89-.4,2.92.82,5.49.3,7.83,1.33,1.42-.28,4.98,1.49,5.34-.91-.04-1.19,1.25-1.13,2.77.09,1.52.53,3.26,1.03,4.14-.59-.57-.44,1.62-1.25.97.19,2.08.68,3.95,1.58,3.52-1.85,4.01,2.34,7.54-.21,9.92,1.52,6.07,2.73,11.69,3.69,17.16-1.82-.02-.77-6.08-2.63-5.66,1.24,5.17,3.09,8.03,3.16,13.26-.11,1.37-.85-.69-1.2-1.11,1.26,5.15.82,10.11,2.25,14.66-.17,0-.4-.48-.58-.94.15.91-.06,2.15.75,1.97l-.31-.87c1.05-1.57,2.82,3.4,3.46,3.51-2.48-1.34-.17,4.64-3.35,2.45.21.59.67,1.31,1.2,1.12-.08.91-.37,1.22-1.07.37.75,3.24,1.51,1.99,1.75,4.97-.4.02-.6-.56-1.09-.83.9,1.43,1.8,2.88,1.69,5.42-.25-.13-.54.19-.6-.56.5,4.3,2.65,7.18,2.28,11.97-1.82-1.27-.45,1.65-1.93,2.01l.62,2.51.65-1.07c.13,2.23,1.35,4.13,1,6.08l-.73-1.62.55,4.16.42-2.4c.91,2.21,1.87-.37,1.64,2.64-.19-.59.12,2.24-.69,3.45h0c.54,1.07,1.11,2.18.84,3.85-.45.46-1.67-.25-1.97.04,1.31,1.02.61,5.21,2.01,6.52-.33-.45-1.12-.43-1.27-.27l1.06.87c-.27,1.05-.42,1.21-1.05,1.07-.03,3.12,1.84-1.08,1.21,2.65-.1-.29-.24-.14-.42-.74-.26,3.73.92,7.14.56,10.57-1.46,1.06-.48-2.96-1.7-1.77.48,4.89,2.09,10.12,1.87,14.89l.15-.89c2.15.62-.99,3.57.04,5.95-.16-.59-1.19-.75-.95-.6-.31,3.26.64,6.65,1.3,11.59l-.55-.61c-.48,1.92-.27,5.06-.52,7.13.54.62.46,1.8,1.25,1.09-3.17,6.37,1.57,12.24-1.15,17.88,0-.68-.44-1.63-.46-1.09l.4,4.84c.93-.36.58-.62,1.32-1.62.54.63.92,2,.89,3.2-.55-2.19-1.48-.02-2.03.91.29-.15.59.18.88.11-1.71,2.48,1.85.48.64,3.9l-.48-.2c.2,1.3.81,2.51.62,3.9-1.09.54-.45-1.39-1.33-1.51,0,1.96,1.9,3.93.76,5.66-.27-.84-.22-2.04-.49-2.88-1.32,1.88-1.02,2.12-1.27,3.54l.03-.14-.7,3.28.37-.83c2.68,2.56.29,5,1.96,8.38-1.57-3.29-.97-.58-2.17-.88-.38.82-.82,2.08-1.14,1.7.89,1.6-.89,2.55.41,4.82-.4.08-.13,1.66-1.09,1.26.19,2.04.7-.44,1.18-.24,1.16,3.2-2.03,7.22-.51,11.82.5,3.91,1.75,4.72,2.14,8.36-.71,1.17-1.34-1.1-1.34-1.1-.72,1.91-.73,3.39-.42,5.26-.31-.4-.63-.04-1.11.49-.02,1.48,1.34,1.1.61,3-.41-.37-1.07-.85-1.44-1.6.22,1.77.8,3.54,1,5.37-.72.42-.94-1.17-1.32-1.84.14,2.05.17,5.29,1.18,6.01l.5-1.26c-.01.74-.95.3-1.1-.26-.69-1.8.59-2.47.99-2.53l.14,1.3c2.39-1.12.07-5.18.41-7.75l1.57,1.21-1.17-2.76c.48-.53,1.43-.85,1.58.45.96-1.79-.46-1.69.57-3.21.16-.17.23-.08.28.09l-.36-1.85c.32.38,1.19-.22.87.88,1.19-3.19-.86-5.34.47-6.48l.08.28c-.26-4.56-1.19-.52-2.4-4l3.15-2.09-1.19-.52c.07-.46.22-1.38.7-1.18-.73-1.79-.55.26-1.27-.79,1.25-2.18-.17-6.21,1.81-6.61-.88-.86-.83,2.11-1.35-.32,2.13-.57-.22-2.79.85-4.79,1.05.68.38,2.6,1.44.59-1.76-1.33.59-3.98.32-5.73-1.44-.15-.44-3.79-.81-6.72.49.2,1-5.44,1.61-8.13l.24.09c-1.45-.57-1.1-3.35-1.35-5.39.88.1,1.21.48,1.58,1.59l.05-1.91c-.46-.46-.69-1.07-.83-2.31l1.09.51c-.02-2.55-1.16-5.15-.41-8.41-1.02-.2-2.88,2.55-3.53-.91.56-.12,1.5-.23,1.72.67-.07-.3-.45-1.06-.2-1.66l.92,1.39c.43-1.48-.77-.79-.67-1.98.79.03.57-.87,1.2-.7.07.31-.34,1.04-.03,1.5.16-1.34.64-2.96,1.25-3.49-.45.11-1.06-.01-1.15-1-.03-2.54.96-.86,1.38-2.34-.54-.62.05-2.24-1.14-2.29,0-.74.56-.88.88-1.17-.52-1.32-.16-6.16-1.41-4.67l-.08.34c-.02-.06-.03-.14-.05-.22h0s0,0,0,0c-.59-2.16-.43-4.39-.18-6.63.23-2.24.53-4.47.25-6.61h.4c-.49-2.55-.33-5.69-1.24-7.49-.02-.75.67-1.8,1.15-1.49-.35-1.95-.8-2.15-.22-4.99.74,1.95.59-.7.56,2,.27-2.55.9-3.15-.26-5.84,1.05.9,1.2-1.96.85-3.15l-.66,1.81c-.2-1.35-.15-2.54-.11-3.75l1.35.6c1.44-5.28-3.14-9.26-.63-13.34-1-1.33-.51,2.86-1.66,1.68.06-2.39,1.85-4.99,1.81-5.74.54-3.32-2.13-2.94-1.83-6.4-.45.47-1.69.96-2.29-1.57.03-2.4,1.8-3.06,2.28-1.58.07.57-.06.86-.22.84.22.76.48,1.76.94.78l-.49-.28c.42-1.22.13-4.5.97-3.78-.58-1.78-.83-.72-.98.63.47-3.11-.32-4.79-.08-7.98-.23.52-.75,1.02-.78.52.24-4.67-1.05-1.97-1.5-5.08.58-1.83,1.77.5.92-2.6.34-1.96,1.22-.51,1.67.23-1.13-2.8.16-5.42.19-7.08l.51,1.48c-.3-.89-.36-1.63-.43-2.38l-.87.95c.09-.9.03-1.65.42-1.67-.7-.86-1.51.84-2.52-.9.38-1.23-.83-3.55.39-4.08-.09,3.76,1.23-.53,1.71,2.61-.2-.59-.26-1.34-.18-2.24.13-.15.27.1.37.34.79-3.66-1.57-1.51-1.88-5.2.75.4,1.26-.98,1.06-1.57.12,1.49-1.11.82-1.78-.49.33-2.42-.65-2.53-.71-3.77l-.12,1.44c-.75-.41-.77-1.6-1.15-3.22.54-.19.52,1.46.71.85-1.42-1.71.89-4.25-.2-6.72.36-1.23,1.32-.24,1.54-1.31-1.2-2.76.66-3.19-.39-6.11-.86.96-.62,1.08-1.75-.93l1.15,4.86-1.69-3.03c.13,1.49.91,3.08.83,3.99-.92-1.43-.67-1.3-1.39-.51,1.22-2.18-1.23-3.95-.49-6.4l2.36-.16c.7-3.64-1.82-6.16-1.67-10.8l-.27,1.51c-.99-.53-.4-2.82-.92-4.27.8.06,1-.89,1.43-1.57-.58.13-.25-3.36-1.86-3.63l.85-2.14c.1-3.73-2.59-4.03-2.61-7.62.94,1,1.37-.66,2.17,1.67-.09-1.19-.03-2.27-.58-2.24.44-.73-1.33-3.21-.67-4.36-.39-.47-1.22-.58-1.27-1.92.15-.16.39-.02.39-.02-.39.02-.7-2.05-1.47-.82,2.17-3.84-.84-10.25,1.06-13.56-.46-2.58-.8-5.7-.98-8.05.24.14.39-.01.33.44.59-3.28-2.35-1.9-1.7-5.64,1.19-1.94.78,1.94,1.21.74,1.29-.31,1.15-1.42.87-2.77-.26-1.35-.65-2.95.08-4.22l.17.6c.84-1.92-1.09-4.61-.98-7.73,0,0,.23.15.39.01-1.36-2.11-1.79-6.14-2.17-9.14,1.02.93.54,1.36,1.57.79-.15-1.34-1.66.39-1.96-2.29.54-.87,1.06-2.8,2.17-3.05.01.84,0,1.68.03,2.53,1.42-1.28,0-3.27.26-4.6l.62.18c-.14-3.87-1.73-3.95-1.52-8.11l-.49.42c-1.49-2.32.93-1.89-.15-4.19l1.6-.64c-.33-1.51-1.38-5.31-1.55-8.02,1.1,1.57,1.6,4.75,2.23,6.72.06-1.49.04-5.06-.7-5.86.13.61.48,1.38.22,1.96-1.17-1.87-1.68-4.3-1.53-7.27,3.03.66,1.1-7.71,3.58-9.76-.89-5.3.97-10.41,1.07-16.55-2.48,2.07.02-1.79-2.44-1.53-.09-1.44-.03-1.98.13-2.1l1.64-4.27c.76-1,.48,1.38,1.03,1.28.32-3.12,1.09-1.27,1.83-3.32-.89.39-1.21-1.14-.8-2.91l-1.23,2.47c-1.12-4.43,2.22-3.7,1.09-8.17l.72,1.43c-.37-2.28.31-8.37-1.57-10.65.3-.39.98-.9,1.12.1.49-5.41-1.75-12.12-.42-16.29l.59.43c-.15-1.02-1.08-1.79-.44-3.04.25.07.59.42.63-.05-.19-.54-1-2.71-.63-4.04l.65,1.16c.88-5.27-1.5-8.14-1.83-12.57,1.76.04,2.41-4.11,2.7-6.19l.25.08c.26-6.15-1.38-10.47-2.03-16.16,1.95-3.53.79-11.97,1.86-17.66-.32.87-1.37-.14-1.55-1.15.35-1.33-1.23-3.68.39-3.48l-.03.48c1.58-1.01,1.16-3.75,1.18-5.89l-2.12-.34c3.04-5.62-1.27-14.64,1.44-17.73-.54-1.34-.57-3.02-1.12-4.35l1.13.05c.22-3.75.35-5.62-.01-10.24l.83.93c.02-2.61-3.33-3.23-3.45-5.63l1.68-.76c-.11-4.55,1.24-9.19-.39-13.65.25.07.74.19.83.92,0-2.14.91-8.32-1.38-7.47,1.51-.1.01-4.7-.73-7.13l1.12.35c-1.48-2.03-1.88-2.08-2.37-4.96.12-.69.87-.63.62.29.51-2.3-1.11-1.75-.61-4.53l.75,1.01c0-2.35-.37-2.15-1.24-3.42-.49-1.46.12-4.47,1.12-4.85-.63-.29-1.5-1.55-1.26-2.95.37-.2.63.29.75.54.61-3.96-1.52-5.79-.53-8.54.37-.07.54-.25.65-.48.1,3.12.13,5.64.04,5.41,1.03-.04,1.11-2.57,2.61-.62-.85-2-2.67-5.39-2.29-7.87.09-.12.19-.24.34-.34l.13.25c.08-.57-.04-1.08-.23-1.55.13-.79.24-1.3.22-2.05.84-.33.33-2.91.32-4.17-1.12.15-1.01-1.5-1.87.08.07-.2.14.23.23,1.07.04.19.07.41.14.53-.03-.02-.07-.05-.1-.08.07.82.14,1.9.21,3.12-.61-.97-1.14-1.99-.58-3.4-.75-.61-1.52-1.29-1.89-1.67,1.5-1.79,2.18-5.15,3.12-5.65-.82-3.81-.85-9.03-3.08-11.33-.33-1.08.54-1.29.85-1.71.25.62.25,1.37.57,1.7-.66-2.15-.56-6.45-2.06-6.89.52-2.78,1.44,1.47,1-2.29l.48.49c1.97-7.57-4.45-11.86-1.9-20.28-.15.58-.22.87-.46,1,.75-9.47-2.47-19.26-1.03-28.66.24-2.66-.72-2.88-1.55-4.43l1.17-.66-1.6-2.64c-1.31-3.81,2.45-6.96.15-11.74l-.76.7c.03-1.78-.91-5.57.04-5.34-.16-.17-.89-.51-.52-1.24l.63-.1-1.43-4.26c.18-3.41,2.54.32,2.27-4.6C8.41,2.62,6.55-.62,6.18.1c.03.74-.24,1.92-.87,2.02l-.46-1.64C2.97.34.96-.78,0,3.42l1.37,2.76-.83.99-.25-2.4c-.74,1.43.08,2.23.68,3.16-.46.27-.76.7-.89,1.28l2,2.66c-.7.4-1.54-1.14-1.79.77.93,1.25,1.53-1.39,2.24.74-.73,1.43-1.45,1.09-.6,2.63-.46.26-.79-.05-1.05-.67.69,1.38.54,3.75,1.58,4.41-.93,1.5.63,4.8-1.13,4.79.45.42,1.57,2.41,1.74,3.71-2.29-2.24.25,4.91-2.06,4.45,2.03,1.63,1.29,6.34,2.57,9.4-.16-.16-.49-.49-.41-.77-.03,1.78-.57,2.33-.85,3.49,1.58.12,2.13,2.85,3.2,4.26-1.36,2.27-1.93-1.19-3.33-.41,1.27-.2,1.52,3.68,2.52,2.87-.83,1.72-.36,1.46-1.6,2.4,1.97.16.43,1.52,1.72,2.82-.81,2.46-1.79.74-1.03,3.33-.52,1.29-1.36-1.01-1.36-1.01ZM9.13,121.56s-.02,0-.02,0c-.05-.54-.09-1-.12-1.29.03.27.07.64.14,1.29ZM9.36,126.83c.02-.64,0-1.44-.04-2.29.38-.2.79-.02.79.51-.27-.28-.45.97-.74,1.77ZM16.68,115.34c.2.83-.01,1.12-.24,1.24-.04-.39-.09-.85-.2-1.46-.04-.02-.09-.07-.14-.09.22.07.42.15.58.31Z"/>
  <path class="cls-1" d="M15.14,113.9c-.03-.12-.08-.18-.1-.34-.09.18-.17.34-.23.51.13.1.25.19.36.28-.01-.15-.03-.31-.04-.45Z"/>
  <path class="cls-1" d="M24.29,592.3l.03-.11c-.04.09-.09.18-.16.23.05-.07.09-.07.13-.12Z"/>
  <polygon class="cls-1" points="9.16 199.69 9.44 199.68 9.19 199.22 9.16 199.69"/>
  <path class="cls-1" d="M20.05,621.33c-.1.05-.21.16-.3.37.07-.01.18-.18.3-.37Z"/>
  <path class="cls-1" d="M19.38,633.86l-.47,1.76c.26-.76.39-1.31.47-1.76Z"/>
  <path class="cls-1" d="M18.41,643.46c.19.13.34.17.47.21,0,0,0-.01,0-.02l-.48-.19Z"/>
  <path class="cls-1" d="M13.01,490.59c-.02-.13-.05-.25-.09-.37-.3-.85-.16-.27.09.37Z"/>
  <path class="cls-1" d="M19.24,535.85c-.23-.47-.46-.94-.62-1.43-.04.82-.02,1.45.62,1.43Z"/>
  <path class="cls-1" d="M6.95,439.78s0,0,.02,0c0-.11-.02-.21-.03-.32v.31Z"/>
  <path class="cls-1" d="M18.52,532.3c-.18.82-.09,1.5.11,2.12.03-.67.1-1.46-.11-2.12Z"/>
  <path class="cls-1" d="M15.08,685.08l-.09.46c.07,0,.13.03.18.07l-.09-.53Z"/>
  <path class="cls-1" d="M15.17,685.61l.09.53c.02-.24.03-.44-.09-.53Z"/>
  <path class="cls-1" d="M15.44,687.24l-.19-1.11c-.04.37-.11.83.19,1.11Z"/>
  <path class="cls-1" d="M16.63,672.41l-.4-.18c.08.09.21.15.4.18Z"/>
  <path class="cls-1" d="M16.8,668.54c-.16.92-1.03,2.25-.88,3.55l.31.14c-.56-.65,1.19-2.77.56-3.7Z"/>
  <path class="cls-1" d="M22.86,652.68l-.51,3.24c.47-.54,1.1-1.26,1.11.23,1.54-4.03-1.01.79-.6-3.47Z"/>
  <path class="cls-1" d="M24.02,642.61c.12,1.76.63,0,.87.11-.35-1.13-.43-1.4-.87-.11Z"/>
  <path class="cls-1" d="M24.91,569.46l1.03.15c-.18-1.35-.4,0-1.03-.15Z"/>
  <polygon class="cls-1" points="19.19 555.68 18.6 557.01 19.56 557.6 19.19 555.68"/>
  <polygon class="cls-1" points="26.12 547.12 26.29 547.71 25.81 545.47 26.12 547.12"/>
  <path class="cls-1" d="M15.82,424.93l-1.23.48c.28.89,1.71.99,1.23-.48Z"/>
  <path class="cls-1" d="M13.5,372.36c.65-.56,1.1-2.03.51-2.96-.12,1.18-.65,2.35-.51,2.96Z"/>
  <polygon class="cls-1" points="19.41 213.62 19.84 214.68 19.47 212.67 19.41 213.62"/>
</svg>