<?xml version="1.0" encoding="UTF-8"?>
<svg id="Layer_1" data-name="Layer 1" xmlns="http://www.w3.org/2000/svg" viewBox="0 0 697.15 17.48">
  <defs>
    <style>
      .cls-1 {
        fill: #6e6e5b;
      }
    </style>
  </defs>
  <path class="cls-1" d="M696.96,17.48c.39-.12.23-.54-.78-.59l-.8.56,1.58.03Z"/>
  <path class="cls-1" d="M690.36,15.39c-1.22.17-2.65.56-1.96,1.26,1.25-.49,1.5-.19,2.85-.78,1.01.05,1.73.43,1.53.65.38-.13,1.54.35,2.13,0-1.24-.68-2.9-.91-4.68-.71-.35-.19.03-.32.13-.43Z"/>
  <path class="cls-1" d="M591.75,6.69l.64.1c-.17-.05-.39-.08-.64-.1Z"/>
  <path class="cls-1" d="M530.37,6.38c.47-.03.66-.1.68-.16-.43.06-.79.11-.68.16Z"/>
  <path class="cls-1" d="M519.86,6.04c.23,0,.42.01.62.02-.24-.05-.48-.08-.62-.02Z"/>
  <path class="cls-1" d="M591.75,6.69l-1.63-.26c-.12.21.84.19,1.63.26Z"/>
  <path class="cls-1" d="M676.63,15.38c.34,0,.63-.02.9-.07-.28,0-.56-.02-.84-.02-.02.03-.04.06-.07.1Z"/>
  <path class="cls-1" d="M618.82,7.33l.5.03c.15-.07.29-.15.43-.24l-.93.22Z"/>
  <path class="cls-1" d="M639.56,8.61c-.47-.06-.67.49-.87.72.28-.21.64-.29,1.05-.31.02-.11-.04-.24-.18-.41Z"/>
  <path class="cls-1" d="M672.26,12.61h.59c-.15-.01-.41,0-.59,0Z"/>
  <path class="cls-1" d="M603.97,6.49c-.03-.08-.1-.16-.18-.21,0,.07.07.14.18.21Z"/>
  <path class="cls-1" d="M24.21,8.25s0-.07,0-.1c-.12.06-.15.1,0,.1Z"/>
  <path class="cls-1" d="M.07,6.61l.33-.05c.03-.11.06-.21.06-.32l-.39.36Z"/>
  <path class="cls-1" d="M500.65,6.29s.05,0,.09,0c.5-.09.22-.07-.09,0Z"/>
  <path class="cls-1" d="M325.34,6.82c1.95.65-3.29.4-.33,1.18-.26-.24,2.79-.67.33-1.18Z"/>
  <path class="cls-1" d="M676.11,15.24c-.28-.03-.56-.06-.84-.09.38.06.64.09.84.09Z"/>
  <path class="cls-1" d="M325,8h0s.3.08.3.08c-.13-.03-.2-.05-.3-.08Z"/>
  <path class="cls-1" d="M456.6,9.43c.1.09.28.16.46.22-.02-.06-.12-.12-.46-.22Z"/>
  <path class="cls-1" d="M489.47,8.11l-.82-.02c.33.03.59.03.82.02Z"/>
  <path class="cls-1" d="M439.61,11.11c-.44-.02-.6-.09-1.2.01.06.03.11.04.19.06.21-.09.5-.14,1.01-.07Z"/>
  <path class="cls-1" d="M421.88,11.76c.09.04.22.07.33.1.18-.01.38-.03.56-.05l-.89-.06Z"/>
  <path class="cls-1" d="M78.15,6.12c-.39-.15-.64-.32-.83-.48.28.39-2.32.6.83.48Z"/>
  <path class="cls-1" d="M676.66,15.06c-.12.13-.28.18-.55.18.2.01.4.02.59.04.06-.08.08-.15-.04-.22Z"/>
  <path class="cls-1" d="M439.09,15.58l-2.83.05c.79.02,1.82,0,2.83-.05Z"/>
  <path class="cls-1" d="M205.56,5.76l-.65.05c.25.02.48,0,.65-.05Z"/>
  <path class="cls-1" d="M427.86,16.01c-.51-.18-1.05-.28-1.61-.34-.12.05-.25.09-.32.16l1.93.18Z"/>
  <path class="cls-1" d="M77.31,5.64s0,0,0,0c0,0,0,0,0,0Z"/>
  <path class="cls-1" d="M58.77,7.5c2.69-.07,1.24-.76,1.8-1.21,3.2-.31,1.5.5,2.6.84,2-.26,3.51-.98,5.01-.99.11.12.41.16.07.32,2.1-.64,6.29-.2,8.73-1,.19.06.28.12.33.17-.41-.36-.48-.73-.4-1,1.21-.04,2.23-.53,2.69-.06-.74,0-.8.2-1.14.36l1.26-.24c1.15.66-1.72.29-1.71.8,2.46-.3,5.31-.93,7.21-.77.41.67-4.41.32-1.88.87l-2.93-.19c2.26,1.01-1.78-.03.3,1.06,3.85.11,4.29-.44,8.13-.32.86-.4-.3-.55.56-.95,5.44-.79,4.32,1.61,8.31.64,1.03-.47,1.42-1.34,4.28-.93l-.96.78c3.72.02,2.11-1.14,6.01-.68-.69.31-2.92.3-2.36.38,2.53.57,1.78-.46,3.72-.5l.41.67c3.96-.17,8.32-.69,12.7-.87-.24.2-.99.43.04.62,5.53-.4,11.81,0,17.15.37l2.04-.59c.47,0,.88.26.37.38,2.08.22.11-.37,1.11-.6,1.18-.04,1.56.34.81.51,3.67-.51,10.46-1.08,14.32-.43l-.75.17c3.01.25,3.4-1.19,6.2-.64l-.54.1c6.53.3,13.77-.19,18.74.77.96-.83,6.46.45,6.9-.72,3.72.64,2.65.84,7.9,1.32,1.4.08,2.1-.7,3.84-.79l.03.62,2.37-.6,1.24.76,1.63-.13c-.65-.05-1.37-.3-1.27-.48,2.55-.23,6.19.56,6.24.88l6.03-.38c-.14.24-1.15.31-1.95.44,3.23-.55.57.66,3.52.16-.39-.15.22-.36.29-.48,1.46.41,4.79.52,7.27.44l-.49.41c4.46.24,9.41.08,14.41.24-1.79-.25-1.35-.98.12-1l.56.67c.96-.37-1.52-.29.44-.73,1.87.13,1.23.78.15.96l2.28-.15c.13.2-.41.28-.56.52.95-.37,3.9.81,5.27.16l.12.2c5,.2,7.28.07,11.35.2.1-.56,1.69-.37,2.93-.78,2.99.3,6.29.93,9.89,1.05,2.55-.15.76-.44,1.92-.72.16.52,3.76.65,1.88.93,4.33.13,5.53.16,11.02.07-.58-.24-1.24-.38-.89-.53,1-.03,2.25.35,2.09.59l-.27.04c3.09-.2,6.61.38,9.98.92,3.36.55,6.57,1.08,9.05.71l-.28.03,5.11-.21c2.32.25-1.43.29.28.72,5.53-.47,8.62.76,13.17.53,3.37,1.77,12.37.86,17,2.19l-.24-.38c1.24-.25,1.46.32,2.35.47-.11-.29-1.29-.42-.52-.56,10.33.4,21.25,2.15,31.86,3.04,3.89.28,2.29-1.73,7.15-.65l-1.42.59c3.94-.18,7.95-.13,11.94.03,3.99.14,7.97.15,11.81-.13-.46.15-.47.35-1.22.34.81.25,2.31.27,3.61.17,1.3-.12,2.4-.34,2.41-.54,1.2.03.28.35,1.02.54,1.63.26,4.08-.66,4.95-.19.15.08-.46.16-.75.2,1.06-.25,4.95,0,3.92-.54,2.89.23,5.5-.4,7.81-.13,1.48-.67,4.94.14,5.38-.75-.09.46,1.18.6,2.7.57,1.51-.06,3.28-.29,4.18-.55-.6.3,1.59.21.9.62,2.08-.11,3.97-.37,3.59-.82,3.88.89,7.64-1.23,9.86.02,6.13-.84,11.8-1.54,17.31-2.11-.14.92-6.11.49-5.81,1.42,5.22-.71,8.2-1.68,13.41-1.81,1.35.03-.74.44-1.18.62,5.21-.72,10.13-.58,14.76-1.37,0,.08-.5.21-.98.31.92-.09,2.14,0,2.01-.41l-.89.17c-1.5-.51,3.57-1.47,3.72-1.79-1.49,1.27,4.62.02,2.23,1.65.6-.11,1.35-.35,1.19-.62.9.03,1.2.17.3.53,3.27-.42,2.08-.79,5.06-.94,0,.2-.6.31-.89.56,1.49-.47,2.98-.94,5.51-.91-.15.13.16.27-.6.31,4.32-.3,7.32-1.38,12.09-1.24-1.36.92,1.63.22,1.91.96l2.54-.32-1.04-.32c2.24-.07,4.19-.69,6.12-.52l-1.65.37,4.19-.28-2.38-.21c2.25-.45-.27-.94,2.71-.81-.6.09,2.24-.05,3.42.35h0c1.1-.27,2.23-.55,3.89-.41.44.23-.33.84-.04.99,1.08-.65,5.23-.27,6.61-.96-.46.16-.48.56-.32.63l.91-.52c1.04.14,1.19.22,1.03.54,3.12.04-1-.93,2.7-.59-.29.05-.15.12-.75.21,3.72.17,7.18-.37,10.6-.15,1.01.75-2.98.2-1.83.83,4.92-.18,10.2-.86,14.96-.67l-.89-.09c.67-1.07,3.54.58,5.96.13-.59.07-.78.57-.62.46,3.26.24,6.67-.17,11.63-.33l-.62.25c1.92.3,5.06.3,7.13.48.63-.25,1.81-.17,1.1-.59,6.34,1.83,12.25-.34,17.87,1.27-.68-.03-1.63.15-1.09.18h4.85c-.36-.47-.62-.31-1.61-.72.63-.24,2.01-.37,3.2-.3-2.19.18-.02.74.9,1.06-.15-.15.18-.29.11-.44,2.48.97.48-.91,3.9-.14l-.2.23c1.3-.04,2.51-.28,3.9-.12.54.57-1.39.16-1.51.59,1.95.1,3.93-.76,5.66-.1-.84.09-2.03,0-2.87.1,1.88.76,2.12.62,3.54.82l-.14-.02,3.28.52-.83-.23c2.55-1.21,4.99.12,8.36-.52-3.27.6-.57.45-.86,1.04.83.24,2.09.53,1.71.67,1.59-.36,2.56.59,4.81.07.08.2,1.66.17,1.27.62,2.03.03-.45-.38-.26-.61,3.17-.39,7.24,1.46,11.8.99,3.9,0,4.67-.57,8.29-.52,1.17.44-1.06.6-1.06.6,1.92.49,3.39.6,5.25.58-.39.13-.02.31.51.59,1.48.12,1.06-.59,2.97-.09-.36.18-.82.48-1.56.61,1.75.02,3.51-.15,5.32-.11.44.39-1.14.38-1.8.53,2.03.08,5.26.31,5.95-.14l-1.27-.35c.74.06.32.5-.23.54-1.78.21-2.47-.48-2.55-.69l1.29.03c-1.18-1.29-5.16-.42-7.73-.77l1.17-.71-2.72.39c-.54-.28-.87-.78.41-.77-1.8-.61-1.67.12-3.21-.51-.17-.09-.08-.12.08-.14l-1.83.05c.37-.14-.24-.62.86-.38-3.2-.81-5.3.07-6.46-.67l.28-.02c-4.53-.16-.5.56-3.94.94l-2.13-1.72-.5.57c-.46-.07-1.38-.2-1.19-.42-1.77.25.27.29-.77.59-2.19-.77-6.19-.29-6.61-1.31-.84.39,2.11.55-.31.66-.59-1.1-2.78-.05-4.78-.7.67-.49,2.59-.04.58-.69-1.31.8-3.97-.52-5.71-.48-.14.71-3.78.01-6.7.06.2-.24-5.43-.77-8.11-1.21l.09-.12c-.57.7-3.34.4-5.38.43.1-.43.48-.59,1.59-.72l-1.91-.11c-.46.21-1.07.29-2.31.31l.51-.52c-2.54-.1-5.15.35-8.4-.14-.21.5,2.53,1.54-.94,1.73-.12-.28-.22-.76.69-.83-.3.02-1.07.18-1.66.04l1.4-.41c-1.48-.27-.8.35-1.98.26.04-.39-.87-.32-.68-.63.31-.02,1.03.21,1.49.07-1.34-.13-2.95-.43-3.47-.76.11.23-.02.53-1.01.54-2.54-.08-.85-.51-2.32-.78-.63.25-2.24-.11-2.3.48-.74-.03-.87-.31-1.15-.48-1.32.22-6.15-.12-4.68.56l.34.05c-.06,0-.14.01-.22.02h.01s-.01,0-.01,0c-2.16.23-4.4.07-6.63-.12-2.23-.18-4.46-.38-6.6-.29v-.2c-2.55.19-5.68,0-7.5.44-.75,0-1.78-.37-1.45-.6-1.95.14-2.17.36-4.99.01,1.96-.33-.68-.31,2.01-.24-2.54-.18-3.11-.51-5.84.02.93-.51-1.91-.63-3.12-.47l1.78.35c-1.36.08-2.54.04-3.75,0l.65-.67c-5.21-.8-9.35,1.46-13.33.18-1.37.49,2.83.28,1.61.84-2.39-.05-4.9-.96-5.65-.95-3.28-.28-3.03,1.06-6.46.9.45.22.88.85-1.67,1.14-2.39-.02-2.97-.9-1.47-1.15.57-.04.85.03.83.11.77-.11,1.78-.24.83-.47l-.3.25c-1.19-.22-4.48-.06-3.72-.48-1.8.29-.76.42.58.49-3.08-.23-4.79.17-7.95.06.51.11.98.37.48.39-4.64-.1-2.02.54-5.14.79-1.8-.28.6-.89-2.54-.44-1.94-.15-.44-.61.32-.84-2.85.58-5.39-.03-7.03-.03l1.5-.27c-.9.16-1.64.2-2.4.24l.89.43c-.89-.03-1.65,0-1.64-.19-.9.36.74.75-1.05,1.27-1.2-.18-3.59.45-4.04-.15,3.74,0-.45-.61,2.7-.89-.6.11-1.35.14-2.24.11-.14-.06.12-.14.36-.19-3.6-.35-1.6.81-5.29,1.02.45-.38-.9-.62-1.49-.51,1.49-.08.75.55-.6.9-2.38-.13-2.56.37-3.8.41l1.42.04c-.46.38-1.64.41-3.28.63-.16-.27,1.48-.29.89-.37-1.79.74-4.18-.38-6.7.21-1.2-.16-.16-.66-1.21-.75-2.83.65-3.13-.28-6.11.3.9.42,1.04.29-1.04.9l4.92-.66-3.13.9c1.49-.09,3.13-.51,4.03-.48-1.49.49-1.34.36-.6.71-2.09-.58-4.02.68-6.41.36v-1.18c-3.58-.29-6.26,1.02-10.88,1.01l1.49.11c-.59.51-2.84.25-4.32.53.11-.4-.83-.49-1.48-.7.09.29-3.37.17-3.74.98l-2.08-.4c-3.72,0-4.18,1.33-7.76,1.38,1.06-.48-.58-.68,1.79-1.1-1.19.05-2.27.03-2.27.31-.71-.21-3.28.69-4.4.37-.5.2-.64.62-1.98.65-.15-.07,0-.19,0-.19,0,.19-2.09.37-.9.75-3.72-1.07-10.28.42-13.51-.52-2.6.24-5.74.36-8.1.43.15-.12,0-.2.45-.16-3.26-.33-1.99,1.16-5.71.79-1.9-.62,1.97-.37.79-.6-.26-.65-1.38-.59-2.75-.46-1.37.1-2.98.27-4.23-.12l.6-.07c-1.9-.46-4.66.45-7.77.33,0,0,.15-.11.02-.2-2.14.63-6.19.71-9.19.81.95-.48,1.37-.23.82-.76-1.35.03.37.84-2.32.91-.86-.29-2.79-.63-3.02-1.19.84.03,1.69.07,2.53.08-1.27-.75-3.27-.12-4.6-.31l.18-.3c-3.88-.09-3.97.71-8.14.43l.42.26c-2.32.63-1.88-.56-4.19-.12l-.64-.83c-1.51.09-5.31.45-8.02.38,1.57-.46,4.74-.56,6.71-.79-1.49-.1-5.06-.26-5.86.06.61-.03,1.37-.17,1.96,0-1.87.49-4.29.62-7.26.39.64-1.48-7.7-.96-9.76-2.32-5.29.15-10.39-1.06-16.52-1.45,2.08,1.36-1.79-.11-1.51,1.14-1.43-.03-1.97-.09-2.09-.18l-4.27-1.05c-1-.43,1.38-.17,1.27-.45-3.12-.33-1.27-.62-3.31-1.09.39.47-1.13.54-2.9.24l2.47.75c-4.41.33-3.7-1.32-8.15-.97l1.42-.29c-2.28.07-8.34-.57-10.62.26-.39-.17-.9-.54.1-.56-5.39-.51-12.09.32-16.25-.54l.43-.27c-1.01.03-1.79.46-3.03.08.07-.12.42-.27-.04-.32-.54.07-2.71.39-4.03.15l1.16-.28c-5.25-.65-8.13.42-12.56.4.05-.88-4.08-1.38-6.15-1.59l.08-.12c-6.14-.35-10.46.31-16.16.43-3.5-1.11-11.94-.77-17.6-1.49.86.19-.16.68-1.17.74-1.33-.22-3.7.5-3.46-.3l.47.03c-.98-.82-3.72-.7-5.86-.77l-.38,1.05c-5.55-1.68-14.65.24-17.68-1.2-1.35.24-3.02.21-4.37.45l.08-.57c-3.74-.2-5.6-.32-10.22-.23l.95-.39c-2.61-.07-3.31,1.59-5.72,1.6l-.71-.85c-4.55-.05-9.14-.81-13.64-.08.07-.12.21-.37.95-.4-2.14-.05-8.28-.61-7.5.55-.05-.76-4.69-.09-7.15.24l.38-.56c-2.07.71-2.14.91-5.03,1.11-.69-.07-.6-.45.31-.3-2.29-.29-1.78.53-4.55.24l1.03-.36c-2.35-.04-2.16.15-3.46.57-1.48.22-4.46-.13-4.81-.63-.32.31-1.6.73-2.99.59-.19-.19.32-.31.57-.37-3.93-.35-5.84.68-8.55.15-.06-.18-.23-.28-.46-.33,3.12,0,5.64,0,5.4.05,0-.51-2.53-.59-.52-1.31-2.02.4-5.48,1.26-7.94,1.05-.12-.05-.24-.1-.33-.17l.25-.06c-.57-.04-1.08,0-1.55.1-.79-.08-1.28-.13-2.04-.13-.3-.42-2.9-.2-4.15-.2.11.56-1.54.49.01.94-.2-.04.24-.07,1.07-.1.19-.02.41-.03.54-.06-.02.01-.05.03-.09.05.83-.02,1.9-.04,3.13-.07-.99.3-2.03.55-3.42.25-.64.37-1.35.75-1.74.93-1.73-.77-5.05-1.14-5.52-1.61-3.84.38-9.05.35-11.44,1.45-1.09.16-1.26-.28-1.67-.43.63-.12,1.38-.12,1.72-.28-2.18.32-6.47.24-6.97.99-2.76-.27,1.53-.71-2.25-.51l.51-.24c-7.47-1.03-12.04,2.18-20.32.88.57.08.86.11.98.23-9.42-.39-19.34,1.23-28.65.54-2.64-.11-2.91.37-4.5.79l-.6-.58-2.72.81c-3.87.68-6.81-1.19-11.71-.01l.65.38c-1.78,0-5.6.5-5.33.02-.18.08-.56.45-1.26.27l-.07-.31-4.33.75c-3.39-.06.47-1.28-4.46-1.1-1.83.21-5.17,1.17-4.47,1.35.74-.02,1.9.1,1.97.42l-1.67.25c-.26.95-1.49,1.96,2.65,2.41l2.83-.71.94.41-2.41.15c1.39.36,2.23-.06,3.19-.37.24.23.65.38,1.22.44l2.77-1.03c.36.35-1.22.78.67.89,1.3-.48-1.3-.75.86-1.13,1.39.36,1.01.72,2.59.28.24.23-.1.4-.73.53,1.42-.36,3.78-.3,4.49-.82,1.45.46,4.82-.34,4.72.54.44-.23,2.49-.8,3.8-.89-2.35,1.16,4.92-.15,4.33,1.01,1.74-1.03,6.4-.67,9.52-1.32-.17.08-.51.25-.79.21,1.77.01,2.3.28,3.44.41.2-.79,2.95-1.07,4.42-1.61,2.2.67-1.29.97-.58,1.67-.13-.64,3.75-.77,2.99-1.27,1.68.41,1.44.18,2.32.8.26-.99,1.54-.22,2.9-.86,2.42.41.65.9,3.28.52,1.26.26-1.07.68-1.07.68ZM121.52,4.5s0,.01,0,.01c-.54.02-1,.04-1.3.05.27-.01.64-.03,1.3-.06ZM126.8,4.45c-.64-.02-1.44-.02-2.29,0-.19-.19.01-.39.54-.39-.29.13.96.24,1.75.39ZM115.59.66c.84-.09,1.12.02,1.23.13-.39.01-.86.04-1.46.08-.02.02-.07.05-.1.07.08-.11.17-.21.33-.29Z"/>
  <path class="cls-1" d="M114.1,1.42c-.12.01-.19.04-.34.04.17.05.33.09.5.12.1-.06.2-.12.29-.18-.15,0-.31,0-.45.01Z"/>
  <path class="cls-1" d="M592.5,6.81l-.11-.02c.09.02.18.05.23.09-.07-.03-.07-.05-.12-.07Z"/>
  <polygon class="cls-1" points="199.68 5.92 199.67 5.78 199.21 5.89 199.68 5.92"/>
  <path class="cls-1" d="M621.47,10.05c.05.05.16.11.37.17-.01-.04-.18-.1-.37-.17Z"/>
  <path class="cls-1" d="M633.99,11l1.76.33c-.76-.17-1.31-.26-1.76-.33Z"/>
  <path class="cls-1" d="M643.59,12c.13-.09.17-.16.21-.22h-.02s-.19.22-.19.22Z"/>
  <path class="cls-1" d="M490.37,11.82c-.13.01-.26.03-.37.05-.87.16-.28.08.37-.05Z"/>
  <path class="cls-1" d="M535.92,8.36c-.48.12-.96.23-1.46.31.81.02,1.45.01,1.46-.31Z"/>
  <path class="cls-1" d="M439.4,15.57s0,0,0-.01c-.11,0-.21,0-.32.02h.31Z"/>
  <path class="cls-1" d="M532.34,8.72c.82.09,1.49.05,2.12-.05-.67-.02-1.45-.05-2.12.05Z"/>
  <path class="cls-1" d="M685.17,16.42l.46.08s.03-.06.07-.08h-.52Z"/>
  <path class="cls-1" d="M685.69,16.41h.52c-.24-.03-.44-.05-.52,0Z"/>
  <path class="cls-1" d="M687.31,16.4h-1.1c.37.06.83.13,1.1,0Z"/>
  <path class="cls-1" d="M672.51,14.72l-.17.19c.08-.03.14-.09.17-.19Z"/>
  <path class="cls-1" d="M668.64,14.37c.92.14,2.26.67,3.56.69l.14-.15c-.64.23-2.79-.79-3.7-.54Z"/>
  <path class="cls-1" d="M652.74,10.3l3.23.45c-.55-.27-1.27-.63.21-.54-4.04-1.02.8.56-3.45.09Z"/>
  <path class="cls-1" d="M642.69,9.14c1.75.03,0-.32.11-.43-1.12.11-1.4.14-.11.43Z"/>
  <path class="cls-1" d="M569.7,5.9l.18-.51c-1.35.07-.01.2-.18.51Z"/>
  <polygon class="cls-1" points="555.75 8.54 557.06 8.85 557.68 8.37 555.75 8.54"/>
  <polygon class="cls-1" points="547.47 4.98 548.05 4.9 545.8 5.12 547.47 4.98"/>
  <path class="cls-1" d="M425.02,11.16l.42.62c.91-.14,1.08-.85-.42-.62Z"/>
  <path class="cls-1" d="M372.27,11.15c-.56-.35-2.03-.65-2.96-.39,1.18.12,2.35.44,2.96.39Z"/>
  <polygon class="cls-1" points="213.82 1.17 214.89 .98 212.88 1.11 213.82 1.17"/>
</svg>