<?xml version="1.0" encoding="UTF-8"?>
<svg id="Layer_1" data-name="Layer 1" xmlns="http://www.w3.org/2000/svg" viewBox="0 0 591.94 490.96">
  <defs>
    <style>
      .cls-1 {
        fill: #fff;
      }

      .cls-2 {
        fill: #252525;
      }
    </style>
  </defs>
  <path class="cls-1" d="M178.8,31.7c.78-.35,1.4-.63,1.77-.77.7-.24,1.34-.46,1.92-.66,1.17-.41,2.12-.69,2.84-.93,1.45-.47,2.05-.66,2.03-.72-.01-.05-.63.06-1.59.27-.95.25-2.27.54-3.64.96-.34.1-.69.2-1.05.31-.35.11-.73.21-.9.27-.41.13-1.05.39-1.63.63-1.21.51-2.31,1-2.99,1.3-.68.3-.94.42-.51.22.41-.19,1.55-.73,3.48-1.56,1.28-.58,1.73-.76,3.2-1.24,1.25-.43,2.51-.8,3.77-1.19,2.53-.73,5.08-1.4,7.66-1.96,5.16-1.11,10.41-1.87,15.8-2.31,2.69-.23,5.42-.39,8.22-.54,2.7-.14,5.38-.21,8.06-.21,5.35.03,10.69.41,16.12,1.07-6.67-.77-11.21-.87-14.34-.81-3.12.06-4.81.27-5.63.46-1.64.37.19.71.91.96.36.13.45.23-.29.32-.75.08-2.29.13-5.33.23-3.13.14-7.61.2-13.88.8-3.13.31-6.72.78-10.8,1.57-2.04.39-4.2.88-6.5,1.47-1.14.31-2.32.61-3.53.98-1.45.42-1.83.52-3.14,1.07Z"/>
  <path class="cls-1" d="M277.97,26.95c3.96.75,7.99,1.58,11.54,3.23.95.56,1.92,1.26,2.77,2.14.86.88,1.59,1.94,2.3,3.03,1.38,2.2,2.44,4.8,3.07,7.46,1.3,5.35.77,10.88-.26,14.78-.48,1.98-1.18,3.53-1.7,4.63-.24.56-.47.99-.68,1.29-.2.3-.33.48-.4.52-.15.08.02-.37.42-1.52.17-.59.42-1.34.73-2.29.25-.97.55-2.14.78-3.55.67-2.78,1-5.68.85-8.64-.04-1.49-.27-2.97-.55-4.48-.36-1.49-.75-3.01-1.41-4.48-.64-1.49-1.37-2.88-2.38-4.23-.94-1.38-2.18-2.63-3.71-3.57-2.97-1.84-6.99-3.12-11.37-4.3Z"/>
  <path class="cls-2" d="M204.09.42c2.28-.15,4.53-.24,6.73-.3l3.26-.07,3.22-.04c4.52-.04,9.15.1,13.75.47-3.47-.22-6.51-.21-9.4-.1-1.45.05-2.86.14-4.27.24-1.46.1-2.65.21-4.11.33-2.81.24-5.93.52-9.64.91-3.71.39-8.01.91-13.18,1.78,4.5-1.3,9.09-2.37,13.63-3.22Z"/>
  <path class="cls-2" d="M308.1,218.34c-2.49.1-6.01.41-12.3,1.5,1.19-.89,3.73-1.96,8.78-3.19,5-1.18,12.84-2.52,25.05-2.65,5.44.23,12.63.81,20.18,1.93,7.54,1.15,15.4,2.84,22.17,4.86,6.8,2.01,12.57,4.24,16.11,5.8,3.54,1.58,4.88,2.43,2.86,1.93-1.71-.69-3.42-1.36-5.14-2,.37.71,6.56,3.73,15.28,8.75,4.36,2.51,9.35,5.56,14.57,9.04,2.61,1.74,5.27,3.59,7.91,5.52,2.66,1.94,5.17,3.88,7.75,6.02,2.52,1.6-.19-1.49-1.03-2.99-.42-.75-.35-1.14,1.14-.36,1.47.79,4.42,2.72,9.46,7.08,6.1,5.69,12.02,12.19,17.45,19.23,2.72,3.53,5.41,7.32,8.28,11.23,2.85,3.9,5.85,7.79,8.86,11.52,1.51,1.87,3.02,3.7,4.54,5.51,1.5,1.79,3.09,3.66,4.84,5.54,3.49,3.79,7.93,7.51,12.53,10.13.53.3,1.05.6,1.57.9.54.29,1.07.58,1.61.87,1.11.58,2.24,1.14,3.42,1.66,2.34,1.04,4.79,1.94,7.32,2.6,5.07,1.33,10.45,1.77,15.66.95,3.28-.77,6.62-2.2,9.32-3.93,2.74-1.72,4.93-3.63,6.84-5.47,3.78-3.7,6.65-7.25,9.57-10.72,6.16-6.08,11.5-11.31,15.84-16.63,4.34-5.3,7.52-10.46,9.96-15.34,2.45-4.88,4.38-9.73,5.87-15.07,1.51-5.32,2.53-11.19,3.17-17.67-.13,6.38-.67,13.34-2.2,20.25,1.17-3.62,1.81-5.58,2.41-7.24.6-1.66,1.13-3.03,1.74-5.51.6-2.45,1.21-6.11,1.74-11.65.25-2.74.59-6.14.7-10.77.1-4.59-.08-10.5-1.49-17.34-.53-2.27-1.15-4.37-1.8-6.36-.66-1.99-1.39-3.92-2.14-5.69-1.52-3.56-3.05-6.43-4.42-8.95-2.77-5.02-5.02-8.95-7.61-13.56-1.3-2.28-2.68-4.7-4.41-7.45-.87-1.37-1.85-2.84-2.98-4.38-1.12-1.52-2.44-3.19-3.8-4.66-5.34-6.01-12.87-12.27-23.32-17.32-3.03-1.66-6.3-3.18-9.61-4.53-1.66-.67-3.24-1.28-4.82-1.88-1.63-.62-3.35-1.26-5.22-1.88-3.73-1.24-7.99-2.44-12.78-3.05-4.75-.65-9.99-.6-15.09.25-1.25.23-2.65.49-3.54.7-1.09.25-2.23.51-3.45.85-2.41.66-4.98,1.53-7.57,2.71-2.59,1.18-5.23,2.68-7.74,4.58-2.5,1.9-4.9,4.19-6.9,6.84-3.97,5.22-6.6,11.81-7.2,18.19-.39,3.2-.27,6.29.05,9.27.33,2.99.95,5.82,1.78,8.56.42,1.37.89,2.72,1.42,4.07.27.68.56,1.36.88,2.06.32.72.69,1.41,1.05,2.08.73,1.35,1.45,2.7,2.35,3.96l1.31,1.9c.47.61.96,1.2,1.45,1.79,1.94,2.4,4.18,4.46,6.48,6.37,2.36,1.8,4.79,3.48,7.33,4.8,2.53,1.34,5.11,2.49,7.75,3.39,2.64.9,5.34,1.65,8.32,2.11,5.7.91,11.54.84,17.05-.25,5.53-1.04,10.72-3.02,15.43-5.64,2.34-1.34,4.6-2.8,6.69-4.47,2.11-1.64,4.07-3.47,5.88-5.44,3.63-3.94,6.51-8.42,8.58-12.98,2.09-4.55,3.39-9.24,4.18-13.57.12-1.1.22-1.96.29-3.19.07-1.16.19-2.32.19-3.52,0-1.2.02-2.42-.02-3.65-.08-1.23-.15-2.48-.26-3.74-.5-5.04-1.75-10.12-3.45-14.89-1.7-4.79-3.82-9.29-6.07-13.62-2.25-4.33-4.63-8.52-7.01-12.69-2.38-4.13-4.74-8.37-7.48-12.88-2.72-4.48-5.82-9.14-9.37-13.59-7.14-8.94-15.77-16.66-25.18-22.92-4.68-3.13-9.58-5.86-14.24-8.23-1.15-.58-2.29-1.15-3.43-1.73-1.2-.6-2.41-1.18-3.62-1.74-2.42-1.12-4.85-2.18-7.29-3.15-4.87-1.95-9.75-3.61-14.47-4.99-2.35-.69-4.66-1.32-6.83-1.9-2.17-.58-4.36-1.16-6.59-1.71-4.45-1.1-9.15-2.07-13.74-2.59-2.29-.27-4.54-.43-6.71-.51-1.13-.05-2.04-.06-2.99-.08-.97-.01-1.93-.02-2.88-.03-3.85-.01-7.76.12-11.55.64-3.78.51-7.38,1.39-10.53,2.57-3.5.94-6.84,2.27-9.87,3.86-2.97,1.52-5.77,3.37-8.28,5.36-5.03,3.99-9.11,8.78-12.02,13.95-.38.63-.71,1.29-1.04,1.95-.32.64-.69,1.37-.89,1.83-.49,1.05-1.03,2.25-1.53,3.53-.26.63-.5,1.31-.74,1.99l-.38,1.17-.33,1.18c-.41,1.57-.73,3.15-.9,4.71-.33,3.13-.2,6.23.47,9.12.38,1.44.7,2.87,1.29,4.2.27.67.53,1.34.83,1.98.34.63.67,1.25,1.01,1.87l.52.91.58.86c.4.57.8,1.13,1.19,1.69.86,1.06,1.73,2.11,2.65,3.04.96.93,1.76,1.72,2.67,2.44.44.36.88.73,1.32,1.07.45.32.89.64,1.33.96,3.54,2.48,7,4.12,10.4,5.44.84.33,1.73.63,2.49.88.73.24,1.6.51,2.44.74,1.69.47,3.39.86,5.1,1.12,3.4.56,6.81.68,10.14.39,3.33-.3,6.58-1.04,9.59-2.2,3.01-1.18,5.75-2.74,8.22-4.56,2.45-1.87,4.61-4.01,6.45-6.35,1.85-2.34,3.32-4.89,4.52-7.54,2.38-5.33,3.62-11.08,3.48-17.42-.06-3.11-.62-6.72-1.86-10.08-1.24-3.37-2.94-6.22-4.63-8.92-4.39-7.94-6.96-12.6-8.15-14.74-1.23-2.24-.78-2.01.83-.04,1.62,1.98,4.18,5.69,7.15,10.22,1.51,2.33,3.24,4.92,5,8.41.87,1.74,1.73,3.76,2.39,6.01.66,2.24,1.06,4.67,1.19,6.94.16,2.28.06,4.51-.14,6.73-.27,2.21-.63,4.4-1.24,6.54-1.12,4.29-3.02,8.39-5.46,12.02-2.44,3.64-5.5,6.76-8.7,9.1-3.2,2.34-6.51,3.94-9.47,5-2.97,1.09-5.55,1.55-7.48,1.89-.96.14-1.77.25-2.39.34-.62.07-1.06.13-1.31.2-.5.12-.21.26,1.03.38,1.24.07,3.47.15,6.86-.4,4.62-.94,9.15-2.79,13.13-5.4,4.01-2.6,7.48-6.04,10.18-9.84,2.7-3.81,4.72-7.97,6-12.28,1.28-4.32,2.01-8.76,1.91-13.47-.02-2.32-.3-4.9-.88-7.41-.57-2.51-1.43-4.88-2.34-6.91-1.85-4.08-3.73-7.09-5.47-10.02l-2.62-4.3c-.89-1.45-1.84-2.95-2.81-4.46-1.97-3.02-4.16-6.11-6.61-9.12-2.45-3.01-5.2-5.93-8.21-8.61-1.51-1.34-3.07-2.63-4.69-3.84-1.53-1.16-3.52-2.52-5.44-3.61-3.89-2.21-7.81-3.75-11.47-4.96-3.67-1.19-7.16-2.11-10.57-2.95-6.83-1.66-13.32-3.04-19.93-4.5-6.62-1.42-13.45-2.97-21.08-3.84-3.8-.43-7.75-.65-11.65-.58l-2.91.09-2.88.18c-1.88.13-4.27.43-5.97.71l-4.88.76-4.85.68c-3.26.44-6.56.85-9.85,1.25l-9.93,1.14c-1.71.2-3.4.37-5.5.68-2.09.29-4.7.91-6.45,1.44-3.29.94-7.16,2.12-10.99,3.8-3.85,1.66-7.75,3.88-11.31,6.71-.88.73-1.77,1.43-2.59,2.23l-1.25,1.18-1.18,1.25c-.8.82-1.5,1.73-2.24,2.6-.39.47-.64.81-.98,1.26-.32.43-.64.88-.96,1.34-2.54,3.67-4.66,7.77-6.03,12.25-.68,2.23-1.22,4.54-1.5,6.9-.18,1.17-.22,2.36-.31,3.54l-.02,1.78v.89s.02.76.02.76c.17,4.38.92,8.91,2.59,13.45.44,1.14.9,2.27,1.47,3.4.26.56.56,1.12.89,1.68.32.55.65,1.16,1.02,1.71,1.47,2.24,3.18,4.32,5.15,6.12,3.91,3.65,8.83,6.13,14.01,7.34.64.17,1.33.26,1.98.38.63.1,1.27.22,1.88.26l1.86.16c.62.04,1.21.03,1.81.05,1.22.04,2.36-.06,3.53-.12,1.12-.12,2.27-.22,3.35-.42,2.19-.34,4.27-.83,6.23-1.4.98-.28,1.94-.59,2.84-.89l1.28-.44c.45-.16.93-.33,1.44-.52,3.94-1.72,6.27-3.3,7.71-4.37,1.44-1.08,1.96-1.7,2.01-1.97.1-.53-1.71.23-2.55.31-.42.05-.59-.03-.18-.46.42-.42,1.44-1.19,3.29-2.68,1.83-1.5,4.55-3.78,7.75-7.81,1.51-2.08,3.25-4.53,4.63-7.67.18-.39.38-.78.55-1.18.16-.41.31-.83.47-1.25.3-.85.67-1.72.93-2.64.58-1.83.99-3.79,1.34-5.88-.69,5.56-1.69,8.21-1.52,8.75.06.27.33,0,.77-.73.46-.73,1.02-1.93,1.59-3.53,1.13-3.2,2.23-8,2.1-13.75-.06-2.87-.47-5.99-1.33-9.17-.44-1.59-.98-3.2-1.68-4.79-.32-.82-.71-1.54-1.15-2.4-.43-.88-.95-1.66-1.46-2.47.55.88,1.07,1.7,1.47,2.54.41.83.76,1.47,1.03,2.15.27.66.52,1.28.75,1.84.19.57.36,1.1.52,1.57.33.96.5,1.74.64,2.35.14.62.25,1.07.28,1.38.14,1.24-.11.18-.8-1.82-.31-1-.82-2.24-1.37-3.53-.31-.64-.62-1.3-.94-1.96-.35-.65-.72-1.28-1.13-1.99-1.63-2.67-3.45-4.71-4.13-5.3.61.74,1.17,1.53,1.73,2.31.55.79,1.04,1.62,1.53,2.44.49.83.91,1.75,1.29,2.51.37.81.68,1.62,1.02,2.44,1.23,3.28,1.93,6.63,2.23,9.94-.34,1.82-.71,1.66-1.11.03-.48-1.63-1.01-4.8-2.65-8.98-.21-.52-.46-1.05-.7-1.6-.23-.55-.51-1.11-.82-1.68-.61-1.23-1.4-2.45-2.24-3.7-.9-1.21-1.83-2.5-3.01-3.65-1.16-1.16-2.53-2.2-4.03-3.11-.74-.47-1.54-.88-2.35-1.3-.78-.4-1.79-.82-2.46-1.12-.73-.28-1.48-.59-2.22-.86-.73-.25-1.48-.51-2.23-.77-2.97-.97-5.98-1.77-9.08-2.54-3.08-.74-6.25-1.46-9.45-2.1-3.16-.62-6.37-1.26-9.6-1.9-6.47-1.24-13.17-2.47-19.92-3.22-6.75-.76-13.47-.94-19.52-.69-5.85.22-11.42.67-16.17,1.43-4.41.17-5.36.2-4.21-.06,1.14-.24,4.36-.66,8.2-.96,3.85-.31,8.26-.47,11.81-.65,3.69-.19,6.66-.29,7.41-.6-.36-.88-5.02-2.03-15.82-2.28-5.53-.07-12.97.14-22.35,1.86-2.34.44-4.8.95-7.35,1.61-1.28.31-2.59.67-3.92,1.06-.35.1-.69.2-1.04.3-.46.15-1.03.33-1.48.5-.92.33-1.62.61-2.35.91-2.77,1.13-5.31,2.26-7.99,3.47-2.64,1.21-5.39,2.47-8.26,3.79-5.52,2.8-10.94,5.55-16.27,8.25-2.7,1.37-5.41,2.74-8.23,4.26-2.81,1.53-5.82,3.22-8.97,5.49-1.56,1.14-3.11,2.4-4.51,3.69-1.43,1.3-2.63,2.58-3.85,3.89-2.4,2.65-4.55,5.46-6.46,8.4-1.91,2.94-3.57,6-5,9.17-.7,1.56-1.38,3.27-1.92,4.81-.53,1.48-1.07,3.12-1.54,4.76-1.88,6.61-2.78,13.66-2.29,20.72.13,1.76.31,3.52.6,5.26.12.88.29,1.74.48,2.6.18.84.38,1.81.54,2.42.66,2.75,1.52,6.02,2.77,9.33,1.25,3.32,2.96,6.83,5.4,10.22,2.42,3.38,5.68,6.61,9.53,9.01,3.8,2.41,8.16,3.97,12.54,4.68,4.38.71,8.69.53,12.62-.17,3.94-.71,7.53-1.91,10.89-3.39,1.69-.73,3.3-1.56,4.89-2.46.78-.44,1.62-.95,2.32-1.4l1.01-.65,1.07-.71,1.09-.76.66-.48.74-.56c.92-.73,1.86-1.45,2.72-2.24l1.31-1.17,1.25-1.24c.86-.81,1.59-1.71,2.36-2.59,2.97-3.59,5.25-7.67,6.48-12.07.33-1.09.49-2.23.73-3.35.08-1.14.25-2.28.26-3.42-.02-1.15.08-2.31-.15-3.44l-.24-1.71-.37-1.69c-1.01-4.52-3.31-8.71-6.39-12.37-3.09-3.66-7.02-6.78-11.35-9.32l-1.63-.92-1.24-.65c-.17-.09-.4-.2-.64-.32l-.71-.34-1.43-.67c-1.94-.84-3.94-1.57-6-2.16-4.11-1.17-8.36-1.73-12.36-1.8-4.02-.08-7.81.27-11.34.78-3.53.51-6.81,1.17-9.88,1.81-1.64.34-3.48.77-5.2,1.21-1.73.45-3.45.95-5.16,1.47-6.81,2.12-13.46,4.85-20.01,8.13-6.52,3.32-12.92,7.22-19.07,11.74,1.34-.51.51.36-1.55,2.04-1.88,1.62-5.18,4.07-9.19,7.5-4,3.39-8.61,7.87-12.54,12.91-3.95,5.03-7.14,10.5-9.31,15.26,1.27-3.06,2.18-4.96,2.56-5.98.4-1.01.29-1.13-.26-.53-1.06,1.19-3.81,5.34-6.43,11.29-1.31,2.96-2.59,6.36-3.69,9.87-.55,1.75-1.06,3.53-1.54,5.26-.22.84-.45,1.68-.68,2.52-.24.92-.48,1.9-.7,2.85-1.76,7.59-2.66,15.03-3.03,21-.04,1.82-.04,3.54,0,5.19.04,1.58.1,2.88.16,4.29.13,2.73.29,5.31.54,7.91.25,2.6.57,5.2,1.06,7.97.49,2.76,1.17,5.7,2.21,8.78.28.76.56,1.54.84,2.32.32.77.63,1.56.97,2.34.36.77.71,1.57,1.1,2.34.2.38.4.77.6,1.16l.31.59.27.49c.72,1.29,1.58,2.82,2.56,4.38.97,1.57,2.08,3.22,3.37,4.93,2.61,3.39,5.85,7.18,10.81,10.68,2.42,1.77,5.37,3.36,8.67,4.64.84.3,1.69.59,2.56.88.88.26,1.79.45,2.7.67.46.1.92.2,1.39.31.47.07.95.14,1.42.2.96.14,1.93.26,2.92.29-7.05-.82-13.92-3.88-18.9-8.16-5.09-4.23-8.5-9.25-11.07-14.2-.6-1.01-1.27-2.18-1.95-3.49-.35-.66-.69-1.34-1.04-2.05-.16-.34-.33-.68-.5-1.03-.19-.42-.39-.84-.58-1.27-1.59-3.45-3.06-7.98-3.77-12.71-.76-4.75-.9-9.48-.97-14.14-.01-2.28-.03-4.62-.04-6.99,0-2.43.03-5.07.16-7.64.24-5.19.76-10.45,1.61-15.72.21-1.32.45-2.63.71-3.96.27-1.26.53-2.51.79-3.76.53-2.44,1.13-4.98,1.82-7.48,1.38-5.01,3.15-9.9,5.22-14.31,2.07-4.41,4.4-8.36,6.73-11.71,1.82-1.84,4.73-5.25,8.87-9.11,4.09-3.9,9.49-8.1,14.97-12.09,5.79-4.33,12.65-8.7,20.02-12.51,7.4-3.8,15.33-7.08,23.47-9.38,2.03-.59,4.11-1.1,6.15-1.55,1.86-.4,3.72-.81,5.67-1.19,3.84-.76,7.91-1.36,12.03-1.53,4.11-.19,8.31.13,12.18.99,3.87.85,7.34,2.2,10.21,3.7.65.34,1.14.61,1.98,1.08.77.44,1.51.89,2.2,1.34.7.44,1.35.91,1.97,1.34.6.46,1.17.91,1.72,1.33,2.14,1.76,3.6,3.39,4.56,4.63.92,1.26,1.38,2.09,1.37,2.42-.01.33-.43.1-1.39-.61-2.55-3.2-5.82-5.92-9.41-8.18-.45-.29-.9-.56-1.36-.83l-1.3-.74c-.39-.22-.67-.38-1.1-.59l-1.25-.62c-.82-.43-1.68-.8-2.55-1.14l-1.3-.52-1.33-.44c-4.92-1.62-9.89-2.09-14.39-2.04-4.49.1-8.6.67-12.3,1.35-1.86.34-3.64.71-5.33,1.07-.82.17-1.81.39-2.7.6-.92.21-1.81.45-2.71.69-3.56.97-6.94,2.09-10.19,3.32-12.96,4.98-23.9,11.72-33.54,19.55-4.53,3.7-9.38,7.75-13.8,12.54-4.43,4.78-8.4,10.28-11.52,16.32-3.16,6.03-5.52,12.65-7.19,19.53-.42,1.72-.8,3.45-1.16,5.18-.17.85-.34,1.71-.52,2.58-.17.9-.34,1.8-.51,2.71-.64,3.66-1.12,7.39-1.46,11.25-.42,3.09-.73,6.06-.94,8.93-.11,1.43-.19,2.84-.26,4.22-.06,1.33-.12,2.64-.18,3.92-.22,5.12-.43,9.97-.16,14.83.27,4.86,1.28,9.77,2.9,14.03.21.53.42,1.05.63,1.57.2.47.4.94.59,1.41.41.94.84,1.89,1.29,2.82.9,1.87,1.92,3.69,3.02,5.45,2.24,3.49,4.87,6.8,8.24,9.62,3.34,2.81,7.41,5.13,11.94,6.45,4.5,1.36,9.47,1.7,14.36.95,2.44-.37,4.87-.99,7.25-1.86,2.4-.89,4.7-1.94,7.13-3.46.36-.24.76-.51,1.12-.78.31-.23.62-.46.93-.69.62-.47,1.23-.97,1.81-1.48,1.17-1.02,2.27-2.07,3.29-3.2,2.06-2.26,3.77-4.63,5.23-7.47,1.42-2.76,2.34-5.61,2.82-8.4.14-.7.24-1.39.29-2.08.05-.69.14-1.37.14-2.05-.01-1.35,0-2.68-.18-3.97-.24-2.59-.95-4.99-1.75-7.23-.88-2.2-1.96-4.31-3.08-5.97-2.26-3.44-4.8-6.04-7.37-8.17-2.59-2.12-5.23-3.77-8.03-5.11-2.8-1.35-5.87-2.3-8.92-2.83-6.18-1.1-12.36-.28-18.13,1.52-2.44.72-4.64,1.55-6.65,2.37-.97.41-1.93.82-2.88,1.21-.91.4-1.81.79-2.7,1.18-3.78,1.67-7.34,3.6-10.54,5.67-3.22,2.08-6.11,4.34-8.73,6.73-2.57,2.45-4.88,4.98-6.84,7.66-1,1.32-1.85,2.73-2.72,4.07-.76,1.42-1.58,2.78-2.22,4.2-1.31,2.84-2.4,5.68-3.16,8.61-1.55,5.84-1.86,11.81-1.4,17.44.46,3.45.8,4.65.91,4.9.12.24.06-.5.03-1.28-.04-.77-.07-1.53.04-1.28.12.24.35,1.59,1.02,4.72.68,3.79,1.65,8.48,3.09,12.75,1.43,4.32,3.22,8.53,5.3,12.39,2.05,3.87,4.4,7.46,6.62,10.5,1.04,1.45,2.27,3.03,3.4,4.44,1.17,1.41,2.31,2.74,3.45,3.94.78.38.7-.14-.08-1.37-.4-.61-.95-1.42-1.63-2.41-.7-.97-1.5-2.15-2.41-3.48-3.42-5.02-9.02-13.3-12.64-24.05-.9-2.68-1.72-5.5-2.34-8.42l-.24-1.09-.2-1c-.14-.69-.27-1.38-.41-2.07-.26-1.43-.54-2.89-.75-4.42-.94-6.08-1.06-13.1.54-19.78,1.54-6.67,4.72-12.83,8.66-17.9.47-.66,1.01-1.24,1.52-1.84.53-.59,1.02-1.2,1.57-1.75,1.1-1.09,2.16-2.2,3.3-3.15,2.23-2,4.55-3.67,6.83-5.15-1.15.81-2.15,1.63-3.07,2.37-.9.79-1.73,1.5-2.49,2.23-.75.75-1.46,1.44-2.14,2.16-.66.74-1.32,1.48-1.99,2.24-.64.8-1.29,1.62-2,2.5-.69.89-1.35,1.91-2.12,2.99-.72,1.11-1.47,2.37-2.27,3.76-.71,1.45-1.6,3-2.29,4.86-1.32,3.16-1.83,5.53-2.26,7.18-.39,1.67-.6,2.66-.76,3.3-.34,1.27-.48,1.11-.71,2.18-.39,4.64,0,9.22.72,13.48.36,2.13.8,4.19,1.25,6.16l.34,1.46.4,1.58c.25,1.05.56,2.09.87,3.13.46.17.62-1.09,1.97,1.61.68,1.34,1.67,3.66,3.53,7.44,1.85,3.76,4.76,9.02,9.64,15.49,3.37,5.46,7.46,10.72,12.06,15.46,3.1,2.75,6.29,5.18,9.45,7.32,3.17,2.14,6.32,3.96,9.22,5.59,5.96,3.39,12.01,5.94,17.35,7.41,5.36,1.49,10.01,2.12,13.62,2.33,3.62.21,6.21.04,7.6-.16,1.31-.21,1.51-.43.46-.66-1.06-.24-3.54-.44-7.38-1.04-3.84-.61-9.15-1.6-15.7-3.99-3.27-1.2-6.83-2.76-10.59-4.78-1.88-1-3.8-2.12-5.77-3.28-1.98-1.17-4.07-2.44-6.19-3.86-2.27-.87-4.53-1.82-6.77-2.88-5.14-4.24-9.79-9.07-13.83-14.32-2-2.68-3.85-5.27-5.61-8.1-1.75-2.8-3.36-5.71-4.74-8.72-1.39-3.01-2.57-6.11-3.52-9.28-.48-1.58-.89-3.18-1.26-4.79l-.51-2.42-.44-2.36c-1.17-6.32-1.86-13.11-.61-19.69.43-1.58.79-2.15.88-1.99.12.17.03,1.07-.06,2.51-.25,2.86-.28,7.9.69,13.19.98,5.26,2.38,10.86,4.03,15.03,1.64,4.17,3.31,6.91,3.74,6.96.81,1.12,1.09,1.17.93.38-.15-.79-.74-2.42-1.47-4.75-.74-2.33-1.63-5.37-2.34-8.97-.36-1.76-.71-3.83-1.05-5.86-.32-2.06-.6-4.19-.73-6.37-.28-4.36.08-8.95,1.44-13.34,1.37-4.39,3.58-8.57,6.44-12.12,2.86-3.56,6.34-6.46,9.81-8.8,3.52-2.31,7.01-4.02,10.21-5.32,3.34-1.6,5.5-2.57,6.79-3.14,1.29-.58,1.68-.79,1.36-.8-.32,0-1.36.23-2.95.74-1.58.5-3.76,1.33-6.26,2.33-2.45,1-5.17,2.28-7.9,3.91-2.72,1.63-5.46,3.6-7.88,5.87-2.44,2.26-4.55,4.81-6.23,7.39-1.74,2.55-2.85,5.23-3.76,7.53.91-3.22,2.22-6.36,3.96-9.3,1.73-2.95,3.92-5.66,6.39-8.13,2.47-2.47,5.24-4.68,8.2-6.64,2.96-1.96,6.14-3.61,9.34-5.18,2.7-1.17,5.8-2.32,9.01-3.06,3.21-.71,6.51-.98,9.37-.63,2.86.34,5.22,1.15,6.73,1.94,1.53.75,2.28,1.38,2.07,1.48,1.37.84,2.29,1.56,2.92,2.17.63.6.98,1.05,1.17,1.42.39.72.22,1.02.3,1.49.05.49.42,1.08,1.58,2.53.57.73,1.33,1.68,2.21,3.01.9,1.35,1.83,3.01,2.53,5.32.87,3.37.53,6.52-.37,9.02-.42,1.27-1.03,2.35-1.62,3.36-.62,1.02-1.32,1.92-1.98,2.73-1.38,1.61-2.71,2.81-3.91,3.78-1.09.88-2.15,1.54-2.98,2.05-1.69,1.01-2.61,1.5-3.02,1.83-.41.34-.34.51-.18.66.16.15.4.28.28.53-.12.25-.61.63-1.96,1.17-1.35.51-3.63,1.24-7.33,1.17-1.84-.04-4.04-.32-6.48-1.18-2.45-.84-5.14-2.27-7.78-4.53,1.2,1.51,3.56,3.81,7.46,5.51.49.2.99.44,1.52.62.54.16,1.09.33,1.66.49.57.19,1.17.29,1.78.41.31.06.62.11.93.17.32.03.64.06.96.1,2.6.26,5.48.1,8.42-.6,2.94-.72,5.94-1.9,8.82-3.71,2.85-1.86,5.5-4.2,7.71-7.17,2.18-2.98,3.91-6.69,4.28-10.67.15-.99.1-2,.12-3.01-.02-.5-.09-1.01-.14-1.51l-.08-.76-.15-.75c-.35-2.01-1.08-3.96-1.99-5.83-1.84-3.68-4.53-6.82-7.63-9.38-3.09-2.57-6.7-4.6-10.67-5.76-.98-.33-1.99-.48-2.99-.7-1.01-.12-2.02-.3-3.03-.32-2.02-.14-4.01,0-5.93.24-3.86.51-7.42,1.61-10.68,2.8-1.64.6-3.18,1.22-4.7,1.82-1.53.61-3.08,1.27-4.54,1.98-2.95,1.4-5.67,2.96-8.13,4.61-4.93,3.28-8.71,6.99-11.35,10.22-2.81,3.72-5.02,7.93-6.53,12.37-1.48,4.45-2.22,9.18-2.17,13.82-.17,1.48-.26,1.89-.39,1.55-.13-.34-.24-1.44-.28-2.98-.07-3.08.52-7.96,1.72-11.66,1.16-3.7,2.46-6.3,2.07-5.6-.24.33-.73,1.55-1.74,3.94-.89,2.41-2.12,6.17-2.59,11.64.27-9.09,3.9-18.67,10.3-26.25,3.18-3.78,6.94-7.11,11.07-9.84,2.05-1.4,4.2-2.61,6.4-3.75,2.19-1.13,4.5-2.12,6.6-2.99,4.29-1.79,9.13-3.65,14.54-4.41,2.7-.38,5.54-.48,8.39-.15,2.84.33,5.69,1.04,8.31,2.19,2.63,1.12,4.99,2.55,7.18,4.21,2.18,1.66,4.17,3.57,5.93,5.74,1.75,2.18,3.24,4.58,4.36,7.35,1.1,2.72,1.71,5.62,1.77,8.52.08,2.9-.42,5.79-1.39,8.47-.96,2.68-2.46,5.21-4.09,7.29-1.65,2.12-3.53,3.93-5.54,5.52-.52.41-.99.75-1.53,1.14-.57.4-1.13.75-1.68,1.08-1.11.66-2.24,1.24-3.39,1.75-4.58,2.06-9.63,3.09-14.59,2.74-4.96-.27-9.66-2.11-13.48-4.67-1.89-1.32-3.63-2.76-5.11-4.36-1.52-1.57-2.83-3.24-3.98-4.95-2.34-3.41-4.02-6.94-5.44-10.38-1.45-3.54-2.29-7.19-2.66-10.62-.39-3.44-.38-6.65-.32-9.65.43-.21.82-3.6,1.32-7.88.45-4.29,1.09-9.52,1.94-13.37.82-3.86,1.71-6.37,2.07-5.46.19.45.26,1.76.27,4.19.02,2.42-.04,5.97.14,10.89.16-5.16.69-9.66,1.4-13.91.36-2.12.77-4.19,1.25-6.23.46-2.05,1.02-4.03,1.62-6.2,1.19-4.25,2.51-8.56,4.49-13.29,2-4.7,4.63-9.85,8.71-15.29,2.66-3.76,5.72-7.07,8.96-10.07,3.26-2.98,6.73-5.75,10.15-8.36,3.33-2.58,6.74-4.85,10.11-6.95,3.41-2.04,6.81-3.88,10.21-5.5,6.82-3.19,13.61-5.59,20.29-7.13,1.64-.37,3.4-.72,5.1-1.05,1.7-.33,3.37-.62,5.02-.88,3.29-.48,6.5-.75,9.58-.64,3.08.14,6.03.67,8.81,1.65.69.27,1.37.54,2.05.83.68.34,1.3.61,2.03,1.01.36.2.69.37.96.53.29.17.57.33.85.51.56.35,1.12.71,1.65,1.1,2.14,1.53,4.1,3.39,5.39,5.73.66,1.15,1.09,2.44,1.26,3.77.13.66.07,1.34.07,2.01-.1.67-.15,1.35-.37,2-.36,1.31-.97,2.56-1.75,3.7-.77,1.14-1.68,2.21-2.69,3.18-1.01.97-2.11,1.87-3.26,2.71-.7.5-1.4.98-2.18,1.49-.76.5-1.45.91-2.22,1.35-6,3.37-13.38,5.38-19.55,2.72.41.19.75.36,1.03.51.29.14.54.21.72.29.37.16.51.26.49.32-.03.06-.23.07-.55.05-.33-.02-.79-.05-1.29-.21-1.03-.24-2.34-.68-3.41-1.26-.27-.14-.54-.27-.79-.4-.24-.15-.46-.29-.67-.41-.42-.25-.76-.44-.96-.56-3.75-3.67-5.45-8.34-6.57-12.39-.29-1.02-.52-2.02-.74-3-.23-.98-.43-1.95-.57-2.77-.07-.42-.15-.84-.22-1.24-.05-.41-.09-.81-.14-1.19-.11-.77-.14-1.51-.18-2.22-.22-5.64.72-8.84,1.32-10.49,1.36-3.29,1.76-.73,2.35.63.29.69.63,1.12,1.03.53.44-.59.87-2.19,2.02-5.51.29-.84.64-1.76,1.08-2.88.44-1.14.88-2.18,1.49-3.44,1.18-2.46,2.81-5.38,5.21-8.5,1.19-1.55,2.62-3.17,4.22-4.74,1.59-1.52,3.19-2.78,5.55-4.22,2.34-1.43,5.27-2.97,8.52-4.61,3.31-1.65,6.84-3.42,10.59-5.29,10.49-5.23,18.44-9.4,22.69-11.69,1.04-.56,1.87-1.01,2.31-1.29.22-.13.32-.23.53-.35.19-.12.37-.23.46-.31.19-.18.15-.28-.16-.3-.15-.01-.38,0-.63.02-.2.01-.41.01-.75.09-.78.26-1.73.64-2.67,1.01-.96.39-1.92.78-2.88,1.17-1.96.82-3.93,1.65-5.93,2.49-4.03,1.71-8.2,3.5-12.65,5.48-4.45,1.98-9.23,4.12-14.26,6.57-2.49,1.24-5.08,2.55-7.46,4.03-2.41,1.49-4.47,3.1-6.55,5.33-.04-.19-1.9,1.35-4.03,3.91-2.17,2.52-4.49,6.13-6.05,9.3-1.57,3.12-2.56,5.92-2.91,6.24-.17.18-.2-.23.03-1.42.12-.58.32-1.43.6-2.43.28-1,.67-2.21,1.23-3.64,3.13-6.48,7.45-11.93,12.14-15.98,2.32-1.97,4.96-3.56,7.68-5.08,2.73-1.5,5.5-2.91,8.2-4.29,10.89-5.47,20.69-10.62,30.15-15.29,1.18-.57,2.36-1.13,3.49-1.62.58-.25,1.04-.43,1.69-.64l1.83-.62c2.45-.79,4.91-1.53,7.4-2.15,4.98-1.27,10.08-2.18,15.35-2.76,5.25-.57,10.74-.84,16.39-.95,5.64-.07,11.49.24,17.63,1.08,5.4.25,10.84.75,16.28,1.31,4.76.89,11.3,1.87,18.72,3.42,3.71.78,7.65,1.7,11.62,3.02,1.98.69,3.94,1.46,5.79,2.56.91.57,1.78,1.22,2.54,1.99.78.76,1.4,1.66,2.07,2.52,2.5,3.61,3.97,7.96,4.47,12.35.49,4.4.06,8.85-1.11,12.94-1.22,4.07-3.18,7.79-5.69,10.75-2.5,2.97-5.39,5.25-8.22,6.94-2.03,1.27-4.04,2.27-5.97,3.06-1.93.78-3.8,1.36-5.52,1.87-3.46.99-6.47,1.4-8.97,1.43-5.03.04-7.78-1.29-9.04-1.93-1.23-.77-1.1-.89-.09-.58,1.03.25,2.97.89,5.56.97,2.6.12,5.8-.24,9.07-1.18,1.64-.47,3.27-1.05,4.93-1.72,1.69-.66,3.14-1.34,4.56-2.13,2.82-1.54,5.1-3.34,6.64-4.81,1.53-1.5,2.34-2.66,2.46-2.97-3.23,3.3-7.32,5.89-11.73,7.6-4.62,1.73-9.38,3-13.75,2.84-2.21-.07-4.17-.46-6.03-1.26-1.85-.79-3.51-2-4.86-3.47-2.64-2.89-4.15-7.17-4.59-11.69-.15-.98-.26-1.95-.31-2.98l-.05-1.42.04-1.41c.12-1.88.48-3.74,1.04-5.53,1.13-3.59,3.07-6.93,5.52-9.81,1.2-1.4,2.51-2.69,3.94-3.82,1.44-1.12,2.97-2.11,4.58-2.98,3.23-1.75,6.75-2.93,10.44-3.96.91-.26,1.91-.53,2.74-.74.86-.21,1.65-.37,2.5-.5,1.69-.25,3.6-.41,5.5-.58,3.85-.33,7.64-.66,11.4-.99,3.76-.34,7.48-.68,11.18-1.06,1.86-.21,3.71-.41,5.55-.62l2.71-.33c.87-.1,1.67-.18,2.47-.24,1.6-.11,3.35-.15,5.01-.15,1.68-.01,3.34.07,4.99.18,3.3.23,6.59.72,9.93,1.34,6.68,1.27,13.58,3.05,20.61,4.66,7.01,1.65,14.14,3.15,20.91,4.98,3.36.94,6.59,1.97,9.47,3.37.74.33,1.43.72,2.13,1.1l1.03.61c.35.21.72.47,1.08.71,1.46.94,2.86,2,4.26,3.1-1.64-1.07-3.28-2.09-4.99-2.96-1.61-1.07-2.93-1.76-4.18-2.32-.62-.27-1.2-.49-1.72-.7-.54-.18-1.03-.34-1.45-.48-1.76-.52-2.67-.63-2.81-.5-.15.14.49.52,1.6,1.14,1.13.61,2.73,1.46,4.44,2.59.43.28.85.6,1.3.9.44.36.85.63,1.35,1.06,1.01.82,2.06,1.72,3.1,2.7,2.1,1.96,4.19,4.26,6.19,6.81,1.99,2.57,3.89,5.36,5.7,8.27.91,1.44,1.79,2.92,2.67,4.37.88,1.46,1.73,2.86,2.54,4.2,1.75,2.67,3.39,5.24,4.33,7.3.48,1.04.81,1.94,1.04,2.9.24.94.35,2.05.39,3.23.39,2.77.02,6.69-1.72,10.56-1.69,3.88-4.96,7.54-9.74,9.48-1.19.45-2.45.85-3.81,1.04-1.34.24-2.78.32-4.27.25-1.49-.06-3.03-.26-4.61-.61-.79-.17-1.58-.38-2.38-.63-.78-.24-1.73-.56-2.5-.85-3.19-1.21-6.38-2.9-8.84-5.01-1.28-1.11-2.18-2.02-2.98-3.24-.76-1.19-1.44-2.48-1.71-3.91-.37-1.39-.39-2.88-.17-4.32.23-1.47.62-2.71,1.41-4.58l.61-1.38c.21-.46.47-1.03.67-1.39l.62-1.22.69-1.19c.97-1.57,2.09-3.06,3.35-4.45,2.53-2.79,5.57-5.19,8.97-7.01,3.32-1.83,6.87-2.99,10.68-3.58,3.81-.59,7.88-.64,12.15-.47,1.08.05,2.16.09,3.23.14,1.06.06,2.11.12,3.16.17,2.02.14,4.01.35,5.97.64,3.92.57,7.81,1.46,11.74,2.46,1.99.51,3.95,1.02,5.89,1.52,1.94.51,3.82,1,5.65,1.51,6.23,1.9,10.35,3.71,11.67,4.44,1.31.75-.14.31-5.43-1.48,5.14,1.89,10.13,4.07,14.97,6.56,5.04,2.58,9.81,5.17,14.25,8.1,8.87,5.84,16.71,13.1,22.85,21.47,3.39,3.04,6.62,7.22,9.86,12.44,1.62,2.61,3.28,5.49,4.99,8.52,1.68,3.02,3.41,6.2,5.06,9.5,3.27,6.59,6.39,13.73,7.34,21.01.16.91.16,1.83.26,2.75.03.92.04,1.85.04,2.78-.08.94-.06,1.88-.2,2.83-.13.96-.21,1.88-.41,2.99-.68,4.04-1.86,7.79-3.79,11.28-2.42,4.86-5.72,8.21-9.26,10.77-3.55,2.53-7.33,4.23-11.53,5.1-2.1.43-4.33.68-6.7.58-1.19-.07-2.41-.14-3.65-.36-1.26-.22-2.59-.54-3.95-.96-2.72-.84-5.57-2.07-8.31-3.95-2.73-1.87-5.44-4.34-7.48-7.77-.28-.56-.57-1.12-.85-1.68-.25-.56-.48-1.16-.7-1.76-.44-1.21-.78-2.45-1.09-3.68-.56-2.47-.84-4.93-.75-7.26.16-4.66,1.81-8.77,4.67-11.81,1.42-1.51,3.12-2.76,5.01-3.79,1.91-1.01,3.99-1.79,6.22-2.4,1.11-.31,2.25-.57,3.49-.84,1.14-.22,2.19-.43,3.29-.55,2.17-.26,4.34-.3,6.51-.13,4.33.33,8.65,1.5,13.08,2.99,2.2.75,4.53,1.57,6.68,2.36,2.16.8,4.23,1.64,6.25,2.56,8.04,3.65,15.03,8.71,20.4,15.11,2.59,3.07,4.75,6.76,6.93,10.7,2.16,3.93,4.32,8.02,6.44,12.05,2.12,4.04,4.13,7.95,5.52,11.89,1.4,3.98,2.36,8.2,2.8,12.48.45,4.3.36,8.74.05,13.44-.18,2.38-.36,4.77-.54,7.18-.2,2.39-.44,4.75-.76,7.09-.64,4.67-1.61,9.25-3.16,13.73-1.52,4.46-3.6,8.9-6.12,13.02-.5,1.44-1.32,3.37-2.53,5.49-1.2,2.13-2.77,4.47-4.56,6.85-3.58,4.74-8.01,9.65-11.14,13.41-3.13,3.74-5.11,6.17-4.37,6.13.75-.02,4.27-2.6,11.93-9.42-3.98,3.89-7.9,7.82-11.97,11.46-2.04,1.81-4.16,3.51-6.43,4.88-2.26,1.39-4.72,2.33-7.27,2.76-5.15.86-10.45-.11-15.24-2.1-2.4-.98-4.72-2.23-6.97-3.57-2.21-1.33-4.27-2.88-6.16-4.61-3.77-3.46-7.03-7.66-10.36-11.74-3.3-4.1-6.44-8.28-9.47-12.55-3.03-4.26-5.98-8.63-9.17-12.9-3.17-4.28-6.55-8.4-10.08-12.38-7.08-7.93-14.73-15.39-23.33-21.89-8.55-6.44-17.64-12.11-27.21-17.05-9.58-4.9-19.62-9.03-30.06-12.27-2.61-.81-5.25-1.56-7.91-2.25-1.33-.35-2.67-.66-4.01-.97-1.34-.3-2.68-.64-4.03-.89-5.4-1.14-10.87-2.01-16.41-2.64-6.18-.28-12.85-.28-18.84.12-5.44,1.21-15.26,3.06-24.84,6.45-4.79,1.67-9.57,3.6-14,5.44-4.45,1.84-8.38,3.64-11.44,5.27-6.11,3.3-8.48,5.79-4.35,5.97,2.08.11,5.85-.29,11.93-1.16,1.54-.23,3.23-.48,5.07-.76,1.85-.3,3.84-.62,6-.97,4.29-.7,8.97-1.49,14.1-2Z"/>
  <path class="cls-2" d="M2.67,245.94c-.72-3.34-1.49-7.2-1.88-11.37-.39-4.17-.42-8.66.2-13.16.62-4.5,1.77-8.97,3.54-13.12.41-1.05.85-2.1,1.38-3.1.51-1.01,1.01-2.03,1.56-3.02,1.16-1.93,2.33-3.87,3.69-5.63-1.68,1.82-3.19,3.85-4.64,5.93-.66,1.13-1.27,2.21-1.82,3.23-.54,1.02-.94,2.03-1.36,2.97-.84,1.87-1.38,3.59-1.84,5.18-.88,3.2-1.22,5.93-1.4,8.82-.16,2.88-.11,5.97.28,9.79.19,1.91.48,3.99.86,6.26.39,2.26.9,4.72,1.44,7.23Z"/>
  <path class="cls-1" d="M120.88,176.42c-1.8,5.29-3.31,11.21-4.02,17.65-.22,1.57-.26,3.3-.35,4.95-.07,1.67.02,3.45.07,5.15.16,1.79.33,3.55.62,5.33.19.91.37,1.81.56,2.71.2.9.38,1.78.69,2.69,2.06,7.2,6.29,13.96,11.09,18.55,2.4,2.3,4.86,4.14,7.23,5.64,2.37,1.48,4.63,2.6,6.72,3.5,4.18,1.76,7.69,2.64,10.23,3.14.62.12,1.22.22,1.67.29.53.07,1.01.13,1.43.19.93.11,1.62.16,2.03.15.83-.02.59-.24-.9-.73-.37-.12-.82-.26-1.35-.42-.6-.17-.91-.3-1.57-.51-1.2-.39-2.81-.91-4.74-1.65-3.92-1.35-7.83-3.15-11.57-5.6-3.74-2.41-7.29-5.56-10.21-9.3l-1.08-1.41-.96-1.5c-.63-1.01-1.26-2.01-1.82-3.04-.97-2.11-2.04-4.24-2.63-6.39-1.46-4.32-1.94-8.54-2.12-12.52,0-.98-.01-1.96-.02-2.94,0-.97.1-1.89.15-2.83.09-1.91.38-3.64.61-5.45.59-3.47,1.35-6.81,2.28-9.95.93-3.13,1.99-6.14,3.1-8.97l.83-2.07c.28-.67.51-1.26.87-2.06.67-1.51,1.31-3.03,2.08-4.51,1.44-2.99,3.17-5.85,4.97-8.65,1.86-2.75,3.82-5.45,5.95-7.94,4.22-5.03,8.91-9.45,13.54-13.37,2.32-1.97,4.64-3.83,6.87-5.6,2.23-1.77,4.58-3.63,7.16-5.54,5.13-3.81,11.03-7.69,17.7-10.85-.19-.42-4.64,1.21-10.8,4.82-3.07,1.79-6.5,4.09-9.94,6.58-.84.62-1.7,1.24-2.58,1.89-.83.62-1.68,1.25-2.55,1.9-1.7,1.27-3.53,2.65-5.41,4.12-3.76,2.93-7.81,6.34-11.67,10.17-3.86,3.82-7.53,8.07-10.58,12.44-3.08,4.35-5.56,8.75-7.43,12.71-.24.49-.47.96-.69,1.43-.19.4-.37.79-.55,1.18-.37.82-.73,1.6-1.07,2.35-.69,1.56-1.31,3-1.84,4.31Z"/>
  <path class="cls-2" d="M287.22,40.36c.15.25.32.49.46.75l.19.38.25.47c.14.34.28.68.44,1.01l.38,1.06c.46,1.45.76,3.04.88,4.69.24,3.29-.21,6.87-1.34,9.89l-.42,1.14-.53,1.08c-.3.74-.79,1.39-1.18,2.09-.93,1.31-1.9,2.61-3.14,3.75-2.41,2.31-5.48,4.3-8.81,5.64,3.13-.7,6.28-1.91,9.03-3.6,1.69-1.42,3.06-2.81,4.03-4.21.28-.33.5-.68.7-1.02.22-.34.42-.66.63-.98.34-.67.66-1.3.97-1.88.24-.62.46-1.2.67-1.74.22-.53.33-1.08.49-1.56.11-.5.21-.96.31-1.39.07-.44.13-.84.19-1.2.32-2.98-.04-3.86-.28-4.36-.32-.49-.55-.67-.94-2.07-.17-.7-.42-1.69-.81-3.09-.12-.34-.24-.71-.36-1.11-.16-.38-.3-.8-.48-1.23-.21-.41-.37-.89-.64-1.33-.19-.39-.42-.76-.69-1.17Z"/>
  <path class="cls-1" d="M147.9,196.63c.15.2-.33.83-.78,1.47-.45.65-.9,1.28-.81,1.4.05.06.23,0,.62-.26.39-.26.98-.7,1.89-1.34.45-.33.97-.71,1.58-1.15.62-.42,1.33-.9,2.14-1.44,1.64-1.09,3.72-2.46,6.27-3.94,5.05-3.11,10.6-5.37,16.53-6.01,2.93-.31,6.02-.33,9.01-.1,3.01.22,5.98.82,8.81,1.89-1.4-.54-5.68-2.14-11.5-2.54-2.9-.23-6.11-.34-9.38.13-3.26.46-6.55,1.34-9.55,2.58-3.01,1.21-5.75,2.71-8.1,4.12-2.36,1.41-4.33,2.73-5.76,3.76-2.82,2.16-3.59,2.98-.94,1.43Z"/>
  <path class="cls-1" d="M134.73,308.09l-.38-1.54-.31-1.55c-.22-1.01-.35-2.05-.5-3.06-4.93-6.48-7.91-12.73-10.16-19.51-2.13-6.62-3.22-13.7-2.43-22.15-.49,5.63-.35,9.86-.1,13.47.28,3.61.73,6.6,1.42,9.73.34,1.54.78,3.23,1.32,4.95.54,1.73,1.19,3.56,2.07,5.57,1.77,3.98,4.35,8.76,9.08,14.09Z"/>
  <path class="cls-1" d="M156.84,223.8c1.24.49,2.48.9,3.79,1.29,1.3.36,2.44.67,3.65.88,2.39.44,4.75.6,7.01.52,2.27-.08,4.45-.37,6.52-.84,2.09-.48,3.97-1.09,5.95-1.88,4.03-1.53,7.32-3.07,9.79-5.02,2.5-1.92,4.05-4.2,5.02-6.57.26-.68.43-1.32.6-2.05.17-.73.29-1.47.39-2.2.18-1.44.19-2.9.07-4.16-.22-2.53-1.13-4.84-2.46-6.79-.83-1.05-1.7-2.05-2.77-2.83-1.06-.79-2.23-1.44-3.46-1.96-2.7-1.09-5.98-1.76-9.81-2.02-.49-.03-.99-.06-1.49-.09-.54-.03-1.07-.05-1.52-.05-.47,0-.95-.03-1.42-.03-.48.02-.96.03-1.45.05-1.95.11-3.98.38-6.1.87-2.12.49-4.33,1.21-6.66,2.16-2.33.97-4.75,2.18-7.43,3.62-7.91,5.02-13.2,10.79-17.03,16-3.82,5.24-6.14,9.89-7.94,13.71-1.72,3.69-2.66,6.46-3.19,8.39-.52,1.93-.64,3.02-.51,3.45.27.85,1.48-.99,3.32-3.8.92-1.4,2-3.05,3.2-4.73.62-.87,1.26-1.76,1.9-2.65.65-.9,1.31-1.76,1.95-2.59,3.46-5.93,5.39-8.56,6.33-10.27.96-1.68.95-2.36,1.27-3.43.34-1.05.92-2.59,3.61-5.62,1.34-1.52,3.25-3.37,6.07-5.5,1.33-1.03,3.25-2.34,5.14-3.54,1.93-1.22,4.06-2.44,6.49-3.48,2.81-1.06,5.71-1.79,8.67-2.04,1.48-.16,2.95-.14,4.46-.09,1.74.09,3.27.21,4.78.43,1.49.23,2.93.51,4.24.93.34.08.64.22.96.33.32.11.63.22.92.36l.87.38.74.4c1.97,1.07,3.54,2.68,4.58,4.44.61,1.13,1.03,2.31,1.27,3.48.25,1.19.24,2.28.18,3.44-.08,1.2-.3,2.4-.61,3.5-.16.54-.34,1.09-.52,1.55-.17.41-.34.81-.55,1.17-1.59,2.74-3.77,3.91-4.86,4.19-2.6,1.93-6.12,3.32-9.59,4.66-2.96,1.14-5.41,1.74-7.58,2.07-4.3.66-7.1.41-8.81.32-1.72-.1-2.38-.16-2.41.06-.02.18.6.57,1.48.93.44.17.94.38,1.46.56.52.17,1.04.34,1.51.49.95.26,1.71.54,1.79.74.08.22-.53.42-2.34.47-.9.01-2.1-.04-3.64-.26-.76-.13-1.62-.25-2.66-.5-1-.23-2.06-.49-3.19-.85Z"/>
  <path class="cls-1" d="M139.81,303.62c-3.33-3.77-6.08-8.03-8.21-12.66-1.08-2.34-1.96-4.65-2.82-7.34-.77-2.49-1.44-4.96-1.91-7.5.16,2.6.51,5.17.99,7.79.56,2.8,1.16,5.3,1.99,7.85,2.79,4.52,6.15,8.5,9.97,11.85Z"/>
  <path class="cls-1" d="M159.57,215.79c-3.4-.95-6.19-2.36-8.02-4.02-.21-.22-.46-.41-.66-.64-.18-.23-.42-.43-.59-.67-.16-.25-.33-.49-.51-.72l-.29-.35c-.08-.13-.13-.27-.21-.41-.14-.27-.29-.54-.46-.81-.16-.28-.23-.62-.36-.92-.3-.58-.42-1.32-.63-2.03.41,2.7,1.34,4.63,2.71,6.44,1.45,1.75,3.69,3.37,6.59,4.62,1.47.62,2.99,1.15,4.79,1.62,1.07.29,1.7.39,2.51.58.78.12,1.56.26,2.35.32,3.14.3,6.38.05,9.6-.76-2.92.49-5.79.58-8.52.17-1.37-.19-2.7-.47-4-.89l-1.04-.32c-.46-.14-.82-.27-1.2-.4-.73-.26-1.41-.53-2.06-.82Z"/>
  <path class="cls-1" d="M185.38,204.39s0-.03.02.01c0,.24-.04.71-.13,1.17-.04.24-.11.49-.16.7-.03.1,0,.03-.01.05-.03,0,0-.01,0,0,.05.11-.05.35-.45.77-.4.41-1.09.93-1.94,1.46-.84.53-1.86,1.06-2.85,1.57-.53.27-1,.52-1.43.73-.41.22-.69.38-.9.51-.85.53-.99.79-.24.75.42-.04.88-.1,2.26-.54,1.22-.38,2.65-.85,3.98-1.39,2.09-1.06,2.81-1.77,3.12-2.19.17-.19.24-.41.28-.49,0-.08.02-.14.04-.19,0-.07,0-.13.02-.17,0-.09-.01-.17-.03-.24,0-.12.04-.4.04-.59.02-.42-.02-.77-.06-1.05-.07-.27-.11-.51-.22-.67-.05-.09-.09-.15-.13-.21-.05-.04-.11-.04-.16-.05-.4-.09-.74-.09-1.03.07Z"/>
  <path class="cls-2" d="M324.47,205.24c2.91-7.91,5.96-16.07,9.34-24.33,1.69-4.13,3.48-8.26,5.49-12.31,2.06-4.11,4.12-8.33,6.36-12.31,1.13-1.98,2.31-3.89,3.61-5.61,1.3-1.73,2.74-3.21,4.35-4.55,3.36-2.78,7.28-4.9,11.47-6.37,2.08-.78,4.28-1.27,6.49-1.71,2.23-.39,4.49-.62,6.77-.69,2.26-.05,4.58.01,6.61.37,2.33.37,4.52.85,6.66,1.56,4.26,1.37,8.11,3.53,11.14,6.4,3.03,2.86,5.28,6.5,6.52,10.52.64,2.01,1.01,4.13,1.14,6.26.06,1.06.06,2.13,0,3.14l-.06.74-.1.84c-.07.55-.15,1.09-.25,1.63-.78,4.35-2.49,8.48-4.85,10.92-1.12,1.2-2.46,2.1-3.93,2.72-.39.11-.76.23-1.13.37-.38.1-.78.15-1.16.25-.82.12-1.69.2-2.62.18-3.75-.04-8.26-1.39-12.83-3.46-1.15-.51-2.32-1.08-3.54-1.69l-.94-.47-.81-.42c-.54-.27-1.01-.56-1.51-.84-.94-.57-1.81-1.16-2.67-1.81-.86-.67-1.77-1.44-2.73-2.3-1.94-1.75-4.07-3.79-6.24-5.82-2.18-2.04-4.42-4.07-6.67-6.08l.59.54-.51-.47-.33-.29-.23-.2-.45-.39-.89-.77c-.59-.51-1.19-1.02-1.79-1.53-1.2-1.01-2.4-2.02-3.61-3.04-2.43-2.02-4.9-4.03-7.41-6.03-5.02-3.99-10.2-7.96-15.51-11.83-2.22-1.4-4.45-2.8-6.7-4.21-2.25-1.4-4.51-2.8-6.79-4.22-4.61-2.83-9.38-5.75-14.81-8.53-2.71-1.38-5.63-2.7-8.72-3.81-3.12-1.12-6.26-1.98-9.49-2.64-6.48-1.33-12.95-1.68-19.25-1.8-5.85-.43-11.56-.68-17.23-.92-5.66-.24-11.29-.51-17.13-.65-2.92-.06-5.91-.09-9.02.02-3.11.11-6.36.38-9.67.92-1.63.28-3.35.62-4.89,1.02-1.55.38-3.1.79-4.63,1.27-3.07.92-6.1,2.03-9.04,3.31-8.73,3.99-16.72,9.73-23.67,15.36-3.43,2.76-6.91,5.54-10.47,8.64-3.54,3.1-7.08,6.48-10.38,10.21-3.3,3.73-6.33,7.83-8.9,12.2-1.28,2.19-2.46,4.42-3.52,6.71l-.77,1.72c-.26.57-.52,1.16-.72,1.66l-1.3,3.22c-1.72,4.44-3.26,9.08-4.28,13.99-1.01,4.91-1.55,10.11-1.07,15.54.46,5.39,2.1,11.08,5.17,15.95,2.98,4.93,7.27,8.75,11.65,11.37,4.4,2.65,8.97,4.28,13.3,5.33,1.09.26,2.01.46,3.21.68,1.13.24,2.27.39,3.4.52,2.26.26,4.52.36,6.72.28,4.42-.13,8.64-.88,12.53-2.07,1.93-.59,3.84-1.3,5.54-2.04,1.59-.7,3.13-1.38,4.76-2.18,3.22-1.57,6.52-3.54,9.37-6.1,2.84-2.55,5.19-5.68,6.62-8.94.33-.62.65-1.22.81-1.51,1.42-3.17,1.95-5.46,2.39-7.56.42-2.1.6-3.87.64-5.77.02-.95,0-1.9-.09-2.89-.05-.99-.24-2-.43-3.1-.48-2.16-1.23-4.65-2.86-7.51-.18-.31-.47-.76-.83-1.3-.36-.53-.75-1.17-1.27-1.75-.73-.79-1.48-1.6-2.37-2.33-.84-.77-1.8-1.45-2.78-2.13-.48-.36-1.02-.63-1.55-.95-.53-.31-1.06-.63-1.63-.89-.57-.27-1.14-.54-1.71-.81-.56-.22-1.12-.44-1.69-.66-4.53-1.65-9.43-2.33-14.12-2.49-.61-.02-1.08-.04-1.73-.04-.64,0-1.29,0-1.93,0-.65,0-1.3.06-1.95.09-.65.03-1.31.08-1.96.17-2.63.27-5.27.82-7.83,1.58-5.14,1.5-9.96,3.94-14.17,6.54-1.06.65-2.06,1.28-3.05,1.92-1.06.72-2.11,1.43-3.16,2.14-1.01.76-2.03,1.52-3.03,2.29-.97.81-1.95,1.6-2.88,2.43-3.73,3.31-7.02,6.93-9.81,10.59-2.81,3.66-5.11,7.37-6.99,10.88-.95,1.75-1.78,3.45-2.52,5.03-.74,1.59-1.47,3.22-2.05,4.72-3.72,7.34-5.78,13.22-7.29,18.03-.75,2.38-1.34,4.63-1.81,6.52-.47,1.87-.9,3.62-1.26,5.29-.73,3.34-1.29,6.35-1.67,9.84-.36,3.49-.59,7.49-.15,12.8.41,2.37.91,4.75,1.54,7.11.31,1.18.63,2.37,1.01,3.54l.55,1.77.57,1.67c1.57,4.57,3.63,9.29,6.17,13.76,2.55,4.48,5.59,8.77,9.11,12.72.86,1,1.8,1.93,2.71,2.9.94.95,1.92,1.88,2.91,2.78,1.99,1.79,4.06,3.47,6.23,5.04,4.33,3.13,9.01,5.87,14,8.06,4.99,2.21,10.23,3.91,15.73,4.96,5.5,1.07,11.27,1.39,16.64,1.15,5.38-.23,10.4-.86,15.18-1.44,2.48-.3,5.15-.69,7.71-1.15,2.57-.46,5.1-1,7.56-1.57,4.92-1.15,9.6-2.4,14.22-3.63,4.6-1.23,9.38-2.52,14.1-4,2.22-.71,4.43-1.42,6.63-2.13.94-.29,1.81-.53,2.76-.75.95-.22,1.96-.45,3-.65,8.28-1.66,16.69-2.41,24.79-2.31,7.99.07,15.8,1.19,23.19,3.01,3.3,1.49,7.06,3.19,11.18,5.05,2.12.97,4.34,1.98,6.63,3.03,2.2,1.02,4.4,2.07,6.53,3.23,2.15,1.15,4.25,2.42,6.8,3.98,2.54,1.56,5.44,3.26,8.39,4.8,5.94,3.1,11.95,5.66,18.13,8.08,6.2,2.41,12.61,4.6,19.29,6.32,3.35.86,6.76,1.6,10.4,2.11.91.12,1.86.24,2.76.32.88.07,1.72.15,2.58.2,1.71.12,3.42.18,5.12.21,6.8.11,13.17-.57,18.64-1.05,5.45-.49,10.67-.75,16.07-1.33,2.62-.48,5.41-1.12,8.28-2.08,2.86-.95,5.77-2.24,8.44-3.79,1.32-.75,2.7-1.66,3.67-2.32,1.1-.74,2.28-1.59,3.43-2.48,2.31-1.81,4.61-3.87,6.76-6.35.54-.59,1.05-1.28,1.57-1.94.26-.32.51-.67.75-1.03l.77-1.13c1.02-1.58,1.91-3.23,2.65-4.94,1.48-3.43,2.31-7.12,2.45-10.83.13-3.71-.46-7.44-1.7-10.92-.32-.87-.63-1.74-1.02-2.58-.38-.85-.78-1.69-1.17-2.4-.77-1.46-1.59-2.77-2.43-4.01-1.67-2.47-3.4-4.55-5.01-6.41-.84-.97-1.49-1.72-2.44-2.75-.89-.97-1.81-1.93-2.76-2.86-3.78-3.71-7.83-6.87-11.92-9.58-8.18-5.43-16.5-9.2-24.41-12.18-1.02-.39-1.91-.71-2.84-1.05-.93-.33-1.86-.66-2.77-.99-1.85-.65-3.71-1.3-5.58-1.9-3.72-1.22-7.44-2.29-11.09-3.17-3.66-.87-7.24-1.53-10.68-2.01-3.45-.43-6.75-.74-9.86-.8-.78-.02-1.54-.04-2.29-.06-.75.01-1.49.02-2.22.03-1.45,0-2.85.09-4.19.18-.67.04-1.33.09-1.97.13-.64.07-1.27.14-1.88.21-1.21.14-2.44.27-3.42.43-4.08.6-7.51,1.27-9.87,1.91-.05-.17,1.54-.64,3.4-1.13,1.87-.5,3.99-1.01,5.1-1.45,1.09-.43,1.23-.8-.92-.96-1.08-.08-2.76-.1-5.24.02-2.5.15-5.81.39-10.2,1.15-3.38.78-8.62,2.29-12.91,4.17-1.08.42-2.08.95-3,1.39-.91.45-1.73.85-2.4,1.26-1.34.79-2.15,1.3-2.12,1.35-.42.21-1.04.58-1.83,1.08-.79.51-1.79,1.07-2.89,1.85-1.08.81-2.36,1.67-3.67,2.77-1.28,1.13-2.76,2.3-4.13,3.79-2.89,2.82-5.71,6.45-8.22,10.6-2.48,4.16-4.57,8.86-6.04,13.83-.74,2.46-1.34,5.11-1.76,7.64-.37,2.2-.76,4.75-.95,7.37-.2,2.63-.23,5.38,0,8.17.24,2.79.76,5.62,1.59,8.36.39,1.37.93,2.71,1.46,4.01.61,1.28,1.19,2.55,1.91,3.72.69,1.19,1.41,2.31,2.31,3.46.86,1.14,1.89,2.25,2.91,3.23,2.09,1.96,4.02,3.19,5.54,4.11,1.54.92,2.74,1.53,3.84,2.09,3.45,1.73,5.51,2.7,6.69,3.18,1.16.47,1.37.38.75-.21-2.54-1.68-4.74-3.13-6.61-4.36-1.95-1.32-3.75-2.59-5.32-3.94-1.57-1.34-2.8-2.7-3.49-3.73-.71-1.02-.97-1.69-.94-1.96.04-.28.37-.19.99.2.61.38,1.54,1.1,2.78,1.87,1.23.78,2.73,1.6,4.33,2.34,1.6.75,3.32,1.46,5.17,2.24,1.85.78,3.85,1.65,6,2.65.53.25,1.08.5,1.63.76.52.24,1.06.51,1.61.79,1.11.56,2.26,1.19,3.46,1.84,4.77,2.63,10.1,5.75,15.77,9.11,5.68,3.37,11.73,6.96,17.92,10.75,3.09,1.9,6.22,3.85,9.31,5.93,1.54,1.04,3.08,2.11,4.57,3.28,1.49,1.16,2.95,2.4,4.24,3.89,2.32,2.71,4.39,5.68,6.16,8.82,1.75,3.15,3.22,6.45,4.45,9.76,1.23,3.31,2.28,6.63,3.27,9.84,1,3.22,1.93,6.54,2.65,9.77,1.47,6.48,2.28,12.82,2.73,18.59.22,2.91.39,5.58.53,8.21.13,2.63.2,5.12.22,7.45-.25,8.79-1.31,17.82-2.93,26.53,1.82-7.48,3.21-15.28,4.02-23.37.41-4.04.67-8.18.78-12.35.12-4.04.18-8.32,0-12.7-.18-4.38-.58-8.87-1.27-13.4-.35-2.26-.76-4.54-1.25-6.81l-.37-1.71-.37-1.61c-.26-1.09-.52-2.19-.77-3.29-1.07-4.44-2.36-9.19-4.29-14-1.91-4.82-4.56-9.6-7.83-14.01-1.55-2.05-3.31-3.76-4.98-5.26,1.23,1.31,1.48,1.77,1.03,1.48-.45-.28-1.6-1.23-3.14-2.4-3.08-2.4-7.72-5.68-11.88-8.53-8.32-5.65-14.71-9.86-2.42-.4,2.55,1.81,5.09,3.61,7.62,5.41,2.55,1.84,5.09,3.73,7.64,6,1.47,1.42,3,2.98,4.43,4.96,4.04,5.71,6.92,12.21,8.77,18.64.93,3.22,1.66,6.41,2.32,9.55l.94,4.68c.32,1.61.6,3.22.85,4.84-.53-2.48-1.21-5.21-1.91-7.95-.71-2.79-1.5-5.8-2.48-8.99-.99-3.18-2.22-6.53-3.82-9.9-1.61-3.36-3.61-6.7-5.98-9.89-1.92-2.49-4.02-4.34-6.12-6.11-2.1-1.76-4.25-3.39-6.41-5.01-4.33-3.22-8.75-6.33-13.15-9.45-8.84-6.21-17.54-12.43-26.03-18.09-1.07-.71-2.15-1.4-3.28-2.08-1.08-.64-2.16-1.27-3.22-1.89-2.11-1.19-4.16-2.35-6.17-3.48-1.96-1.1-3.75-2.15-5.09-3.22-.66-.54-1.24-1.09-1.77-1.7-.51-.63-1.03-1.3-1.45-2.03-.92-1.41-1.59-2.9-2.11-4.39-.54-1.47-.88-2.95-1.13-4.37-.5-2.84-.59-5.43-.62-7.56.13-1.27.32-2.52.53-3.75.11-.62.22-1.24.33-1.85.11-.59.23-1.16.35-1.73.52-2.27,1.17-4.41,1.93-6.4,1.53-3.97,3.43-7.37,5.53-10.2,1.03-1.43,2.15-2.7,3.25-3.88,1.2-1.09,2.24-2.24,3.46-3.12,2.28-1.92,4.72-3.28,7.05-4.49,4.77-2.26,9.43-3.5,14.3-4.25,4.9-.73,9.97-.99,16.01-1.1,1.02-.07,2.13-.17,3.09-.21.99-.05,1.97-.1,2.97-.15,1.98-.02,3.97-.05,5.97.06,3.99.17,8,.63,12,1.38,8.03,1.48,15.95,4.21,24.14,7.44l3.09,1.22,2.96,1.22c.99.39,1.95.85,2.92,1.28.97.42,1.93.88,2.87,1.34,3.8,1.84,7.47,3.87,10.91,6.12,3.45,2.24,6.65,4.71,9.51,7.41,1.45,1.36,2.74,2.74,4.08,4.29,1.42,1.64,2.73,3.19,3.84,4.7,1.11,1.49,2.06,3,2.66,4.3.56,1.2.98,2.47,1.11,3.77.32,2.61-.44,5.26-1.83,7.4-.71,1.11-1.76,2.38-2.91,3.51-1.17,1.15-2.51,2.24-3.97,3.3l-1.13.8-.61.42-.54.35c-.69.46-1.39.87-2.09,1.26-1.41.77-2.85,1.39-4.41,1.92-3.11,1.05-6.68,1.73-10.42,2.31-3.72.58-7.61,1.1-11.31,1.62-7.37,1.07-13.8,1.57-20.13,1.17-3.59-.32-7.2-1.11-10.64-2.05-3.44-.94-6.7-2.03-9.78-3.17-6.14-2.28-11.6-4.71-16.34-7.05-4.75-2.35-8.66-4.59-12.13-6.89-3.45-2.29-6.94-4.72-10.24-6.61-3.28-1.92-6.23-3.46-8.9-4.8-2.6-1.32-4.94-2.51-7.25-3.64-4.61-2.26-8.88-4.17-13.71-5.9-4.09-.97-8.66-1.83-13.53-2.45-2.43-.3-4.93-.56-7.53-.72-2.58-.16-5.18-.23-7.81-.23-5.25,0-10.61.32-15.93.96-2.66.31-5.31.72-7.92,1.19-2.62.5-5.16.99-7.92,1.74-1.36.37-2.72.79-3.9,1.18-1.12.37-2.23.74-3.33,1.11-2.11.7-4.15,1.34-6.18,1.96-4.13,1.22-7.99,2.35-11.47,3.38-7.04,2.09-12.25,3.64-14.91,4.62-3.21.6-6.16,1-9.2,1.3-3.17.32-6.13.61-8.87.78-5.49.36-10.01.17-14.02-.59-4-.74-7.66-1.98-10.86-3.45-3.21-1.47-6-3.16-8.47-4.95-2.46-1.79-4.61-3.66-6.45-5.58-1.87-1.9-3.34-3.82-4.74-5.82-2.75-3.98-4.72-8.09-6.29-12.61-.82-1.91-1.48-3.74-2.06-5.57-.15-.48-.29-.95-.44-1.42-.16-.52-.27-.95-.38-1.36-.22-.84-.47-1.65-.63-2.44-.74-3.17-1.14-5.98-1.39-8.51-.46-5.07-.32-9.02-.09-12.76.07-.94.14-1.87.23-2.83.1-.97.21-1.94.31-2.92.19-1.74.48-3.6.88-5.62.82-4.04,2.08-8.78,4.72-14.72.27-.52.54-1.03.8-1.53.29-.53.57-1.05.85-1.57.55-1,1.07-1.92,1.59-2.79,1.02-1.74,2.03-3.24,2.98-4.61,1.92-2.71,3.69-4.77,5.24-6.4,1.58-1.6,2.9-2.8,4.02-3.67.56-.43,1.05-.81,1.48-1.12.45-.29.84-.53,1.17-.73,1.31-.8,1.82-.77,1.89-.49.07.3-.27.89-.5,1.48-.25.58-.43,1.1-.13,1.19.31.11,1.05-.27,2.78-1.26.42-.26.91-.56,1.49-.87.61-.35,1.29-.75,2.06-1.2,1.88-1.09,3.75-2.15,5.78-3.1,1-.45,2.04-.88,3.1-1.25,1.06-.35,2.15-.63,3.3-.82,1.15-.19,2.35-.31,3.69-.25,2.24.06,3.95.21,5.38.5.67.14,1.19.33,1.63.48l.49.21c0,.06.05,0,.05.05.05,0,.08.05.11.08.05-.02,0,.06.06.04.01.02,0,.05.06.05-.01.07.08.08.09.14,0,.05.07.1.09.17.02.24.02.8-.05,1.32-.02.27-.09.56-.14.81-.03.15,0,.11,0,.18-.03.08,0,.15-.03.25-.07.12-.15.29-.36.54-.24.24-.6.57-1.11.93-.54.36-1.22.77-2.03,1.2-.84.43-1.8.89-2.89,1.37-.93.41-1.83.81-2.71,1.2-1.42.58-2.73,1.03-3.95,1.34-2.43.63-4.42.82-5.82.94-1.4.12-2.22.2-2.25.44-.4-.11-.8-.22-1.2-.33-.6-.17-1.07-.31-1.53-.46-.9-.3-1.74-.6-2.52-.93-1.56-.67-2.91-1.43-3.95-2.21-1.03-.79-1.75-1.55-2.28-2.31-.42-.83-.95-1.5-1.16-2.65-.04-.13-.1-.25-.13-.39l-.06-.47c-.03-.33-.15-.59-.16-.96-.02-.37-.04-.73-.08-1.09-.05-.35,0-.81,0-1.21v-.62c0-.21.03-.45.05-.67l.11-1.37c.16-.97.25-1.93.49-2.97.4-2.04.99-4.2,1.76-6.43.76-2.24,1.63-4.44,2.7-6.95l.2-.46.17-.37.34-.75c.23-.49.43-1.01.69-1.48.51-.95.97-1.93,1.53-2.84,1.04-1.86,2.25-3.6,3.5-5.29,1.27-1.68,2.67-3.29,4.12-4.85,1.5-1.55,3.03-3.05,4.69-4.51,3.27-2.92,6.88-5.69,10.49-8.44,3.6-2.74,6.66-4.92,9.47-6.61,4.43-3.66,9.05-6.64,14.24-8.85.65-.28,1.3-.56,1.97-.8.67-.24,1.32-.52,2.01-.73.67-.21,1.4-.47,2.02-.65.61-.18,1.23-.34,1.85-.5,2.49-.59,5.32-.94,8.6-1.13,6.56-.36,14.28-.23,21.99-.14,7.67.12,15.48.22,22.35.88,1.73.16,3.34.39,4.93.63,1.55.28,3.06.57,4.5.96.73.18,1.44.4,2.15.62.71.24,1.44.47,2.08.72,1.33.51,2.64,1.06,4.01,1.76,5.44,2.73,11.93,7.27,18.52,11.86,3.29,2.31,6.59,4.63,9.89,6.95,3.22,2.3,6.42,4.65,9.6,7.03,3.18,2.38,6.34,4.8,9.48,7.24l4.66,3.68,2.3,1.84,1.13.91.55.45.27.22.07.05.03.03s.02.02-.07-.06l-.39-.35-.19-.18c-2.59,2.52,7.01-7.45,11.33-11.7l-10.55,12.41c2.86,2.37,5.62,4.74,8.52,7.25,1.47,1.26,2.95,2.56,4.71,4,1.74,1.43,3.82,3.04,6.18,4.55,2.35,1.51,4.82,2.77,7.04,3.76l.78.34.7.3,1.46.62c.99.41,2.05.84,3.11,1.24,2.13.82,4.43,1.57,6.78,2.23,1.23.3,2.39.64,3.69.88l1.9.38,1.99.29c3.84.66,8.07.94,12.58.39l1.7-.25c.56-.08,1.13-.18,1.72-.34,1.17-.3,2.34-.58,3.47-.96,1.12-.41,2.24-.85,3.34-1.31,1.08-.52,2.12-1.1,3.16-1.68,2.04-1.22,3.97-2.64,5.7-4.25.9-.77,1.7-1.67,2.48-2.53.8-.85,1.46-1.74,2.12-2.63,2.62-3.59,4.4-7.33,5.66-10.95,1.27-3.64,1.99-7.17,2.43-10.73.1-.88.19-1.81.25-2.65.03-.37.06-.93.08-1.41.02-.5.03-.99.03-1.47,0-1.93-.1-3.77-.31-5.6-.81-7.28-3.33-14.45-7.42-20.68-4.05-6.21-9.79-11.39-15.98-14.8-6.19-3.49-12.7-5.34-18.93-6.26-.77-.11-1.55-.21-2.29-.29-.81-.09-1.23-.14-2.45-.23-1.88-.13-3.42-.12-5.03-.08-3.17.1-6.24.4-9.3.96-6.11,1.07-12.14,3.08-17.81,6.05-1.42.73-2.78,1.61-4.15,2.42-1.34.89-2.64,1.85-3.94,2.79-1.24,1.04-2.46,2.06-3.69,3.14-1.27,1.21-2.52,2.48-3.63,3.84-2.28,2.7-4.04,5.52-5.48,8.13-1.44,2.63-2.59,5.1-3.65,7.47-1.05,2.38-2.02,4.67-2.96,6.93l-1.42,3.44c-.5,1.22-.99,2.46-1.45,3.69-1.85,4.92-3.42,9.71-4.92,14.51-2.98,9.57-5.67,19.15-8.34,28.89-1.33,4.85-2.63,9.79-3.97,14.37-1.33,4.58-2.79,8.58-4.8,13.02-.95,4.52-1.33,7.32-.8,8.57.51,1.23,1.95.9,4.28-1.32,2.29-2.24,5.59-6.37,8.98-12.79,3.36-6.48,6.73-15.51,11.02-26.38Z"/>
</svg>