<?xml version="1.0" encoding="UTF-8"?>
<svg id="Layer_1" data-name="Layer 1" xmlns="http://www.w3.org/2000/svg" viewBox="0 0 579.19 480.34">
  <defs>
    <style>
      .cls-1 {
        fill: #414141;
      }
    </style>
  </defs>
  <path class="cls-1" d="M87.62,302.71c1.05-.33,1.29-.89.54-1.34-.74-.45-2.6-.75-5.63-.84-1.51.76-3.06,1.48-4.66,2.14,3.26.22,6.53.24,9.76.04Z"/>
  <path class="cls-1" d="M50.5,286.77c-3.28-1.13-6.9-2.35-9.41-2.84-2.51-.47-3.96-.11-2.74,2.27,3.69,1,5.74,1.81,7.88,2.59,2.13.75,4.31,1.48,8.32,1.91,5.35,2.49,9.17,5.01,7.87,5.59,1.12.08,3.3,1.02,5.71,1.74,2.4.73,5.04,1.23,6.79.7-3.66-1.74-7.7-3.39-12-5.15-4.31-1.73-8.9-3.68-13.67-5.5-1.58-1.59.59-1.13,1.25-1.31Z"/>
  <path class="cls-1" d="M105.31,94.54c.28,1.08.59,2.16.97,3.19-.23-.88-.58-1.96-.97-3.19Z"/>
  <path class="cls-1" d="M237.85,49.37c.04,2.29.48,3.22.71,3.3-.19-1.01-.32-1.99-.41-2.64-.09-.6-.18-.9-.3-.66Z"/>
  <path class="cls-1" d="M275.51,22.66c-1.29.05-2.37.13-3.48.2,1.31.1,2.68.09,3.48-.2Z"/>
  <path class="cls-1" d="M105.31,94.54c-.35-1.41-.65-2.83-.9-4.31-.25-1.46-.51-3.07-.65-4.41-.24-.1-.35.12-.35.58,0,.45.07,1.14.28,2.06.37,1.79.99,4.07,1.62,6.08Z"/>
  <path class="cls-1" d="M.33,225.9c.43,2.14,1,3.84,1.63,5.31-.46-1.63-.85-3.28-1.17-5.02-.15-.07-.29-.14-.46-.28Z"/>
  <path class="cls-1" d="M83.87,84.66c-.82.38-1.62.81-2.42,1.23-.57.64-1.06,1.3-1.49,1.99,1.29-1.07,2.57-2.2,3.91-3.23Z"/>
  <path class="cls-1" d="M30.88,175.05c.11-2.63-2.12-3.6-3.09-4.64.91,1.53,1.33,3.51,1.5,5.82.43.04.93-.3,1.59-1.18Z"/>
  <path class="cls-1" d="M13.49,200.31l-1.14,2.93c.3-.76.8-2.05,1.14-2.93Z"/>
  <path class="cls-1" d="M147.34,89.01c-.35.08-.68.25-.86.43.28.05.55-.11.86-.43Z"/>
  <path class="cls-1" d="M348.59,350.09c-.17.08-.12.24-.22.33.7.21.96.21.22-.33Z"/>
  <path class="cls-1" d="M382.61,478.76l.28-1.89c-.37-.29-.74-.57-1.15-.66l.87,2.55Z"/>
  <path class="cls-1" d="M376.56,35.21c-.11-.1-.16-.13-.27-.21-1.95-.74-.88-.24.27.21Z"/>
  <path class="cls-1" d="M336.92,185.6c5.84,1.7.9,1.73-3.21,2-2.06.16-3.93.33-4.18.73-.25.38,1.11.92,5.44,1.9-.78-.51,3.31-1,5.83-1.56,2.51-.57,3.48-1.51-3.88-3.06Z"/>
  <path class="cls-1" d="M.24,222.44c-.19-1.8-.24-3.68-.2-5.57-.12,2.57,0,4.28.2,5.57Z"/>
  <path class="cls-1" d="M334.96,190.22v.02s1.78.41,1.78.41c-.74-.18-1.15-.28-1.78-.43Z"/>
  <path class="cls-1" d="M441.16,62.6c-.34-.53-1.16-1.11-2.03-1.67,0,.25.47.67,2.03,1.67Z"/>
  <path class="cls-1" d="M407.99,77.66c-.27,1.22-.69,2.4-1.12,3.55.6-1.35.96-2.52,1.12-3.55Z"/>
  <path class="cls-1" d="M511.66,117.34c1.09,2.28,1.26,3.18,3.16,6-.05-.33-.13-.64-.26-1.04-.86-.93-1.8-2.29-2.9-4.97Z"/>
  <path class="cls-1" d="M496.6,187.46c.45.14,1.05.26,1.58.32.41-.07.86-.15,1.32-.23.45-.11.9-.21,1.32-.31-.71.08-1.41.17-2.12.18l-1.05.05-1.05-.02Z"/>
  <path class="cls-1" d="M425.78,330.79c1.82.08,3.01.26,4.09.53-.86-.44,1.14-2.08,1.76-2.88.32-.4.34-.54-.42-.12-.39.18-.96.53-1.82.95-.87.42-1.98.96-3.61,1.51Z"/>
  <path class="cls-1" d="M1.58,225.67c-.65-.56-1.06-1.49-1.33-3.23.13,1.32.33,2.55.55,3.74.38.28.7.3.79-.51Z"/>
  <path class="cls-1" d="M529.15,112.25c2.59,4.86,5.22,9.89,7.58,15.41-1.85-4.69-4.69-10.29-7.58-15.41Z"/>
  <path class="cls-1" d="M194.33,121.4c-1,.44-1.95.98-2.92,1.47,1.18-.43,2.21-.96,2.92-1.47Z"/>
  <path class="cls-1" d="M534.54,184.38c-2.81,2.7-5.79,5.38-9.01,7.77-.51.71-1.19,1.41-1.48,1.96,1.96-1.29,3.8-2.8,5.58-4.4,1.74-1.65,3.42-3.41,4.91-5.33Z"/>
  <path class="cls-1" d="M429.9,331.33s-.03,0-.03,0c0,0,0,.01.03,0Z"/>
  <path class="cls-1" d="M392.18,280.97c3.4,1.23,5.63,1.91,7.07,2.15,1.45.24,2.08.04,2.39-.35.59-.78-.08-2.3,1.68-2.51,2.06.71,3.71,1.32,4.99,1.91,1.3.56,2.25,1.06,2.95,1.5,1.41.87,1.83,1.45,1.89,1.96.12,1-1.1,1.65,1.05,3.59,9.35,4.14,16.89,6.67,21.89,12.66.04.79.91,2.06-.74,1.09,2.31,1.76,4.65,4.09,6.16,6.54.75,1.22,1.27,2.44,1.53,3.59.28,1.15.27,2.3.07,3.51-.39,2.36-1.97,5.03-4.26,7.57-1.13,1.27-2.39,2.5-3.69,3.71-.67.62-1.33,1.23-1.96,1.81-.57.55-1.12,1.08-1.65,1.58-.88.16-1.35.13-1.64.02,2.26.52,3.35,1.58,3.5,2.74-2.69,1.55-5.28,2.97-7.68,3.83-2.39.86-4.45,1.21-5.85.46,4.02-.67,4.14-1.58,5.72-2.6-2.01.85-4.19,1.57-6.44,2.23-3.35-.9-.95-1.45,2.01-2.17,1.5-.35,3.08-.8,4.25-1.29,1.15-.5,1.87-1.05,1.69-1.53-5.27,2.34-12.8,3.92-19.89,5.43-3.54.74-6.91,1.38-10.03,1.7-3.13.34-6.03.36-8.57.06-.5-.7.73-1.03,2.62-1.27,1.89-.24,4.46-.43,6.72-.71,2.25-.27,4.18-.57,4.66-.84.49-.28-.55-.47-3.98-.77,2.61-.05,5.31-.19,8.08-.36l8.27-.54c-6.49-1.3-4-1.56-1.41-1.86,2.56-.32,5.18-.69-.68-2.18-2.64.25-5.1.5-7.28.75-2.1.25-3.99.48-5.74.69-3.37.41-6.02.71-8.69.87-1.33.08-2.66.12-4.07.11-.7,0-1.42-.03-2.17-.07-.74-.04-1.38-.09-2.13-.18-2.94-.34-6.7-1.23-11.44-2.9-2.4.01-2.23.66-2.03,1.31.19.64.4,1.31-2.08,1.28-7.28-1.79-12.15-4.03-15.62-6.07-3.46-2.08-5.56-3.98-7.31-5.79-1.78-1.81-3.24-3.47-5.5-5.22-1.14-.87-2.48-1.78-4.32-2.83-1.82-1.03-4.23-2.24-7.28-3.38-3.36-.78-5.96-.55-9.54-1.2-.89-.15-1.87-.37-2.9-.65-1.02-.27-2.14-.62-3.39-1.09-2.51-.92-5.55-2.27-9.48-4.08,2.18-.35,4.39-.64,6.6-.89-5.27-2.1-8.96-2.94-11.65-3.33-2.7-.37-4.46-.29-6.22-.22-.88.03-1.76.04-2.77.03-1.01-.03-2.14-.11-3.53-.26-2.78-.28-6.55-.99-12.52-1.8,1.07-.26,2.74-.37,4.61-.36,1.86.03,3.87.14,5.64.33,3.54.35,6.1.84,4.41.33-3.76-1.3-6.41-1.78-8.37-1.95-1.98-.17-3.31.04-4.49.34-2.37.62-4.24,1.5-10.12,1.59-.83-.88-1.68-1.78-2.55-2.64-6.12.36-12.35,1.23-18.59,2.65-1.56.36-3.1.72-4.72,1.17-1.6.44-3.33.97-4.92,1.55-1.6.57-3,1.13-4.38,1.66-1.38.53-2.75,1.05-4.14,1.55-2.78,1.01-5.64,1.99-8.53,2.94-2.93.95-5.88,1.9-8.84,2.86-5.91,1.86-11.67,3.55-17.48,4.58,1.19-1.01,4.94-2.52-.56-2.44-.91.19-1.78.35-2.75.52-.98.16-1.96.33-2.94.49-1.96.32-3.89.61-5.79.85-3.81.48-7.47.74-11.01.56-7-.31-14.13-2.45-20.51-5.85-3.2-1.69-6.19-3.75-8.94-6.02-2.76-2.3-5.14-4.76-7.29-7.48-4.29-5.41-7.25-11.46-9.1-17.66-.47-.71-.93-1.44-1.4-2.21l-1.32-2.29c-.44-.74-.85-1.5-1.23-2.28-.41-.77-.79-1.55-1.14-2.35-.25-1.16-.15-2.3.09-2.82.24-.52.63-.44,1.05.76-.35-5.08-.57-5.19-1.16-4.6-.54.58-1.25,1.92-1.94-.57-.34-3.01.03-5.03.46-5.77.47-.76.99-.26,1.37,1.59-.63-4.53-.66-10.2.13-16.62.77-6.14,2.59-12.94,5.37-19.32.69-1.6,1.44-3.15,2.27-4.81.81-1.62,1.65-3.14,2.52-4.64,1.75-2.97,3.66-5.74,5.72-8.21,2.05-2.47,4.24-4.65,6.45-6.5,2.22-1.84,4.49-3.32,6.64-4.49-.87.96-1.77,1.85-2.57,2.85.75-.56,1.48-1.06,2.16-1.55.67-.5,1.31-.98,1.93-1.41.62-.45,1.15-.88,1.74-1.33.63-.47,1.19-.92,1.72-1.35,2.09-1.72,3.61-3.2,5.23-4.55,1.61-1.33,3.29-2.53,5.47-3.37,2.17-.81,4.86-1.33,8.2-.78-.85.11-1.68.35-2.5.53.86-.01,1.72-.09,2.59-.03l1.33.04,1.48.09c1.91.13,3.68.36,5.38.72,1.69.36,3.28.85,4.68,1.48,1.39.64,2.58,1.41,3.57,2.31,1.99,1.77,3.22,4.19,3.62,6.99.2,1.41.19,2.94-.02,4.5-.09.78-.27,1.56-.45,2.33-.11.38-.21.76-.33,1.12-.05.19-.12.34-.18.52l-.14.36c-.68,1.52-1.65,2.9-2.87,4.1-1.23,1.21-2.79,2.25-4.57,3.19-1.82.93-3.81,1.74-6.05,2.56-1.16.43-2.08.75-3.06,1.05-.97.29-1.93.52-2.89.72-3.84.77-7.62.8-11.03.13-.86-.13-1.69-.39-2.5-.59-.82-.28-1.54-.49-2.49-.84-1.7-.63-3.16-1.33-4.48-2.12-1.27.4-3.66-.23-5.96-1.77-2.37-1.5-4.33-3.95-5.49-6.67-1.19-2.72-1.6-5.85-1.9-8.5-.05-.67-.17-1.28-.24-1.87-.06-.59-.15-1.13-.28-1.6-.28-.94-.56-1.66-1.13-2,1.25-4.58,2.75-7.59,3.99-9.96,1.27-2.37,2.35-4.09,3.57-6.09.31-.51.63-1.04.96-1.59.31-.49.64-1.01.99-1.56.33-.56.71-1.14,1.13-1.75.43-.61.82-1.3,1.35-1.99,1-1.4,2.15-3.01,3.68-4.82,1.5-1.82,3.34-3.86,5.73-6.13,2.47-2.49,3.94-4.84,5.66-7.47,1.72-2.62,3.72-5.45,7.44-8.73l1.73,1.77c2.97-3.49,5.76-6.8,8.74-9.9,2.41-.45,4.77-.83,7.1-1.03,2.27-1.57,4.6-3,7.01-4.29-3.04,1.13-6.75,2.14-6.67,1.28,2.76-1.85,6.08-3.45,9.53-4.58.85-.3,1.73-.54,2.6-.77.86-.25,1.74-.43,2.6-.6,1.75-.39,3.26-.55,4.81-.64,3.03-.18,5.83.07,7.9.38,2.07.32,3.38.71,3.48,1.02,5.39-.48,11.14-.73,16.88-1.03,5.75-.28,11.47-.58,17.07-.75-.77.96-6.41,1.16-10.97,1.74,9.15-1.14,9.87-.41,10.49.27.3.34.55.7,1.74.86,1.19.17,3.32.11,7.2-.15-2.01-.74,1.23-1.37,1.64-1.83,3.78,1.13,9.6,2.31,15.32,4.75,5.66,2.34,12.34,6.5,18.3,10.11l-3.14-.05c3.65,2.51,7.36,5.07,11.14,7.67,1.88,1.29,3.78,2.59,5.7,3.9,1.89,1.32,3.79,2.65,5.71,3.99,3.82,2.7,7.67,5.49,11.52,8.36,1.92,1.44,3.85,2.89,5.76,4.37.95.74,1.91,1.49,2.86,2.23l1.42,1.12.7.56.34.28.17.14-.22-.2-.14-.13-.07-.07c-.59.58.49-.55,2.58-2.67l4.97-5.01-6.97,8.2c3.1,2.54,6.14,5.16,9.31,7.96,1.6,1.41,3.26,2.88,5.19,4.45,1.91,1.57,4.23,3.24,6.6,4.62-2.78-1.86-4.39-3.56-5.14-4.65-.79-1.12-.8-1.75-.38-1.96.42-.21,1.35.02,2.69.64,1.35.61,3.17,1.63,5.36,2.78.71,1.41,1.49,2.78,2.3,4.13,1.48.26,1.68.05,1.41-.29-.14-.18-.41-.39-.73-.63-.35-.25-.75-.53-1.1-.78-.7-.49-1.22-.97-.77-1,.42-.04,1.92.35,4.68,1.07,2.54,1.24,4.27,2.18,5.3,2.88,1.01.71,1.29,1.21.99,1.54-.58.65-3.55.53-6.83-.48,2.24.84,4.62,1.63,7.07,2.31,2.45.69,5.03,1.24,7.72,1.57.4.47-.36.64-1.39.77-1,.1-2.25.16-2.87.52,1.76,0,4.25.63,7.6,1.07,3.31.45,7.53.77,12.14-.1,4.59-.83,9.36-3.02,12.77-5.98,3.46-2.95,5.62-6.39,6.39-9.14.42-.17.82-.36,1.2-.55,1.28-2.3,2.18-4.55,2.93-6.73.7-2.17,1.22-4.26,1.6-6.29.37-2.01.61-4.03.72-5.9.03-.43.06-1.03.07-1.53.02-.53.01-1.03.01-1.53-.01-1-.06-1.96-.13-2.91-.63-7.51-2.94-14.14-6.49-19.82-3.56-5.62-8.32-10.35-13.99-13.78-5.66-3.45-12.07-5.68-19.12-6.8-.22.54-1.08.79-2.3.93-.3.04-.65.06-.98.09-.17.01-.34.02-.51.04-.17.01-.34.02-.64.02-1.04.02-1.92.08-2.92.15-1.95.14-4.06.41-6.19.83-2.11.45-4.23,1.04-6.1,1.9-4.86.79-9.86,2.15-14.76,4.41-1.21.6-2.42,1.22-3.63,1.86-1.17.72-2.36,1.44-3.53,2.21-1.13.83-2.26,1.67-3.4,2.55-1.15.98-2.3,2.01-3.34,3.15-2.14,2.25-3.9,4.72-5.4,7.12-1.5,2.41-2.77,4.79-3.95,7.13-1.18,2.34-2.27,4.67-3.33,7-1.03,2.25-2.18,4.86-3.15,7.41-1.15,3.69-1.61,5.8-1.79,7.03-.18,1.23-.03,1.59.19,1.7.46.22,1.27-.5.81,2.87-1.15.18-3.37,5.28-4.96,8.98-1.59,3.7-2.66,6.01-1.72.61-3.65,12.04-5.78,19.78-7.99,28.24-1.12,4.22-2.17,8.54-3.68,13.24-.77,2.35-1.72,4.91-2.89,7.76-1.17,2.83-2.5,5.89-4.16,9.09,2.33-2.24,4.3-5.37,4.06-3.36-1.11,2.48-2.84,5.03-4.38,6.68-1.54,1.66-2.83,2.45-3.01,1.88.2-.4.4-.79.59-1.2-.95,1.71-2,3.29-3.21,4.77-1.41,1.68-2.88,3.35-4.35,4.79-2.96,2.93-6.2,5.21-9.75,6.56-1.79.69-3.58,1.12-5.54,1.4-2.08.29-3.99.36-5.91.23-3.83-.26-7.25-1.39-9.93-3.15-1.33-.91-2.53-1.96-3.56-3.11-1-1.18-1.84-2.44-2.53-3.79-1.38-2.69-2.16-5.84-2.48-8.96-.09-.8-.13-1.49-.16-2.39.03-.73-.01-1.45.02-2.15.09-1.41.21-2.8.48-4.15.5-2.71,1.3-5.36,2.25-7.92-.16.37-.27.76-.41,1.14.72-1.68,1.64-3.35,2.7-4.91.53-.78,1.09-1.54,1.65-2.23l.72-.86c.16-.18.28-.35.54-.56.49-.41,1.17-.91,2.02-1.39.82-.48,1.75-.96,2.72-1.42,1.95-.92,4.03-1.81,6.2-2.63,6.2-1.57,4.46-.66,2.34.43-2.11,1.11-4.47,2.46.14,1.78,6.91-2.83,13.55-4.62,19.92-6.15,6.33-1.51,11.96-2.56,17.36-3.07,10.92-1.02,21.36-.66,33.71-.66,4.6,1.97,10.98,3.53,18.29,5.4,7.3,1.81,15.5,4.03,23.81,6.94,8.3,2.88,16.6,6.45,23.94,10.55,7.34,4.09,13.75,8.69,18.17,13.18l-.32-2c3.05,1.37,4.43,2.72,5.53,4.15,1.08,1.43,1.84,2.89,3.53,4.6.25-1.3-4.53-5.55-.94-3.53,5.43,4.34,10.64,9.21,15.49,14.44,2.43,2.62,4.76,5.33,7.02,8.12,2.25,2.79,4.4,5.68,6.6,8.74,2.19,3.04,4.46,6.23,6.82,9.4,2.35,3.17,4.79,6.3,7.26,9.38,2.51,3.09,4.86,6.05,7.81,9.3,2.93,3.22,6.58,6.54,10.63,9.13.51.32,1.01.65,1.52.95l1.47.86c.9.51,1.89,1.07,2.93,1.59,2.06,1.06,4.27,2.04,6.61,2.85,4.66,1.64,9.96,2.6,15.48,2.28,2.71-.14,5.67-.65,8.49-1.61,2.83-.95,5.43-2.29,7.63-3.7,4.4-2.86,7.59-5.79,10.61-8.52,2.99-2.76,5.72-5.36,8.56-8.07,2.83-2.71,5.73-5.54,8.62-8.68,2.88-3.12,5.73-6.61,8.26-10.39,2.55-3.77,4.72-7.78,6.53-11.82,2.65-5.95,3.34-10.21,3.51-13.33.15-3.15-.31-5.27-.66-7.52-.37-2.25-.68-4.62-.58-8.22.04-1.79.19-3.9.46-6.38.27-2.47.72-5.35,1.29-9.08l2.2,8.37c-.05-5.58.09-11.82-.63-18.4-.36-3.27-.91-6.58-1.69-9.82-.78-3.24-1.74-6.38-2.97-9.54-1.22-3.14-2.62-6.08-3.99-8.76-1.38-2.71-2.74-5.24-4.07-7.77l-4.06-7.65c-1.4-2.59-2.85-5.25-4.6-8.04-.87-1.39-1.82-2.8-2.87-4.19-.52-.69-1.06-1.38-1.61-2.06-.55-.67-1.1-1.27-1.66-1.91-2.22-2.51-4.63-4.84-7.19-6.95-5.1-4.28-10.78-7.68-16.56-10.31-2.89-1.32-5.82-2.45-8.64-3.42-1.37-.46-2.74-.91-4.1-1.36-1.37-.45-2.81-.89-4.28-1.31-5.83-1.71-12.64-2.95-19.46-2.41,1.62-.37,2.46-.64,3.58-.89,1.11-.19,2.51-.33,5.13.06-2.73-.91-6.99-1.54-11.74-1.19-1.19.05-2.38.24-3.6.41-.6.1-1.2.23-1.81.35-.6.12-1.25.26-1.69.37-2,.48-4.35,1.16-6.56,2.02-4.46,1.68-8.58,4.32-11.16,6.81-2.62,2.47-3.77,4.54-3.53,4.81-.82.87-1.42,1.6-1.92,2.14-.47.56-.81.96-1.09,1.23-.55.54-.81.58-1.02.51-.41-.13-.68-.8-2.54,1.8-1.85,2.98-3.16,6.86-3.54,10.79-.39,3.93.02,7.8.79,11.21.76,3.42,1.86,6.41,2.84,8.96.51,1.31.97,2.51,1.38,3.58.44,1.11.81,2.05,1,2.91.14.57-.43-.12-1.17-1.23-.19-.28-.39-.58-.58-.9-.19-.33-.39-.68-.56-1.01-.37-.67-.66-1.3-.91-1.81.49.87,1.05,2.13,1.89,3.55.81,1.39,1.7,3,2.86,4.57,2.23,3.19,5.18,6.39,8.12,8.67,2.92,2.29,5.68,3.83,7.32,4.45.81.34,1.35.43,1.5.3.16-.14-.08-.46-.75-1.16,2.21,1.32,4.49,2.43,6.83,3.29,2.34.86,4.7,1.54,7.27,1.97,4.96.83,9.92.72,14.56-.09,4.65-.81,8.95-2.33,12.9-4.19,3.96-1.86,7.55-4.1,10.9-6.57,1.65-2.22,4-4.91,6.21-8.08,2.23-3.16,4.33-6.78,5.78-10.38,1.49-3.58,2.36-7.12,2.65-9.87.28-2.6,0-4.84-.76-5.66.87.43,1.71-1.48,2.1-4.95.41-3.45.05-8.46-1.31-13.43-1.32-4.99-3.49-9.87-5.7-13.92-2.21-4.07-4.43-7.37-6.09-9.51,1.34,1.3.47-.87-.32-3-.8-2.1-1.51-4.16.16-2.73-1.5-2.63-2.97-5.11-4.41-7.42-1.43-2.3-2.84-4.41-4.11-6.09-2.54-3.37-4.43-5-4.58-3.56-2.3-5.49-5.83-10.61-9.91-14.92-4.08-4.33-8.62-7.84-13.06-10.87-8.91-6.05-17.36-9.82-21.82-15.13-2.02-.87-4.25-1.84-6.42-2.69-2.18-.86-4.37-1.69-6.57-2.44-4.38-1.53-8.79-2.82-13.14-3.95-2.17-.56-4.33-1.07-6.44-1.55-2.09-.47-4.17-.94-6.25-1.4-4.19-.93-8.57-1.84-13.09-2.42-2.25-.29-4.52-.5-6.77-.63-1.13-.06-2.24-.1-3.36-.13l-3.13-.05c-4.19-.05-8.61-.05-13.18.49-2.28.26-4.59.65-6.88,1.23-2.29.55-4.56,1.3-6.75,2.22-2.2.88-4.29,2.02-6.28,3.2-1.95,1.19-3.87,2.54-5.64,4.01-.31-.89,1.59-3.07,4.89-5.28,3.3-2.24,8.28-4.44,13.28-5.56,5.01-1.2,9.83-1.45,13.15-1.76,3.34-.29,5.3-.68,4.98-1.65-4.02.03-8.15.27-12.19.9-4.06.66-8.03,1.76-11.68,3.3-3.65,1.52-7,3.53-9.86,5.65-2.95,2.19-5.58,4.62-7.94,7.32-2.36,2.69-4.44,5.64-6.15,8.86-.42.81-.86,1.61-1.22,2.45l-.57,1.26c-.19.43-.31.74-.47,1.13-.62,1.52-1.31,3.21-1.89,5.1-.57,1.89-1.07,3.96-1.27,6.19-.21,2.23-.14,4.6.29,6.94.81,4.72,3.24,9.26,6.42,12.92,1.63,1.89,2.21,2.57,2,2.63-.21.08-1.16-.57-2.43-1.54-.62-.52-1.3-1.17-2-1.84-.68-.7-1.35-1.52-1.99-2.27-1.21-1.62-2.22-3.2-2.7-4.1.55,1.35,1.29,2.53,2.01,3.72.35.61.78,1.12,1.18,1.67.41.53.8,1.11,1.24,1.57,1.71,2.02,3.58,3.67,5.48,5.16,3.84,2.88,7.79,4.93,11.87,6.53,3.85,1.49,8.25,2.78,12.75,3.22,2.26.24,4.56.31,6.89.12,1.16-.05,2.33-.25,3.49-.41,1.16-.23,2.32-.45,3.45-.79,4.57-1.3,8.82-3.52,12.41-6.49,3.58-3,6.45-6.67,8.52-10.57,2.03-3.93,3.35-8.08,3.94-12.29.57-4.22.56-8.47-.54-12.94.16.02.56.97.88,2.4.32,1.43.57,3.26.64,5.02.04-1.7,0-3.56-.22-5.47-.21-1.9-.62-3.78-1.12-5.3-1.04-3.03-2.16-4.64-2.74-3.97,1,1.81,1.94,3.9,2.62,6.14.05,1.47-.2,2.13-.48,2.17-.31.05-.68-.5-1.2-1.43-.5-.93-1.18-2.22-2-3.61-.83-1.39-1.81-2.86-2.86-4.26-2.1-2.8-4.39-5.5-6.21-7.63-1.82-2.12-3.25-3.64-3.64-3.67,2.19,1.29,2.48.5,1.84-1.32-.64-1.81-2.24-4.64-3.91-7.31-1.65-2.68-3.4-5.15-3.81-6.5-.42-1.32.59-1.64,4.27.49-1.33-1.42-3.01-2.9-4.37-3.82-1.38-.91-2.42-1.27-2.49-.57-1.91-2.13-3.22-3.53-3.33-4.1-.12-.55.99-.31,3.6,1.29-2.03-1.8-3.88-3.12-5.45-4.2-.81-.5-1.54-.96-2.22-1.38-.72-.42-1.42-.79-2.04-1.12-2.55-1.25-4.26-1.73-5.86-2.19-1.55-.41-3.04-.8-5.32-1.41-2.2-.61-5.09-1.41-9.37-2.53.25-.77,3.81-.13,5.92-.46-4.7-.59-9.21-.9-14.31-1.57-5.12-.66-10.76-1.71-17.83-3.6.96-.28-.56-1.25,3.69-.31-6.11-1.29-11.95-2.26-17.85-2.71-5.89-.47-11.81-.27-17.51.53-1.42.18-2.89.41-4.39.69-1.48.29-2.82.6-4.17.89-2.7.57-5.46,1.08-8.34,1.53-5.76.9-11.9,1.57-18.7,1.92,3.8-2.14,1.5-2.18-2.05-2.03-1.77.08-3.95.21-6.08.37-2.13.16-3.75.23-4.29-.4-4.71,1.63-10.13,3.66-15.05,6.82,2.28-.73,4.54-1.26,6.76-1.63-3.34,1.33-6.51,3.11-9.32,5.3-2.8,2.19-5.22,4.76-7.21,7.5-3.91,5.32-6.52,11.3-8.13,17.57.12-1.88.41-3.75.82-5.6.43-1.84,1-3.66,1.7-5.43-2.15,4.25-3.52,9-3.83,13.86-.09,1.21-.08,2.43-.05,3.64.04,1.11.13,2.29.27,3.45.28,2.33.76,4.65,1.5,6.94-.6-2.67-.86-5.32-.88-7.92-.01-2.52.21-5.25.77-7.82-.05.94-.02,1.77.04,2.48.04.71.14,1.31.24,1.81.1.5.2.92.31,1.25.12.32.23.55.34.76.45.79.85.71,1.18.78.34.07.57.27.83,1.57.3,1.28.42,3.69,1.8,8.01-.41-.83-.31-.45.1.7.45,1.14,1.24,3.07,2.65,5.09,1.38,2.04,3.36,4.13,5.58,5.73,2.21,1.63,4.59,2.77,6.4,3.62,0,0-.05-.01-.05,0,1.86.13,3.69.13,5.52-.1,1.83-.19,3.65-.54,5.52-1,1.87-.45,3.79-1,5.81-1.64,1-.32,2.04-.65,3.11-.99,1.1-.35,2.23-.74,3.41-1.18,1.38-.12,1.28.83,1.01,1.84-.28.98-.74,2,.24,1.92,1.39-1.31,3.93-2.95,6.81-5.23,2.89-2.25,6.06-5.29,8.6-8.93.31-.46.65-.9.93-1.37l.84-1.44c.59-.94,1.01-1.96,1.46-2.94.48-.97.77-2,1.11-2.98.35-.98.57-1.96.79-2.91.76-3.81.65-7.15.02-9.31.29,1.43.75,2.24,1.23,2.57.48.33.97.17,1.17-.32-.52-2.06-1.19-4.04-2.04-5.91.03-.82,0-1.56-.02-2.22,0-.66-.04-1.24-.08-1.75-.05-1.02-.09-1.76-.08-2.26.05-1.01.43-1.11,1.18-.73-.68-2.58-1.5-4.36-2.17-5.53-.34-.58-.63-1.03-.87-1.36-.26-.32-.48-.53-.64-.66-.67-.49-.65.37-.69,1.06-.05.71-.15,1.25-.88.3-.39-.46-.89-1.32-1.84-2.62-.43-.65-1.05-1.45-1.91-2.36-.85-.9-1.97-1.84-3.26-2.68.89.41,1.17.48,1.7.68.27.09.59.23,1.08.54.49.3,1.15.74,1.98,1.53-1.14-1.33-2.56-2.46-3.93-3.31-1.38-.88-2.74-1.49-4.09-2.09-2.69-1.12-5.31-1.89-7.92-2.57-5.2-1.34-10.31-2.23-15.35-3.02-10.07-1.57-19.93-3.11-29.72-4.63-2.83-1.77,1.61-1.59,5.89-1.14,4.28.44,8.38,1.07,5.23-.72-7.17-.99-14.78-1.53-22.37-1.27-3.8.11-7.56.42-11.21.76-3.7.35-7.45.78-11.18,1.36-7.46,1.16-14.81,2.94-21.83,5.22-.87.29-1.75.59-2.62.88-.39.12-.97.33-1.46.53-.47.19-.93.38-1.35.57-1.72.76-3.33,1.52-4.94,2.27-3.2,1.51-6.35,2.98-9.48,4.38l4.76-1.91c-.81,2.73-5.63,4.46-11.7,6.5-6.06,2.06-13.38,4.3-19.23,8.45,2.93-1.87,2.98-4.15,2.36-3.32-2.17,1-4.36,2.06-6.6,3.32-2.23,1.26-4.56,2.72-6.77,4.56-2.24,1.83-4.17,3.87-5.99,6.04-1.82,2.19-3.49,4.57-5.01,7.12-1.5,2.56-2.84,5.3-3.98,8.23-1.14,2.97-2.01,5.94-2.73,9.21-1.4,6.48-1.77,13.77-.19,21.29-.59-1.19-1.07-2.42-1.56-3.67.03.76.06,1.56.08,2.38.09.82.17,1.66.27,2.53.13.86.29,1.75.46,2.65.17.86.35,1.67.55,2.55.82,3.51,1.98,7.45,4.01,11.28,1,1.92,2.22,3.8,3.71,5.52.7.88,1.55,1.67,2.35,2.46.87.74,1.72,1.49,2.67,2.1,3.68,2.59,7.87,3.98,11.59,4.49,2.27-.33,5.39-.58,7.21-1.23.93-.25,1.53-.58,1.61-.81.08-.26-.36-.41-1.57-.64,5.19-.03,10.18-1.49,14.65-3.75,4.32-2.24,8.46-5.09,11.88-9.14,1.69-2.03,3.2-4.4,4.18-7.15.99-2.73,1.35-5.86.91-8.83-.43-2.98-1.67-5.73-3.25-7.95-1.58-2.24-3.47-4.02-5.42-5.52-1.96-1.49-4-2.71-6.07-3.75-.52-.25-1.04-.51-1.56-.74-.51-.24-1.01-.45-1.57-.68l-1.63-.66-1.67-.56c-4.48-1.43-9.14-1.9-13.58-1.8-4.46.09-8.74.68-12.91,1.23-2.11.28-4.1.53-6.24.78-2.14.26-4.27.55-6.41.85,3.88-1.21,9.32-3.27,6.09-2.58-9.55,2.53-18.48,6.34-26.92,10.99,1.43.29,2.41.16,3.76-.25.68-.21,1.46-.46,2.46-.72,1-.26,2.19-.57,3.7-.79-2.91,2.37-9.7,6.42-15.56,10.05,5.09-3.69,4.79-4.3,2.42-3.8-1.18.26-2.87.79-4.56,1.46-.85.34-1.71.68-2.53,1-.8.35-1.56.68-2.21.96,1.09-.04-.15,1.53.56,1.75-1.79.66-3.08,1.33-4.07,1.87-.99.55-1.67,1.03-2.11,1.46-.88.86-.96,1.54-1.15,2.35-.19.81-.49,1.74-1.81,3.13-1.3,1.42-3.66,3.18-7.7,6.2l.12-1.44c-2.64,2.75-4.84,5.71-6.89,8.8-2.05,3.09-3.93,6.32-6.01,9.77-1.73.97-1.04-.93.11-3.2,1.13-2.27,2.78-4.83,2.23-5.57-3.44,4.83-5.37,10.45-6.78,15.81-1.45,5.38-2.43,10.56-4.64,15.29.26-2.4.84-5.3,1.57-8.19.73-2.88,1.62-5.74,2.32-8.13-3.37,4.82-4.68,7.88-5.65,10.55-.47,1.34-.84,2.62-1.22,4.06-.38,1.44-.81,3.06-1.35,5.1l.23-.82c-1.78,6.42-2.98,12.92-3.75,19.52.32-1.67.68-3.33,1.06-4.98,1.05,3.77,1.6,7.42,1.96,11.14.37,3.65.37,7.39.46,11.34.09,3.93.28,8.16,1.46,12.5.59,2.16,1.44,4.32,2.58,6.37.59,1.03,1.2,2.01,1.88,2.97.67.97,1.42,1.92,2.21,2.85-1.54-1.8-2.65-3.28-3.51-4.38-.86-1.14-1.45-1.95-1.85-2.46-.81-1.02-.95-.82-.87-.05.1.76.45,2.04.66,3.09.2,1.08.19,1.82-.51,1.78.8,2.44,2.16,5.59,3.28,7.84,1.11,2.25,1.85,3.68.8,2.92,2,1.8,3.79,3.46,5.58,5.12.95.8,1.82,1.64,2.84,2.4.97.81,2.04,1.53,3.17,2.25,2.29,1.37,4.95,2.66,8.14,3.19,3.15.61,6.83.52,10.6-.7.2.17,1.03.13,2.13.01,1.09-.16,2.44-.45,3.67-.77,2.45-.63,4.54-1.3,3.79.12,3.29-1.64,4.53-2.76,4.78-3.09.23-.36-.59-.02-1.77.43-2.34.98-6.29,1.99-5.9,1.3,2.4-1.23,4.72-2.6,7.09-4.31l.92-.7.8-.65c.55-.45,1.1-.93,1.64-1.42,1.08-.98,2.13-2.04,3.15-3.19,1.02-1.14,1.97-2.41,2.88-3.76.86-1.39,1.72-2.84,2.35-4.47,1.36-3.21,2.03-6.93,1.77-10.7-.25-3.77-1.42-7.55-3.31-10.82-1.89-3.27-4.36-6.14-7.25-8.5-2.91-2.34-6.18-4.28-10-5.46-1.88-.62-3.87-.96-5.84-1.14-1.98-.11-3.96-.07-5.85.26-3.29.32-6.06,1.09-8.43,1.96-2.37.87-4.37,1.85-6.15,2.8-1.79.96-3.3,1.89-4.79,2.79-1.5.92-2.92,1.87-4.27,2.86-2.71,1.97-5.21,4.09-7.87,6.7-2.64,2.62-5.46,5.74-8.21,10.07-1.3,1.2-1.79,1.51-1.97,1.14-.08-.18-.07-.52.04-.95.12-.42.31-.94.55-1.5.25-.56.51-1.19.84-1.75.33-.57.67-1.12.97-1.61.3-.49.57-.91.79-1.19.21-.28.34-.45.34-.45-.58.47-1.12.97-1.63,1.49-.51.51-1.03,1.02-1.52,1.54-.46.55-.91,1.09-1.36,1.62l-.66.81c-.21.28-.39.57-.59.85-.78,1.13-1.54,2.25-2.13,3.45-.31.59-.62,1.18-.92,1.77-.25.61-.5,1.22-.74,1.83-1.98,4.86-2.67,10.18-2.21,15.77-.63-2.28-1.36.03-1.98,3.64.24,2.31.67,3.79,1.11,4.91.44,1.12.9,1.87,1.34,2.72.44.84.86,1.76,1.26,3.17.19.69.39,1.53.61,2.57.2,1.04.44,2.25.71,3.69-1.4-1.64-3.44-3.97-5.12-7.88.35,1.28.71,2.47,1.11,3.72.43,1.3.84,2.59,1.35,3.85.96,2.54,2.1,4.99,3.37,7.37,2.52,4.77,5.58,9.21,8.89,13.46.26,1.55-1.11.54-2.85-1.34-1.75-1.86-3.75-4.65-5.04-6.24,1.55,2.77,3.52,5.82,5.72,8.76,1.1,1.46,2.26,2.9,3.4,4.25.55.67,1.19,1.36,1.77,2.03.59.68,1.19,1.33,1.81,1.94,4.82,5.04,9.72,8.34,11.81,8.73-1.79-1.87-3.49-3.8-5.09-5.82,1.54,1.53,1.67,2.21,1.01,2.33-.65.12-2.03-.42-3.31-1.48-4.25-3.2-6.46-6.5-7.54-8.74-1.1-2.3-1.16-3.85-1-4.3,1.59,2.01,3.18,3.88,4.9,5.77-.59-4.47-5.25-10.12-9.5-17.46-2.11-3.66-4.14-7.71-5.6-11.9-.73-2.12-1.34-4.13-1.86-6.16-.52-2.03-.91-4.04-1.1-5.98,1.36,2.02,2.81,3.88,4.3,5.67-1.91-4.75-3.49-9.76-3.94-15.2.57-1.68,1.5-2.95,2.12-2.89.67.07.91,1.42.98,4.99.53-2.52.91-4.34,1.22-5.79.13-.72.24-1.35.34-1.92.1-.58.15-1.12.26-1.63.1-.52.18-1.03.31-1.56.16-.52.35-1.07.6-1.67.46-1.22,1.34-2.59,2.78-4.29.75-.68.66-.22.31.59,1.33-3,3.08-5.86,5.17-8.52-.44.95.29,1.05.53,1.42.24.38.03.99-2.01,3.13,2.99-3.13,5.96-5.62,8.74-7.82,2.79-2.19,5.43-4.04,7.91-5.57,1.24-.76,2.43-1.45,3.61-2.06,1.18-.62,2.31-1.17,3.37-1.61,2.12-.88,4.04-1.37,5.8-1.22l-1.33.63c5.67-2.15,8.7-2.35,10.29-2.69,1.59-.29,1.74-.58,1.69-1.01-.04-.42-.31-.92.68-1.36.25-.11.58-.22,1.02-.31.44-.07.98-.12,1.66-.14.68-.03,1.48.06,2.45.15.94.18,2.08.35,3.32.77,3.33,3.81,5.41,8.19,6.19,12.32,1.06.06,2.2.16,3.29.39.69,1.04,1.44,2.74,1.76,4.09.31,1.37.2,2.35-.37,2.06.47.97.71,1.72.93,2.27.24.54.3.88.42,1.05.21.35.33.05.45-.39.15-.44.15-1,.34-1.14.09-.07.21-.03.37.2.18.23.39.64.58,1.35-.44,3.18-1.53,6.68-3.57,9.88-2.02,3.18-4.88,6.09-7.9,8.13-3.06,2.01-6.33,3.18-8.91,3.47-2.6.32-4.46-.23-5.08-1.18-1.01.46-.87.77-.21,1.03.66.22,1.83.36,2.75.38.92.06,1.58.02,1.22.27-.18.12-.62.31-1.44.5-.41.1-.91.23-1.52.3-.61.1-1.33.19-2.18.21-.23-.27-.48-.51-.75-.72-.27-.23-.57-.44-.88-.61-.32-.19-.66-.32-1.02-.48-.36-.17-.73-.32-1.14-.45-1.61-.51-3.54-1.08-5.65-1.99-2.11-.91-4.37-2.26-6.36-4.15-2-1.87-3.7-4.26-4.76-6.94.45.23.93.58,1.41.97.47.4.95.85,1.43,1.3.46.46.92.9,1.34,1.3.41.41.78.76,1.1,1.01.62.52.94.71.75.21-.18-.5-.93-1.66-2.05-4.08-1.66-.77-3.17-2.4-4.41-4.57-1.29-2.25-2.24-4.76-2.72-7.49-1.02-5.41-.16-11.46-.53-16.34-.73-.11-1.17-1.49-1.41-3.79-.12-1.14-.19-2.52-.23-4.07-.03-1.52-.02-3.21.06-5.02.16-3.63.56-7.74,1.16-11.92.3-2.09.64-4.2,1.02-6.28.4-2.1.8-4.18,1.18-6.19.18.31.8-1.39,1.85-4.25,1.05-2.85,2.58-6.83,4.77-10.98,2.16-4.17,5.04-8.46,8.22-12.12,3.2-3.65,6.68-6.68,9.64-8.86v.65c.05-1.01.84-2.38,2.2-3.94,1.36-1.56,3.29-3.31,5.53-5.17,4.37-3.67,10.02-7.35,14.89-10.3.22.87-.02,1.72-.93,2.8-.92,1.06-2.45,2.41-4.79,4.33,2.95-1.83,5.93-3.63,9.02-5.21.86-1,1.99-1.95,3.66-3.07,1.67-1.1,3.9-2.33,7.02-3.74-.56.99-1.09,2.02-1.62,3.02,3.17-1.36,6.35-2.72,9.65-3.97,1.65-.61,3.32-1.23,5.03-1.77.85-.27,1.72-.54,2.59-.79.92-.25,1.85-.51,2.78-.76,3.72-.99,7.48-1.85,11.33-2.11,1.93-.15,3.85-.08,5.77.16,1.92.24,3.81.73,5.61,1.5.36-.42-.08-1.21-.82-2.09-.73-.85-1.76-1.79-2.31-2.53-.54-.77-.59-1.43.82-1.78,1.38-.29,4.35-.38,9.25,1.58.12.66.09,1.5-.54,1.92-.32.22-.79.35-1.47.32-.34-.01-.73-.07-1.18-.16-.46-.07-.99-.18-1.58-.35.39.11.94.24,1.6.4.65.2,1.39.44,2.18.72,1.59.62,3.29,1.5,4.53,2.63-1.23-.46-2.48-.84-3.73-1.16-1.27-.34-2.53-.56-3.74-.76.85.48,1.52.86,2.12,1.16.62.33,1.08.55,1.49.71.81.32,1.31.38,1.79.4.47.03.94,0,1.6.22.65.23,1.55.67,2.76,1.74-.54.56.15,1.53.69,2.42.55.89.92,1.7.19,1.79-.49-.49-1.23-1.49-2.21-2.47-.97-.98-2.22-1.9-3.37-2.26,1.42.98,2.78,2.13,3.89,3.38,1.11,1.24,1.95,2.58,2.41,3.8.98,2.46.3,4.3-.31,5.02.48-.13,1.01-.14,1.38.4.18.27.38.69.35,1.29,0,.3.01.66-.11,1.06-.11.4-.2.86-.46,1.35-1.28,2.54-2.76,3.83-3.63,4.49-.89.67-1.39.7-1.73.64-.35-.08-.6-.28-1.13-.22-.54.06-1.32.4-2.9,1.31-.44.66-1.28,1.4-2.29,2.15-.93.69-2.02,1.36-3.05,1.94-2.06,1.21-3.85,2.09-3.58,3.26-.88.32-1.61.39-2.21.46-.61.01-1.09-.05-1.5-.15-.82-.19-1.35-.61-2.01-.83-1.39.38-3.78.58-6.24-.04-1.23-.3-2.48-.81-3.64-1.47-1.16-.65-2.18-1.52-3.12-2.39-1.82-1.82-3.12-3.88-3.94-4.94-.42-.52-.73-.78-.92-.66-.2.13-.25.63-.12,1.63.19.55.44,1.06.66,1.6-.2-.26-.38-.59-.62-.92l.03.05-.03-.05c-1.55-2.34-2.72-5.06-3.64-7.96-.94-2.96-1.69-5.86-1.98-8.85-.64-6,.31-12.15,2.35-17.87,1.04-2.9,2.25-5.68,3.73-8.29,1.47-2.62,3.15-5.1,5.01-7.4,1.84-2.29,3.88-4.46,5.99-6.36,2.09-1.88,4.39-3.46,6.88-5.03l.36.71c2.9-1.91,6.27-3.74,9.7-5.55,3.46-1.8,6.95-3.61,10.32-5.37,6.75-3.52,12.98-6.9,17.33-9.86,1.94-.9,4.44-1.64,6.13-1.78.45-.05.73,0,1.07.02.35.03.63.08.84.16.41.15.51.4.16.76,5.05-1.88,7.91-2.91,11.42-3.78,3.52-.82,7.72-1.52,15.6-1.48-5.38,1.14-4.38,1.4-3.95,1.45.22.03.31.02-.57.09-.88.09-2.75.2-6.39.73,6.92-.74,11.22-.48,15.67-.59,1.11-.02,2.25-.05,3.43-.11,1.21-.06,2.44-.15,3.74-.26,2.62-.25,5.63-.54,9.38-.9-2.59.91,0,1.6,4,2.23,4,.62,9.5,1.37,12.89,1.61-3.2-1-6.38-1.94-9.58-2.77,7.48.53,14.07,1.91,20.79,3.29l-4.11,1.97c3.52,1.04,7.11,1.91,10.49,2.63,3.38.7,6.64,1.34,9.81,1.92,3.14.6,6.18,1.18,8.9,1.84,2.74.64,5.03,1.48,6.03,2.1.16.08.28.2.44.29.17.16.34.29.53.51.36.4.77.77,1.08,1.22l.51.65.45.7c.33.45.56.97.84,1.46,1.03,2.02,1.62,4.36,1.81,6.72.19,2.37-.08,4.79-.79,7.02-.33,1.12-.82,2.17-1.36,3.15-.29.48-.62.93-.94,1.38-.16.22-.31.45-.49.66l-.57.59c-.21,1.5.06,1.67.62,1.07.28-.3.65-.78,1.03-1.37.33-.62.71-1.34,1.08-2.08,1.38-3,2.05-6.66,2.76-3.5-.59,2.92-1.8,5.66-3.46,7.86-1.64,2.22-3.65,3.93-5.64,5.19-4,2.54-7.75,3.3-9.24,4.01-.87.3-1.67.57-2.43.81-.85.27-1.65.53-2.39.77-1.45.48-2.61.87-3.66,1.24-2.07.72-3.61,1.37-5.2,1.85-1.58.47-3.24.81-5.22.43-1.94-.37-4.34-1.58-6.13-4.6.05.5.04,1.07-.08,1.5-.13.44-.42.77-1,.76-.29,0-.66-.1-1.08-.36-.43-.25-.96-.62-1.5-1.23-1.1-1.19-2.49-3.25-3.42-6.62-.58-3.19-.34-5.94.11-7.81.51-1.9,1.21-3.05,1.86-3.56.63-.51,1.15-.38,1.49.27.32.65.52,1.82.61,3.5.03.65,0,1.16,0,1.7,0,.55-.02.94-.05,1.28-.06.66-.17.97-.34.93.33,1.83,1.01,3.8,1.57,4.68.6.88.89.81.84-1.25-.43-.34-.81-.73-1.23-1.12-.02-1.36-.1-3.33.07-5.48.15-1.98.59-4.06,1.25-5.81.66-1.75,1.51-3.16,2.13-3.9.65-.73,1-.8.97.09.68-1.77,1.24-2.86,1.42-3.47.21-.61.07-.72-.35-.45-.81.53-2.63,2.57-3.97,5.25.81-1.51,1.7-2.88,2.62-4.15.48-.63.94-1.22,1.46-1.85.53-.62.98-1.11,1.47-1.64,1.97-2.02,4.02-3.69,6.42-5.09,2.38-1.43,5.06-2.58,8.28-3.59.81-.25,1.65-.5,2.55-.74.46-.12.92-.25,1.38-.37.49-.13.86-.22,1.28-.31.81-.18,1.52-.3,2.37-.39.84-.1,1.85-.17,2.93-.23-1.41-.11-2.63-.35-3.22-.6-.56-.24-.63-.53.59-.71,2.95-.25,5.76-.42,7.89-.64,2.17-.2,3.84-.41,5.14-.62,2.61-.42,3.76-.83,4.65-1.27,1.77-.88,2.44-1.75,11.4-3.19,5.22-.03,4.43.94,4.59,1.46.07.26.41.39,1.75.22.67-.08,1.52-.22,2.68-.4,1.18-.17,2.84-.39,4.91-.6,2.55.17,3.92.52,4.52.83.59.31.4.61-.21.9-1.22.54-4.1,1.13-6.03,1.64,3.63-.67,7.11-.7,10.49-.35,3.38.38,6.66,1.15,9.79,2.04,6.26,1.81,11.87,3.98,16.41,5.16l-8.58-1.13c5.09.66,9.28,1.61,13.44,2.56l-4.38-2.93c4.89,1.43,9,2.39,8.72,3.15,5.27-.01-3.07-4.03,7.2-3.24,3.06,1.29,7.88,2.35,11.6,3.92,1.87.77,3.47,1.66,4.59,2.58,1.07.91,1.82,1.93,1.85,2.73-.45-.37-.88-.71-1.28-1.03-.38-.27-.72-.52-1.05-.76-.68-.43-1.24-.81-1.77-1.06-1.02-.55-1.75-.79-2.18-.89-.9-.18-.73.29-.52.81.2.54.44,1.13-.18,1.24-.64.12-1.99-.27-5.76-1.41,3.01.66,6.3,1.92,9.09,4.17.28.54-.69.13-1.61-.22.72.58,1.24,1.07,1.85,1.61.62.58,1.21,1.05,1.7,1.52,1.02.89,1.81,1.6,2.53,2.12,1.39,1.07,2.37,1.48,3.44,1.88,1.05.42,2.19.81,3.79,2.07,1.59,1.27,3.63,3.39,6.33,7.6-1.28-.68-1.22.65-.6,2.49.61,1.83,1.83,4.3,2.85,5.68-2.19-3.62-2.19-4.74-1.06-4.28,1.12.44,3.51,2.67,5.88,5.6,2.84,5.9,3.49,7.81,4.14,9.72.58,1.88,1.07,3.64.58,6.44.5-2.09.76-4.33.67-6.33.84.9,1.3,2.88,1.18,5.64-.15,2.75-.93,6.24-2.65,9.93-.32.02-.31-.4-.16-1,.07-.3.2-.64.32-1,.11-.37.23-.75.35-1.11.45-1.47.8-2.67.11-1.42-.12,2.26-1.04,4.54-2.52,6.48-1.48,1.95-3.51,3.54-5.78,4.67-2.29,1.15-4.79,1.78-7.35,2.12-2.56.36-5.27.4-8.28.36-1.33-.45-1.96-.92-2.26-1.3-.3-.39-.25-.71-.2-1.02.11-.65.3-1.13-1.8-2.16-.43-.1-.85-.19-1.26-.28-.37-.09-.73-.18-1.07-.28-.69-.2-1.33-.42-1.92-.67-1.19-.48-2.18-1.03-3.01-1.6-1.65-1.14-2.72-2.33-3.46-3.5-.73-1.17-1.18-2.29-1.53-3.39-.08-.28-.22-.55-.24-.85-.07-.3-.19-.6-.25-.93-.12-.67-.25-1.38-.23-2.5-1.17,1.06-1.47,1.83-1.83,1.48-.16-.19-.36-.63-.45-1.6-.08-.98-.07-2.46.55-5.06-1.45,3.87-1.68,6.69-.72,9.22.79,2.52,2.87,4.76,5.76,6.73-4.16-1.99-7.1-4.73-8.19-8.93.01,1.47.41,2.97,1.1,4.3.66,1.34,1.59,2.56,2.72,3.6.5.55,1.16,1,1.7,1.48.62.43,1.17.89,1.78,1.26,1.15.79,2.28,1.43,3.16,2.04-3.55-1.14-4.88-2.09-5.29-2.05-.38.02.15.91,1.17,2.62-3.42-4.19-6.35-7.3-7.57-11.85-.55-2.24-.5-4.79.34-7.48.42-1.35,1.01-2.7,1.75-4.14.37-.7.75-1.3,1.15-1.95.45-.6.88-1.23,1.4-1.79,1.26.95,2.53,1.88,3.81,2.8,2.49-3,5.14-5.54,8.06-7.84.73-.57,1.47-1.12,2.24-1.65.79-.56,1.6-1.02,2.37-1.53,1.59-.94,3.26-1.76,5.07-2.46,3.61-1.4,7.88-2.19,13.02-2.32,1.29-.03,2.62-.03,4.01,0,.7.02,1.41.04,2.13.07.71.03,1.42.07,2.15.11,2.76.16,5.59.55,8.55,1.22-2.51-.72-5.03-1.31-7.63-1.78,1.71-.82,5.51-.54,9.84.42,4.32.93,9.3,2.53,13.54,3.3-1.17,1.32,3.8,3.25,6.8,5.22-.03-.62,4.38.73,9.04,2.26,4.68,1.51,9.63,3.3,11.35,2.39,1.53,1.12,3.17,2.32,4.7,3.48,1.55,1.17,3.05,2.35,4.49,3.55,4.28,2.62,7.59,4.6,10.52,6.26,2.99,1.65,5.49,3.04,7.98,4.41,2.51,1.42,4.95,2.95,7.54,5.11,2.58,2.16,5.28,4.98,8.03,9.1-2.44-1.92-2.56-.86-3.17-.6-.3.13-.73.08-1.62-.59-.9-.66-2.25-1.94-4.57-4.09,4.17,4.67,7.04,9.64,8.03,9.11.65,1.82,3.5,5.31,6.37,9.38,2.88,4.07,5.88,8.54,6.72,11.59.98,1.07,1.97,1.62,3.11,2.73,1.14,1.12,2.51,2.81,4.07,6.19.06.87-.71.31-.71.31.18-.08.64.51,1.22,1.33.54.83,1.22,1.89,1.79,2.77,1.12,1.75,2.08,2.79,1.68-.57.41,2.61.96,5.38,1.4,8.25.42,2.88.74,5.86.77,8.93-.02.77,0,1.54-.03,2.31-.05.78-.1,1.56-.15,2.34-.1.78-.19,1.57-.29,2.36-.08.79-.25,1.66-.38,2.45-.57,3.22-1.47,6.34-2.76,9.26-2.56,5.85-6.94,10.67-11.94,13.56-4.96,2.93-10.25,3.92-14.16,3.25-3.07.52-6.42.43-9.69-.13-1.66-.32-3.36-.8-5.01-1.39-1.65-.6-3.24-1.34-4.77-2.16-3.01-1.69-5.64-3.85-7.67-6.31-1.01-1.23-1.89-2.54-2.61-3.88-.77-1.28-1.31-2.73-1.8-4.12.7.56.72-.2,1.36,1.89-.58-1.9-.98-3.52-1.3-4.85-.34-1.34-.6-2.42-.87-3.35-.51-1.85-1.08-3.1-1.51-4.5-.22-.7-.44-1.44-.5-2.29-.13-.87-.05-1.82.12-2.99.13-.57.33-1.17.55-1.84.23-.66.63-1.32,1.01-2.08.88-1.44,2.16-3.01,4.07-4.42,2.26-1.08,2.98-.93,2.8-.53-.09.21-.37.53-.75.92-.4.37-.85.85-1.33,1.33-1.9,1.95-3.44,4.58-1.58,2.62,2.83.61,5-2.68,11.12-5.19,1.5-.64,3.15-1.19,5.1-1.73,1.73-.47,3.43-.84,5.18-.95,1.74-.11,3.49-.03,5.15.26,1.67.32,3.26.85,4.69,1.55-1-.11-1.99-.2-2.96-.25,2.19.78,4.66,1.48,7.58,2.29,3.05.83,6.35,1.74,9.84,2.69,3.42.94,6.9,2.08,10.35,3.69,3.43,1.62,6.8,3.73,9.79,6.44,0,0-.9-.15-.59.53,2.46,1.27,5.3,3.32,7.96,5.95,2.63,2.62,5.14,6.27,7.65,10.25,2.49,3.98,5.03,8.23,7.41,12.33,2.38,4.12,4.48,8.08,5.87,11.96-1.74-2.13-2.7-3.68-3.27-4.34-.59-.66-.73-.35-1.12,1.43,1.4,3.2,1.94,2.48,2.91,2.54.47.04,1.02.28,1.75,1.42.7,1.14,1.65,3.17,2.42,6.84-.12,2.49-.25,6.4-.89,9.85-.61,3.44-1.6,6.46-2.73,7.12.21-4.71.21-9.18-.34-13.51-1.01,3.48-.9,7.56-.8,12.12.06,2.26.14,4.63.16,6.89.02,2.24-.04,4.31-.34,6.12l-1.16-1.04c-.35,5.27-.72,9.04-1.09,12.26-.39,3.2-.75,5.83-1.29,8.5-.56,2.66-1.29,5.39-2.66,8.61-1.39,3.21-3.44,6.88-7.08,11.25.75-.4,1.46-.83,2.21-1.26-1.3,2.95-2.62,4.85-3.81,6.21-1.2,1.36-2.31,2.18-3.43,2.97-2.25,1.59-4.6,3.07-8.38,8.51-1.67.18-3.34.36-4.99.51-1.37,1.6-3.22,3.81-5.42,6.05-2.23,2.21-4.69,4.29-7.87,5.37-3.24,1.12-7.24,1.32-11.11.59-3.89-.69-7.67-2.29-10.98-4.01.52.14,1.07.28,1.65.44.59.16,1.2.34,1.85.52,1.26.35,2.59.7,3.98,1.01,2.78.61,5.79.98,8.66.81,1.43-.1,2.83-.32,4.14-.66,1.29-.36,2.42-.84,3.46-1.44,2.05-1.17,3.91-2.95,5.56-4.79-1.43,1.18-3.3,2.66-5.19,3.57-.95.47-1.94.83-3.03,1.1-1.1.27-2.37.4-3.59.47-2.48.1-5.03-.26-7.21-.72-2.18-.47-3.98-.97-5.05-1.06,1.45.54,3.11.96,4.7,1.31,1.6.36,3.11.65,4.41,1.1-2.16.3-4.66.16-7.34-.47-1.35-.31-2.73-.74-4.18-1.3-1.5-.58-2.85-1.14-4.26-1.91-2.79-1.5-5.49-3.61-8.14-6.24-2.64-2.65-5.33-5.72-8.02-8.97,1.66-.41.79-2.77-1.38-6.32-2.19-3.55-5.54-8.33-9.36-13.73-3.82-5.41-8.35-11.16-12.37-16.08-4-4.96-7.49-9.23-9.03-12.33-3.07-2.52-6.14-5-9.3-7.44-3.16-2.45-6.43-4.82-9.67-7.07-6.51-4.52-13.22-8.81-20.31-12.83-7.08-4.03-14.57-7.72-22.54-10.95-7.97-3.21-16.47-5.98-25.57-7.84,2.95,1.85,3.72,2.69,3.3,2.9-.42.21-2.05-.14-4.02-.54-3.92-.84-9.2-1.66-8.51.94-8.32-1.07-11.5-1.33-12.21-1.76-8.33-1.84-16.85-3.14-25.54-3.78-3.11-.55-1.09-.96,1.63-1.26,2.72-.32,6.12-.5,5.73-1.04-4.74-.1-7.62-.14-9.47-.28-1.85-.14-2.68-.36-3.3-.64-1.27-.51-1.66-1.34-8.21-1.23,1.44.71-.2,1.51-3.52,2.33-3.33.83-8.23,1.79-13.37,2.55,4.91-.27,10.01-.55,15.21-.53-6.54,1.62-10.98,2.69-14.6,3.21-3.63.55-6.34.61-9.17.71-2.84.1-5.7.22-9.43.94-1.87.35-3.96.87-6.38,1.64-2.43.78-5.19,1.81-8.49,3.41,2.7-1.57,5.34-2.97,7.96-4.26-1.65.61-3.67,1.3-6.03,2.2-2.37.92-5.02,1.93-8.32,3.72-.83.46-1.71.98-2.67,1.64-.46.3-.98.7-1.46,1.07l-.73.6-.64.56c-1.59,1.47-2.77,2.77-3.99,4.22-2.38,2.86-4.5,6.01-6.22,9.46-3.5,6.84-5.12,14.95-4.44,21.86.5,6.67,2.79,12.22,5.2,15.53.15.72.27,1.52.37,2.21.11.69.14,1.27.04,1.57-.1.3-.34.3-.8-.19-.47-.49-1.1-1.49-1.9-3.21.91,2.4,2.09,4.79,3.54,7.08,1.51,2.26,3.23,4.47,5.29,6.39,4,3.91,9.14,6.81,14.52,8.44,5.41,1.58,10.93,1.9,16.08,1.31,2.58-.28,5.12-.79,7.47-1.45,2.54-.65,5-1.61,7.34-2.72,4.7-2.21,8.69-5.29,12.03-8.41,1.67-1.57,3.17-3.16,4.56-4.68.67-.75,1.33-1.49,1.99-2.22.66-.74,1.44-1.63,2.11-2.46,2.74-3.39,4.87-6.7,6.84-9.84,1.94-3.14,3.68-6.11,5.32-8.86.01.92-.01,1.85-.02,2.78,1.23-2.87,1.83-5.49,2.63-8.32.79-2.82,1.76-5.84,3.52-9.29.35.52.35,2.74,1.32.04.32-1.63.98-5.59,1.85-9.93.87-4.35,2.04-9.17,3.47-12.71l-.57,6.61c5.02-14.15,7.65-25.33,10.21-35.71.64-2.59,1.29-5.1,2-7.57.7-2.43,1.59-5.13,2.43-7.7,1.75-5.16,3.58-10.49,6.61-14.63.69.56,1.96.09,3.64-.67.44-.2.92-.42,1.44-.66.52-.25,1.07-.53,1.62-.83,1.19-.5,2.39-1.16,3.76-1.66,2.68-1.09,5.72-2.01,8.73-2.56,3.01-.56,5.97-.76,8.28-.73l-.29.52c.84-.04,1.68-.05,2.47-.03.8.01,1.55.05,2.05.11,1.87.2,3.34.43,4.86.75,2.99.64,5.64,1.59,7.95,2.79,2.3,1.2,4.23,2.69,5.9,4.46.88.85,1.59,1.87,2.31,2.87.66,1.04,1.27,2.13,1.79,3.3,1.01,2.32,1.71,4.96,1.96,7.53.03.32.05.62.07.92.02.26.02.74.02,1.05,0,.7-.02,1.41-.07,2.12-.1,1.42-.29,2.84-.61,4.19-.61,2.71-1.63,5.16-3.11,7.03-.17.26-.37.47-.57.68-.21.21-.39.45-.61.64-.46.35-.87.81-1.4,1.08l-.75.5c-.28.12-.55.25-.83.39l-.42.21-.46.14-.93.32c-2.01-.16-4.48-.59-7.5-1.49-3.02-.91-6.5-2.38-10.45-4.36-.95-.48-2.18-1.09-2.99-1.54-.9-.48-1.73-.97-2.52-1.49-.79-.51-1.55-1.09-2.35-1.73-.81-.67-1.67-1.4-2.59-2.23-1.95-1.78-3.94-3.59-5.95-5.43-2.09-1.89-4.24-3.79-6.41-5.68l.58.53c-.21-.21-.43-.41-.66-.6l-.24-.2-.3-.25-.59-.5-1.17-.98-2.33-1.93c-1.56-1.27-3.12-2.54-4.67-3.8-3.12-2.51-6.24-4.97-9.32-7.38-6.18-4.78-12.12-9.38-17.53-13.56,3.74,3.35-2.2,1.8-7.23-1.19-2.99-2.46-7.82-4.95-11.72-6.98-3.91-2.03-6.91-3.56-5.58-4.69.88.49,1.76.98,2.61,1.48-.98-1.45-2.74-3.04-5.22-4.58-1.23-.77-2.64-1.52-4.19-2.22-.77-.35-1.59-.67-2.42-1-.82-.3-1.66-.6-2.52-.88-3.47-1.11-7.29-1.89-10.97-2.38-3.7-.49-7.26-.72-10.5-.92-.79,1.37-1.56,2.74-2.31,4.12-4.09-.94-8.47-1.56-13.01-1.99-4.55-.43-9.23-.68-14.11-.8-4.88-.1-9.91-.11-15.25.3-2.67.21-5.42.54-8.19,1.06-2.76.51-5.59,1.29-8.06,2.12-10.19,3.27-19,8.56-25.87,13.31-3.46,2.37-6.51,4.57-9.22,6.33-2.68,1.74-5.1,3.08-7.3,3.99-2.76,2.95-6.11,6.15-9.29,9.64-3.19,3.48-6.18,7.28-8.29,11.03l-1.53-1.73c-3.79,4.83-6.59,9.52-8.82,14.11-.28.58-.55,1.15-.82,1.71-.23.52-.47,1.03-.7,1.55-.46,1.05-.93,2.11-1.37,3.2-.9,2.16-1.72,4.42-2.49,6.75-1.48,4.72-2.75,9.88-3.09,16.24-.07.78-.03,1.63-.04,2.46.02.84-.01,1.68.07,2.57.16,1.78.29,3.59.73,5.53.31,1.92.99,3.92,1.67,5.97.88,2.01,1.75,4.13,3.1,6.12l-1.36-1.48c-.45-.5-.81-1.05-1.21-1.59l-1.17-1.66c-.19-.28-.39-.56-.57-.85l-.49-.87c.1.33.21.65.31.96.12.32.26.62.4.93.27.61.55,1.2.83,1.77.29.57.55,1.13.87,1.66.34.51.68,1.01,1.02,1.49.7.95,1.33,1.87,2.08,2.65.75.77,1.46,1.53,2.24,2.13,3.04,2.53,6.09,3.9,9,4.83,2.93.92,5.75,1.41,8.73,1.92,1.45.24,2.98.49,4.64.77,1.66.28,3.2.55,5.18.94,1.33,1.41,2.79,2.77,4.38,4.03,2.19.19,4.38.25,6.57.16,2.19-.07,4.36-.3,6.51-.65,2.15-.35,4.27-.83,6.35-1.42,1.04-.29,2.06-.63,3.06-.97l2.7-.96c3.62-1.32,7.8-3,11.86-5.88,2.02-1.42,3.99-3.19,5.71-5.23,1.73-2.05,3.17-4.3,4.32-6.78.56-1.29.87-2.2,1.19-3.19.3-.97.56-1.94.78-2.92.43-1.96.7-3.98.79-6.05.16-4.13-.43-8.6-2.26-12.77-1.77-4.15-4.66-7.86-8.17-10.56-3.51-2.73-7.43-4.26-11.12-5.09.34-.14.82-.39,1.92-.34.55.04,1.26.16,2.17.42.46.15.97.34,1.54.58.57.23,1.2.52,1.88.93-3.91-2.46-9.9-4.53-15.97-5.29-1.51-.19-3.04-.34-4.48-.42l-1.03-.06-1.24-.03c-.83-.01-1.66-.05-2.5,0-3.34.09-6.67.57-9.71,1.35-6.1,1.57-10.83,4.18-13.47,6.15-2.65,2-3.42,3.4-1.82,3.76-.23-.3-.8-.3-1.61-.04-.85.28-1.79.69-3.19,1.55-2.72,1.56-6.15,4.26-9.51,7.65-3.37,3.39-6.63,7.52-9.25,11.72-2.66,4.18-4.73,8.39-6.24,11.8-.27-1.04-.54-2.08-.77-3.14-.51,1.58-.9,2.96-1.23,4.19-.31,1.24-.6,2.34-.86,3.37-.52,2.09-.96,3.87-1.44,5.81-.5,1.89-1.04,3.92-1.75,6.56-.69,2.62-1.55,5.81-2.39,10.12-.62,1.99-1.22,2.81-1.5,2.44-.27-.36-.2-1.94.78-4.57-1.16,3.29-1.64,5.8-1.83,7.69-.19,1.87-.15,3.35-.07,4.91.06,1.56.17,3.21.13,5.51,0,2.3-.15,5.26-.22,9.51-.58-2.08-1.12-4.2-1.53-6.35-.11,3.65.04,6.34.3,8.4.11,1.03.25,1.91.42,2.69.17.77.31,1.45.51,2.06.78,2.45,1.62,4.06,3.4,7.66.36,1.07.83,2.24,1.24,3.53.43,1.26.89,2.61,1.37,4.01.97,2.81,2.07,5.79,3.2,8.55,2.23,5.54,4.67,10.19,4.54,11.69,1.1.43,3.2,1.98,5.81,4.06,2.59,2.11,5.78,4.69,8.97,7.47.47,1.3-2.32-.18-3.68-1.06,4.48,4.23,9.09,7.13,13.47,9.21,4.4,2.07,8.6,3.32,12.58,4.18,7.98,1.73,15.28,1.89,23.51,2.39.39.72,1.49,1,2.87,1.11-4.7.43-9.43.55-13.72.17-4.3-.35-8.09-1.12-11.11-1.94-6.06-1.67-9.31-3.29-8.6-3.04-.19.48.59,1.22,1.7,2.03,1.11.8,2.57,1.61,3.65,2.32,1.09.67,1.81,1.26,1.4,1.62-.42.36-1.97.57-5.43.13,3.38.77,7.38,1.38,11.79,1.64,4.41.25,9.19.06,13.76-.53,4.58-.57,8.93-1.44,12.99-2.16,1.01-.17,2.01-.34,2.99-.51,1-.15,1.98-.3,2.95-.45,2.01-.29,3.97-.56,5.83-.8.75.06,1.48.11,2.09.31l-1.48.53c3.47-.47,6.42-1.37,9.08-2.4,4.58-.82,7.41-1.35,11.61-2.47.52.3,1.79.23,3.52-.08,1.76-.32,3.99-.87,6.39-1.57,2.4-.69,4.99-1.53,7.38-2.36,2.44-.84,4.35-1.53,5.73-1.87-.55-1.02,1.12-1.96,2.09-2.6.48-.32.74-.58.35-.76-.39-.18-1.43-.31-3.43-.25.51-.05.24.08-.67.4-.98.35-2.62.93-4.78,1.7-1.03.41-2.27.84-2.93,1.19.12-.1.26-.22.42-.34-4.63,1.56-10.7,3.29-17.44,5.17,5.2-2.63,10.71-5.04,18.88-6.38,1.58-1.27,3.17-2.59,4.56-3.68,1.39-1.09,2.73-1.97,3.74-2.56,5.04.48,12.09.59,18.14,1.31,6.06.65,11.07,1.77,12.22,2.8,4.99-.1,10.5.41,16.01,1.43,5.52,1.01,11.06,2.6,16.47,4.42,2.74.94,5.42,1.86,8,2.74,2.54.87,4.91,1.73,7.12,2.57,2.25.88,4.37,1.71,6.31,2.46,2.02.79,3.99,1.49,5.78,1.95,2.9,1.42,4.39,2.57,5.37,3.61.98,1.05,1.46,1.96,2.4,2.81-3.56-1.29-7.48-3.61-9.53-4.16,2.94,1.48,6.63,3.34,10.52,5.1,3.89,1.78,7.98,3.47,11.88,4.94,7.77,2.94,14.81,4.57,16.7,3.59,3.79,1.5,5.17,2.13,5.34,2.51.18.36-.83.4-1.65.43-.81.02-1.42.02-.44.38.49.17,1.38.43,2.87.78,1.49.34,3.57.79,6.55,1.16-1.12.15-2.23.26-3.34.35,1.41.42,2.84.79,4.32,1.08,1.49.29,2.82.51,4.22.68,2.76.35,5.51.51,8.19.5,5.36-.02,10.33-.7,14.89-1.47,4.56-.77,9.07-1.62,13.74-2.85,4.64-1.23,9.61-3.03,14.01-5.86,1.1-.7,2.16-1.45,3.16-2.24.53-.4.97-.77,1.42-1.14l1.4-1.18c1.87-1.61,3.71-3.39,5.41-5.38,1.7-1.99,3.26-4.2,4.51-6.7,1.25-2.49,2.15-5.29,2.46-8.22.19-1.46.16-2.96.05-4.46-.17-1.49-.42-2.99-.87-4.42-.84-2.9-2.19-5.56-3.72-8.05-1.53-2.5-3.27-4.83-4.97-7.15-1.69-2.33-3.67-4.84-5.79-7.22,2.38,2.64,3.44,4.07,3.57,4.92-4.68-5.49-10.4-10.06-16.48-13.84-6.08-3.81-12.58-6.81-19.2-9.39-6.44-2.47-13.11-4.92-20.08-6.72-3.48-.9-7.02-1.65-10.61-2.22-3.59-.53-7.2-.92-10.83-1.06-3.62-.12-7.25-.13-10.85.15-1.83.11-3.53.26-5.28.42-1.74.16-3.51.34-5.27.55-7.06.82-14.24,2.28-21.11,4.98-3.42,1.39-6.75,3.07-9.89,5.1-3.09,2.1-6.05,4.45-8.63,7.17-2.63,2.68-4.92,5.66-6.89,8.82-1.99,3.16-3.64,6.49-5.01,9.94-.73,1.97-1.25,3.78-1.63,5.43-.19.82-.34,1.61-.46,2.36-.11.71-.2,1.33-.28,1.98-.31,2.55-.34,4.72-.15,6.66.19,1.95.53,3.7,1.04,5.58.53,1.88,1.18,3.89,2.21,6.3-.21.7-.42,1.42-.59,2.17-.15.74-.29,1.5-.42,2.28.44.7.9,1.38,1.35,2.05l1.51,1.92c1.05,1.23,2.3,2.46,3.66,3.48,2.77,2.05,5.5,3.06,8.01,4.02,2.58,1.21,4.95,2.44,7.19,3.8,1.12.68,2.22,1.37,3.22,2.08,1.02.73,2.03,1.5,3.02,2.29,3.96,3.18,7.67,6.64,11.56,10.14,3.89,3.51,7.97,7.1,12.65,10.62,4.66,3.53,9.96,6.96,15.93,10.39-.58-1.15-1.2-2.3-1.83-3.46,1.95,1.56,4.52,3.51,6.97,5.64,1.2,1.07,2.36,2.18,3.22,3.29.99,1.32,1.93,2.64,2.73,3.95,3.23,5.25,4.51,9.98,3.4,9.51.61.79,2.71,2.4,2.91,6.37l-1.14.62c.7,1.88,1.37,3.81,2.02,5.77l.97,2.95c.3.96.63,1.92.9,2.89,1.16,3.87,2.1,7.82,2.81,11.84.17,4.73-.25,6.93-.73,7.98-.49,1.05-1.11.96-1.69,1.14-.59.18-1.13.62-1.56,2.72-.22,1.05-.41,2.51-.57,4.62-.14,2.03-.32,4.64-.56,8-.04,5,.07,12.19.05,17.76,0,5.55.08,9.48.93,7.68.48-2.02,1.19-4.58,1.91-6.67.72-2.08,1.47-3.7,2.11-3.76-.26,3.17-.61,6.34-1.06,9.51,1.64,1.23,2.99,3.89,4.88,3.4.94-.23,2.05-1.3,3.35-3.8,1.28-2.5,2.79-6.45,4.2-12.55-.05-5.83-.39-11.63-1.01-17.36l1.88-5.42v3.54s-.06,3.63-.06,3.63c-.06,2.43-.17,4.86-.34,7.28,1.16-4.06,1.32-7.48,1.08-10.57-.25-2.95-.86-5.72-1.43-8.64.93-1.41,1.55-3.89,1.66-7.45-1.59-5.74-3.6-11.33-5.97-16.64.48-1.17,1.62.55,2.38,1.17.39.31.7.33.82-.46.06-.4.06-.99,0-1.85-.04-.43-.09-.93-.16-1.5-.07-.55-.16-1.13-.26-1.81-3.42-7.13-1.42,7.96-5.52-4.23-.21-4.17.03-5.87-.12-7.61-.22-1.73-.76-3.63-3.59-8.11.11-.87.56-.88,1.23-.2.68.68,1.59,2.07,2.54,3.95-1.12-2.1-2.38-4.57-3.86-7.08-1.47-2.51-3.16-5.05-4.95-7.29-.38-.51-1.02-1.26-1.59-1.9-.56-.58-1.13-1.18-1.66-1.65-.54-.51-1.06-.94-1.56-1.34-.51-.42-.98-.76-1.45-1.1-1.86-1.32-3.43-2.14-4.62-2.44-5.57-7.06-23.08-15.99-20.37-18.45-2.61-.8-13.38-6.09-19.77-10.32,3.48,1.12,3.75.65,2.29-.71-1.48-1.35-4.59-3.64-8.59-6.12-3.64-2.27-7.75-4.62-9.89-6.32-1.09-.86-1.55-1.5-1.63-1.99-.08-.49.15-.86.65-1.19-.66.05-1.14.16-1.85-.33-.37-.23-.72-.65-1.11-1.04-.33-.44-.71-.9-.99-1.47-1.25-2.2-1.9-5.57-1.69-9.68.06-1.04.14-2.09.28-3.23.06-.56.15-1.15.23-1.76l.25-1.71c.34-2.1.86-4.22,1.48-6.26,1.28-4.08,2.99-7.84,4.8-11.07-.26.84-.68,2.47-1.49,3.48,2.25-3.45,4.4-5.03,6.16-6.31.96-.57,1.82-1.08,2.75-1.57.48-.22.96-.45,1.45-.7.25-.12.49-.26.75-.38.27-.12.55-.24.83-.36-.47-1.56,1.86-4.28,5.75-6.64,1.9-1.23,4.22-2.25,6.49-3.25,2.37-.93,4.65-1.82,6.52-2.55,6.07.71,4.32,1.9,1.74,3.12-2.6,1.25-5.84,2.82-3.89,3.92-.25-.59.73-1.28,2.37-1.93,1.65-.64,3.94-1.26,6.25-1.76,1.17-.26,2.31-.51,3.33-.73,1.05-.23,2.01-.46,2.69-.67,1.32-.41,1.86-.83.85-1.31,1.1.17,2.05.31,2.87.44.81.14,1.5.26,2.09.37,1.18.18,1.97.36,2.64.54.66.18,1.19.38,1.82.7.62.34,1.35.83,2.38,1.55.45-.96,1.18-1.44,2.13-1.6.96-.17,2.14-.11,3.48.13,2.7.39,5.99,1.26,9.84,1.01,2.99,1.27,4.58,2.28,5.54,3.02.96.73,1.28,1.23,1.66,1.63.39.41.83.72,2.06,1.18,1.23.46,3.21,1.03,6.78,2.08,3.11,1.83,1.41,1.87-1.01,1.48-2.43-.4-5.52-1.13-5.52-1.13ZM189.43,314.08s0-.04,0-.04c2.9-.5,5.35-1.07,6.92-1.44-1.44.34-3.42.83-6.91,1.48ZM161.12,315.6c3.25.6,7.35.81,11.87.52,1.05.7,0,1.62-2.87,1.65.77-.29-.53-.45-2.49-.76-1.96-.29-4.57-.78-6.51-1.41ZM225.81,321.09c-4.65,1.68-6.33,1.65-7.08,1.39,2.16-.64,4.78-1.44,8.15-2.6.11-.12.37-.3.48-.43-.33.55-.73,1.08-1.55,1.64Z"/>
  <path class="cls-1" d="M233.43,315.64c.65-.27,1-.48,1.83-.78-.97.11-1.93.25-2.89.42-.5.41-1,.84-1.44,1.21.85-.29,1.72-.58,2.51-.85Z"/>
  <path class="cls-1" d="M106.49,98.27l-.2-.54c.13.46.22.91.25,1.23-.09-.38-.02-.42-.04-.68Z"/>
  <polygon class="cls-1" points="168.95 138.51 168.56 138.1 166.83 140.12 168.95 138.51"/>
  <path class="cls-1" d="M64.93,83.77c-.38.02-1.04.21-2.21.78.17.06,1.1-.31,2.21-.78Z"/>
  <path class="cls-1" d="M22.46,143.39c-.99,3.43-1.81,6.89-2.5,10.38,1-4.52,1.83-7.77,2.5-10.38Z"/>
  <path class="cls-1" d="M23.11,201.62c.69.56,1.04.56,1.37.63-.01-.04-.03-.07-.04-.11-.44-.16-.88-.31-1.33-.52Z"/>
  <path class="cls-1" d="M423.32,75.13c0,.96-.05,1.9-.08,2.74-.17,3.2-.27,3.72-.14,2.84.11-.88.35-3.16.22-5.58Z"/>
  <path class="cls-1" d="M247.91,76.78c-3.24-.31-6.57-1.34-9.56-3.36,2.23,1.83,4.57,3.08,6.37,3.54.89.29,1.65.35,2.19.32.55-.04.89-.19,1-.5Z"/>
  <path class="cls-1" d="M528.3,110.65s-.02,0-.05,0c.31.56.59,1.05.9,1.6l-.85-1.59Z"/>
  <path class="cls-1" d="M230.14,61.43c1.31,5.3,4.46,9.52,8.21,11.99-1.84-1.49-3.54-3.47-4.89-5.58-1.37-2.11-2.43-4.34-3.32-6.41Z"/>
  <path class="cls-1" d="M22.86,273.54c.61.75,1.28,1.44,1.93,2.16.07-.14.28-.1.5,0-.81-.72-1.65-1.4-2.43-2.15Z"/>
  <path class="cls-1" d="M25.28,275.69c.8.71,1.65,1.36,2.47,2.04-1.06-1.02-1.99-1.88-2.47-2.04Z"/>
  <path class="cls-1" d="M33.17,281.7c-1.85-1.25-3.65-2.58-5.41-3.97,1.69,1.59,3.82,3.53,5.41,3.97Z"/>
  <path class="cls-1" d="M4.85,199.05l-.29-1.23c-.09.56,0,.98.29,1.23Z"/>
  <path class="cls-1" d="M21.07,179.87c-2.48,1.61-5.7,3.65-8.82,6.46-3.12,2.78-6.09,6.41-7.91,10.47l.21,1.03c.28-2.15,3.25-6.18,6.85-9.58,3.59-3.46,7.76-6.22,9.67-8.37Z"/>
  <path class="cls-1" d="M67.68,211.77c4.49-2.86,8.38-7.28,9.51-12.26-.3.63-.78,1.24-1.14,1.73-.43.47-.8.8-1.06.87-.25.07-.39-.13-.34-.69.03-.28.11-.65.17-1.15.11-.49.16-1.09.28-1.83-.64,1.99-1.45,3.26-2.04,4.17-.63.9-1.05,1.43-1.23,1.77-.41.65.09.5.66.37.54-.13,1.16-.25.93.72-.15.47-.49,1.24-1.35,2.33-.84,1.06-2.25,2.55-4.39,3.98Z"/>
  <path class="cls-1" d="M31.23,191.67c.68,2.05,1.24,2.97,1.52,3.29.28.32.33,0,.29-.53-.05-.52-.12-1.29-.17-1.9-.02-.61,0-1.07.15-1-1.1-2.36-1.51-4.08-1.8-4.24-.24-.19-.42,1.17.02,4.38Z"/>
  <path class="cls-1" d="M174.88,15.9l-.37,2.23c6.94-2.18-.14-.81.37-2.23Z"/>
  <polygon class="cls-1" points="253.69 5.87 246.49 3.27 242.6 4.49 253.69 5.87"/>
  <path class="cls-1" d="M280.84,35.64c-.13-.37-.24-.75-.38-1.11l-.44-1.05c1.05,2.65,1.59,5.83,1.49,9.07.08-2.38-.11-4.76-.68-6.91Z"/>
  <path class="cls-1" d="M509.71,181.29c.96.41,1.95.77,2.96,1.08,1.7-1.46,2.1-2.97,1.56-3.38-.27-.22-.74-.15-1.49.2-.73.37-1.69,1.08-3.03,2.1Z"/>
  <path class="cls-1" d="M547.81,272.72c-1.44.83-3.53,2.61-5.72,4.71-2.18,2.11-4.43,4.58-5.81,6.87,2.42-2.34,4.92-4.52,6.98-6.49,2.07-1.96,3.69-3.73,4.55-5.1Z"/>
  <polygon class="cls-1" points="237.37 98.49 243.54 97.74 231.96 98.29 237.37 98.49"/>
</svg>